<svg version="1.1" xmlns="http://www.w3.org/2000/svg" xmlns:xlink="http://www.w3.org/1999/xlink" width="120.69739" height="125.22319" viewBox="0,0,120.69739,125.22319"><g transform="translate(-180.00184,-108.58976)"><g data-paper-data="{&quot;isPaintingLayer&quot;:true}" fill-rule="nonzero" stroke="none" stroke-linecap="butt" stroke-linejoin="miter" stroke-miterlimit="10" stroke-dasharray="" stroke-dashoffset="0" style="mix-blend-mode: normal"><g data-paper-data="{&quot;index&quot;:null}" stroke-width="1"><path d="M292.504,158.39999c-0.901,4.477 1.674,7.675 2.768,11.769c1.03,3.901 0.772,8.954 -1.416,12.408c-1.931,3.262 -5.02,5.628 -8.625,6.779c-4.634,1.407 -10.426,1.919 -15.575,1.919v-13.176c4.055,-0.063 9.912,0.128 11.971,-1.471c2.768,-2.174 2.124,-6.523 0.837,-9.338c-1.609,-3.517 -3.926,-6.715 -3.798,-10.745c0.129,-3.901 2.511,-6.652 4.699,-9.722c5.149,-7.163 2.059,-11.257 -2.768,-17.652c-2.317,-3.007 -2.96,-6.588 -3.153,-10.298c-0.065,-2.111 -0.258,-9.594 3.089,-9.53c1.158,0.96 0.193,4.733 0.451,5.948c0.579,0.768 1.415,1.28 2.381,1.407l0.708,-0.255c1.802,-2.239 1.03,-5.437 2.703,-7.803c0.322,-0.128 0.708,0 0.901,0.255c0.451,1.408 -1.416,8.571 2.446,7.228l0.45,-0.448c0.258,-0.831 1.288,-5.309 2.704,-5.053c1.222,0.896 0.193,4.222 0.064,5.437c-0.322,2.558 -0.579,5.053 -0.064,7.611c0.836,4.477 3.346,6.78 5.47,10.553c2.189,4.03 2.575,8.763 0.966,13.048c-1.609,4.157 -6.308,6.652 -7.209,11.129z" fill="#78c8c8"/><path d="M280.34,187.949c-3.926,0.192 -3.669,-5.308 0.129,-5.5c3.282,-0.192 3.797,5.308 -0.129,5.5z" fill="#aadcdc"/><path d="M283.622,157.18499c-2.252,0.064 -2.059,-3.006 0.065,-3.134c1.802,-0.064 2.188,3.07 -0.065,3.134z" fill="#aadcdc"/><path d="M291.281,175.221c-2.252,0.064 -2.059,-3.006 0.065,-3.134c1.802,-0.064 2.188,3.07 -0.065,3.134z" fill="#aadcdc"/><path d="M281.691,123.478c-2.252,0.064 -2.059,-3.006 0.065,-3.134c1.866,-0.064 2.188,3.07 -0.065,3.134z" fill="#aadcdc"/></g><g data-paper-data="{&quot;index&quot;:null}" stroke-width="1"><path d="M207.997,189.996c-5.663,-0.128 -11.263,-1.151 -16.605,-2.942c-3.54,-1.407 -6.307,-4.285 -7.53,-7.867c-2.575,-7.931 3.089,-14.711 3.668,-22.45c0.322,-4.541 -1.737,-7.035 -4.054,-10.617c-2.253,-3.454 -2.511,-6.972 -1.159,-10.873c1.352,-3.902 3.282,-7.356 1.802,-11.577c-0.45,-1.407 -5.406,-7.611 -3.797,-8.571c2.574,0.448 3.604,2.943 5.985,3.518c3.605,-1.407 -2.703,-5.436 -0.901,-7.099c3.347,-1.279 3.798,5.692 6.694,5.117c2.188,-0.896 -1.094,-5.117 -0.837,-6.46c1.867,-0.96 4.313,4.285 4.827,5.372c1.416,3.07 2.124,6.396 2.124,9.722c0,3.966 -2.51,5.373 -4.376,8.571c-1.738,3.006 -1.545,5.948 -0.065,9.082c1.288,2.75 3.476,4.797 4.506,7.675c1.158,3.134 0.515,5.692 -0.837,8.634c-1.866,4.158 -3.669,11.641 -0.386,15.479c1.287,1.471 7.08,1.918 11.006,2.046z" fill="#78c8c8"/><path d="M185.085,140.811c-2.253,0.064 -2.06,-3.006 0.064,-3.134c1.866,-0.128 2.188,3.07 -0.064,3.134z" fill="#aadcdc"/><path d="M190.491,161.79c-2.253,0.064 -2.06,-3.006 0.064,-3.134c1.802,-0.064 2.189,3.07 -0.064,3.134z" fill="#00a0b4"/><path d="M193.323,157.057c-4.763,0.192 -4.377,-6.46 0.193,-6.716c3.99,-0.192 4.57,6.524 -0.193,6.716z" fill="#aadcdc"/></g><g data-paper-data="{&quot;index&quot;:null}" fill="#00a0b4" stroke-width="1"><path d="M238.312,224.982c-0.58,5.756 -2.382,7.675 -5.922,8.506c-1.802,0.448 -3.539,0.512 -5.149,-0.319c-3.411,-1.791 -4.119,-6.78 -5.856,-10.042c-3.476,-0.959 -3.025,2.686 -7.981,2.686c-8.625,0 -8.56,-4.541 -10.169,-17.525c-1.609,-12.983 33.854,-8.954 33.854,-8.954c0,0 1.802,19.955 1.223,25.648z"/><path d="M244.233,222.168c-1.223,-3.262 0.257,-19.188 0.257,-19.188l25.552,2.878c0,0 0.901,8.379 1.03,11.001c0.322,11.896 -3.54,13.367 -6.179,13.431c-11.842,0.448 -8.817,-11.065 -11.971,-12.728c-5.535,-2.878 -6.372,1.408 -8.689,4.606z"/></g><g data-paper-data="{&quot;index&quot;:null}"><path d="M246.099,144.969c0,0 0.194,3.197 -0.514,4.669c-0.708,1.471 -2.253,1.407 -4.12,0.703c-1.866,-0.703 -1.158,-4.605 -1.158,-4.605z" fill="#ffffff" stroke-width="1"/><path d="M256.784,169.081v6.524h-33.726v-6.012c4.248,-3.71 11.392,-5.373 19.308,-4.221c6.758,1.023 11.65,1.79 14.418,3.709z" fill="#000000" stroke-width="1"/><path d="M274.354,206.689c-0.193,4.605 0.065,11.321 -2.51,15.351c-2.574,4.029 -7.788,3.325 -10.684,0c-2.381,-2.687 -3.411,-11.577 -10.555,-11.001c-7.144,0.575 -0.901,14.966 -9.333,18.292c-4.119,1.599 -10.169,-1.279 -12.679,-4.733c-1.352,-1.855 0,-8.315 -5.149,-8.89c-5.149,-0.576 -6.822,4.477 -10.426,5.116c-7.853,1.407 -10.234,-13.367 -10.556,-21.298c-0.386,-8.443 -0.965,-16.438 -0.322,-24.816c1.095,-14.775 -0.321,-30.829 6.05,-44.772c5.793,-12.664 23.042,-20.147 37.073,-17.333c14.546,2.942 21.947,11.577 26.324,25.584c5.02,15.99 2.059,31.852 3.604,48.225c0.579,6.588 -0.515,13.624 -0.837,20.275zM239.277,146.887c-10.426,-0.639 -16.67,5.949 -15.768,13.688c0.901,7.739 7.272,11.512 14.738,11.512c7.466,0 15.512,-2.622 15.833,-11.704c0.322,-9.146 -5.02,-12.92 -14.803,-13.496z" fill="#a3d9da" stroke-width="1"/><path d="M254.12991,160.38599c-0.321,9.082 -8.8501,17.78728 -16.3161,17.78728c-7.466,0 -13.45368,-9.85564 -14.35468,-17.59464c-0.902,-7.739 5.39393,-14.38059 15.81993,-13.74159c9.783,0.576 15.17285,4.40295 14.85085,13.54895z" data-paper-data="{&quot;noHover&quot;:false,&quot;origItem&quot;:[&quot;Path&quot;,{&quot;applyMatrix&quot;:true,&quot;segments&quot;:[[[226.62108,160.383],[-0.322,-9.146],[0.321,9.082]],[[242.45408,172.087],[-7.466,0],[7.466,0]],[[257.19208,160.575],[-0.901,7.739],[0.902,-7.739]],[[241.42408,146.887],[10.426,-0.639],[-9.783,0.576]]],&quot;closed&quot;:true,&quot;fillColor&quot;:[0,0,0,1]}]}" fill="#a3d9da" stroke-width="0.5"/><path d="M267.081,202.212c3.991,0.256 5.021,16.118 1.223,15.926c-3.282,-0.192 -4.183,-2.047 -4.376,-4.221c-0.387,-5.117 -0.837,-11.961 3.153,-11.705z" fill="#78c8c8" stroke-width="1"/><path d="M257.041,200.357c3.99,0.192 5.02,8.059 1.223,7.995c-3.283,-0.128 -4.184,-1.023 -4.377,-2.11c-0.386,-2.559 -0.836,-6.077 3.154,-5.885z" fill="#78c8c8" stroke-width="1"/><path d="M262.19,199.974c-3.926,0.319 -3.669,-10.298 0.129,-10.682c3.282,-0.319 3.797,10.362 -0.129,10.682z" fill="#00a0b4" stroke-width="1"/><path d="M221.964,212.446c-3.926,0.192 -3.669,-5.309 0.129,-5.501c3.282,-0.128 3.797,5.309 -0.129,5.501z" fill="#006482" stroke-width="1"/><path d="M269.141,178.099c-3.926,0.192 -3.669,-5.308 0.129,-5.5c3.282,-0.192 3.797,5.309 -0.129,5.5z" fill="#78c8c8" stroke-width="1"/><path d="M212.953,131.473c-3.347,-2.111 4.441,-11.321 7.659,-9.338c2.768,1.727 -4.312,11.449 -7.659,9.338z" fill="#78c8c8" stroke-width="1"/><path d="M221.32,204.195c-2.832,0.128 -2.574,-3.838 0.129,-3.966c2.317,-0.127 2.703,3.838 -0.129,3.966z" fill="#78c8c8" stroke-width="1"/><path d="M237.926,192.618c-2.832,0.128 -2.575,-3.837 0.128,-3.965c2.317,-0.128 2.703,3.837 -0.128,3.965z" fill="#78c8c8" stroke-width="1"/><path d="M232.777,222.679c-2.832,0.128 -2.575,-3.837 0.128,-3.965c2.317,-0.128 2.704,3.837 -0.128,3.965z" fill="#78c8c8" stroke-width="1"/><path d="M247.709,203.427c-2.832,0.128 -2.575,-3.837 0.128,-3.965c2.317,-0.128 2.703,3.837 -0.128,3.965z" fill="#00a0b4" stroke-width="1"/><path d="M211.666,192.043c6.179,0.383 7.788,23.793 1.866,23.473c-5.084,-0.256 -6.564,-2.942 -6.822,-6.204c-0.579,-7.548 -1.223,-17.653 4.956,-17.269z" fill="#78c8c8" stroke-width="1"/></g></g></g></svg>