<svg version="1.1" xmlns="http://www.w3.org/2000/svg" xmlns:xlink="http://www.w3.org/1999/xlink" width="82.52927" height="121.83964" viewBox="0,0,82.52927,121.83964"><g transform="translate(-193.19397,-112.17722)"><g data-paper-data="{&quot;isPaintingLayer&quot;:true}" fill-rule="nonzero" stroke="none" stroke-width="1" stroke-linecap="butt" stroke-linejoin="miter" stroke-miterlimit="10" stroke-dasharray="" stroke-dashoffset="0" style="mix-blend-mode: normal"><g data-paper-data="{&quot;index&quot;:null}"><path d="M247.66308,181.32483c3.926,-0.128 9.719,-0.575 11.006,-2.046c3.283,-3.838 1.48,-11.321 -0.386,-15.479c-1.352,-2.942 -1.995,-5.5 -0.837,-8.634c1.03,-2.878 3.218,-4.925 4.506,-7.675c1.48,-3.134 1.673,-6.076 -0.065,-9.082c-1.866,-3.198 -4.376,-4.605 -4.376,-8.571c0,-3.326 0.708,-6.652 2.124,-9.722c0.514,-1.087 2.96,-6.332 4.827,-5.372c0.257,1.343 -3.025,5.564 -0.837,6.46c2.896,0.575 3.347,-6.396 6.694,-5.117c1.802,1.663 -4.506,5.692 -0.901,7.099c2.381,-0.575 3.411,-3.07 5.985,-3.518c1.609,0.96 -3.347,7.164 -3.797,8.571c-1.48,4.221 0.45,7.675 1.802,11.577c1.352,3.901 1.094,7.419 -1.159,10.873c-2.317,3.582 -4.376,6.076 -4.054,10.617c0.579,7.739 6.243,14.519 3.668,22.45c-1.223,3.582 -3.99,6.46 -7.53,7.867c-5.342,1.791 -10.942,2.814 -16.605,2.942z" fill="#78c8c8"/><path d="M270.57608,142.24583c2.124,0.128 2.317,3.198 0.064,3.134c-2.252,-0.064 -1.93,-3.262 -0.064,-3.134z" fill="#aadcdc"/><path d="M265.17008,163.22483c2.124,0.128 2.317,3.198 0.064,3.134c-2.253,-0.064 -1.866,-3.198 -0.064,-3.134z" fill="#00a0b4"/><path d="M262.20908,154.90983c4.57,0.256 4.956,6.908 0.193,6.716c-4.763,-0.192 -4.183,-6.908 -0.193,-6.716z" fill="#aadcdc"/></g><g data-paper-data="{&quot;index&quot;:null}" fill="#00a0b4"><path d="M230.65321,199.526c0,0 35.064,-4.031 33.473,8.957c-1.591,12.989 -1.527,17.531 -10.054,17.531c-4.9,0 -4.455,-3.647 -7.891,-2.687c-1.719,3.263 -2.419,8.254 -5.791,10.045c-1.591,0.832 -3.309,0.768 -5.091,0.32c-3.5,-0.832 -5.282,-2.751 -5.855,-8.51c-0.572,-5.694 1.209,-25.656 1.209,-25.656z"/><path d="M215.06221,222.623c-3.118,6.782 -6.363,7.486 -9.99,7.614c-2.61,0.064 -6.428,-1.536 -6.11,-13.436c0.064,-2.623 0.955,-11.005 0.955,-11.005l25.264,-2.943c0,0 7.063,19.578 5.854,22.905c-2.291,-3.199 -12.854,-9.917 -15.973,-3.135z"/></g><g data-paper-data="{&quot;index&quot;:null}"><path d="M236.25321,172.078v-21.242l25.137,0.064l2.418,21.178h-27.555" fill="#006482"/><path d="M253.49921,150.836c0,0 0.573,5.055 -1.146,5.759c-1.718,0.704 -2.927,0.768 -3.563,-0.704c-0.637,-1.472 -0.446,-4.671 -0.446,-4.671z" fill="#ffffff"/><path d="M250.06221,163.44099c4.01,-0.832 7.764,-0.704 10.564,1.343l0.191,9.278l-16.991,-0.768l-0.445,-7.742c0.7,-0.832 3.881,-1.471 6.681,-2.111z" fill="#000000"/><path d="M196.54421,138.36c4.328,-14.012 11.646,-22.649 26.028,-25.592c13.872,-2.815 30.927,4.67 36.654,17.339c6.3,13.948 4.9,30.007 5.982,44.786c0.636,8.382 0.064,16.38 -0.318,24.761c-0.128,3.839 0.254,12.988 -1.273,19.514c-1.591,6.91 -5.218,11.133 -9.227,10.429c-10.755,0.768 -5.218,-14.332 -10.309,-13.756c-5.091,0.576 -3.755,7.038 -5.091,8.894c-2.482,3.455 -8.464,6.334 -12.537,4.734c-8.336,-3.327 -2.163,-17.723 -9.227,-18.298c-7.064,-0.576 -8.082,8.317 -10.436,11.004c-2.864,3.327 -8.018,4.031 -10.564,0c-2.545,-4.03 -2.291,-10.748 -2.482,-15.355c-0.254,-6.59 -2.1,-52.401 2.8,-68.46zM245.99021,161.777c0.127,5.823 3.882,7.486 7.318,7.486c3.436,0 6.364,-2.431 6.809,-7.422c0.445,-4.99 -2.482,-9.149 -7.255,-8.765c-4.581,0.448 -7,2.879 -6.872,8.701z" fill="#aadcdc"/><path d="M245.99021,122.301c3.182,-1.983 10.882,7.23 7.572,9.341c-3.309,2.112 -10.309,-7.614 -7.572,-9.341z" fill="#78c8c8"/><path d="M232.56221,157.491c-0.19,-0.512 -0.127,-1.088 0.191,-1.536c0.128,-0.256 0.319,-0.448 0.637,-0.384v0c0.7,0.704 0.7,1.856 0,2.559c-0.318,-0.256 -0.637,-0.512 -0.828,-0.639z" fill="#000000"/><path d="M231.09921,221.919c-0.191,2.176 -1.082,4.031 -4.327,4.159c-3.755,0.192 -2.737,-15.675 1.209,-15.931c3.945,-0.256 3.5,6.654 3.118,11.772z" fill="#78c8c8"/><path d="M231.92621,201.701c-0.191,1.088 -1.082,1.984 -4.327,2.112c-3.755,0.064 -2.737,-7.806 1.209,-7.998c3.945,-0.192 3.5,3.327 3.118,5.886z" fill="#78c8c8"/><path d="M220.40821,189.609c3.754,0.384 4.009,11.005 0.127,10.685c-3.882,-0.32 -3.373,-11.005 -0.127,-10.685z" fill="#78c8c8"/><path d="M245.48121,207.14c3.754,0.192 4.009,5.694 0.127,5.502c-3.882,-0.192 -3.373,-5.63 -0.127,-5.502z" fill="#00a0b4"/><path d="M260.81721,187.818c2.673,0.127 2.927,4.094 0.127,3.966c-2.8,-0.128 -2.482,-4.03 -0.127,-3.966z" fill="#00a0b4"/><path d="M236.57221,193.576c2.672,0.128 2.863,4.095 0.127,3.967c-2.737,-0.128 -2.482,-4.095 -0.127,-3.967z" fill="#78c8c8"/><path d="M199.21721,214.434c2.673,0.128 2.927,4.094 0.127,3.966c-2.8,-0.127 -2.418,-4.094 -0.127,-3.966z" fill="#006482"/><path d="M260.69021,209.507c-0.255,3.263 -1.718,5.95 -6.746,6.206c-5.854,0.32 -4.263,-23.097 1.846,-23.481c6.109,-0.384 5.472,9.725 4.9,17.275z" fill="#78c8c8"/></g><path d="M241.92206,154.02201c-0.966,-1.087 -2.06,-2.047 -3.154,-3.006c-0.193,-0.256 -0.129,-0.576 0.129,-0.767c0,0 0,0 0.064,0c0.064,0 0.193,0 0.257,0.063c0.129,0.064 0.194,0.128 0.322,0.256c0.966,1.216 2.124,2.303 3.411,3.198c0.322,0.192 0.708,0.448 0.58,1.024l-0.58,0.128c-0.193,0 -0.386,0.064 -0.579,0.127c-0.901,0.384 -1.738,0.832 -2.639,1.216l-1.029,0.447c-0.451,-0.064 -0.644,-0.191 -0.58,-0.575c1.223,-0.576 2.382,-1.151 3.54,-1.727c0.065,-0.128 0.129,-0.256 0.258,-0.384z" data-paper-data="{&quot;index&quot;:null}" fill="#000000"/><g data-paper-data="{&quot;index&quot;:null}"><path d="M216.87641,179.77415c3.926,-0.128 9.719,-0.575 11.006,-2.046c3.283,-3.838 1.48,-11.321 -0.386,-15.479c-1.352,-2.942 -1.995,-5.5 -0.837,-8.634c1.03,-2.878 3.218,-4.925 4.506,-7.675c1.48,-3.134 1.673,-6.076 -0.065,-9.082c-1.866,-3.198 -4.376,-4.605 -4.376,-8.571c0,-3.326 0.708,-6.652 2.124,-9.722c0.514,-1.087 2.96,-6.332 4.827,-5.372c0.257,1.343 -3.025,5.564 -0.837,6.46c2.896,0.575 3.347,-6.396 6.694,-5.117c1.802,1.663 -4.506,5.692 -0.901,7.099c2.381,-0.575 3.411,-3.07 5.985,-3.518c1.609,0.96 -3.347,7.164 -3.797,8.571c-1.48,4.221 0.45,7.675 1.802,11.577c1.352,3.901 1.094,7.419 -1.159,10.873c-2.317,3.582 -4.376,6.076 -4.054,10.617c0.579,7.739 6.243,14.519 3.668,22.45c-1.223,3.582 -3.99,6.46 -7.53,7.867c-5.342,1.791 -10.942,2.814 -16.605,2.942z" fill="#78c8c8"/><path d="M239.78941,140.69515c2.124,0.128 2.317,3.198 0.064,3.134c-2.252,-0.064 -1.93,-3.262 -0.064,-3.134z" fill="#aadcdc"/><path d="M234.38341,161.67415c2.124,0.128 2.317,3.198 0.064,3.134c-2.253,-0.064 -1.866,-3.198 -0.064,-3.134z" fill="#00a0b4"/><path d="M231.42241,153.35915c4.57,0.256 4.956,6.908 0.193,6.716c-4.763,-0.192 -4.183,-6.908 -0.193,-6.716z" fill="#aadcdc"/></g><path d="M261.13134,153.11251c1.158,0.576 2.317,1.151 3.54,1.727c0.064,0.384 -0.129,0.511 -0.58,0.575l-1.029,-0.447c-0.901,-0.384 -1.738,-0.832 -2.639,-1.216c-0.193,-0.063 -0.386,-0.127 -0.579,-0.127l-0.58,-0.128c-0.128,-0.576 0.258,-0.832 0.58,-1.024c1.287,-0.895 2.445,-1.982 3.411,-3.198c0.128,-0.128 0.193,-0.192 0.322,-0.256c0.064,-0.063 0.193,-0.063 0.257,-0.063c0.064,0 0.064,0 0.064,0c0.258,0.191 0.322,0.511 0.129,0.767c-1.094,0.959 -2.188,1.919 -3.154,3.006c0.129,0.128 0.193,0.256 0.258,0.384z" data-paper-data="{&quot;index&quot;:null}" fill="#000000"/></g></g></svg>