<svg version="1.1" xmlns="http://www.w3.org/2000/svg" xmlns:xlink="http://www.w3.org/1999/xlink" width="82.52927" height="121.83964" viewBox="0,0,82.52927,121.83964"><g transform="translate(-193.19397,-112.17723)"><g data-paper-data="{&quot;isPaintingLayer&quot;:true}" fill-rule="nonzero" stroke="none" stroke-width="1" stroke-linecap="butt" stroke-linejoin="miter" stroke-miterlimit="10" stroke-dasharray="" stroke-dashoffset="0" style="mix-blend-mode: normal"><g data-paper-data="{&quot;index&quot;:null}"><path d="M221.18913,194.56483c-5.663,-0.128 -11.263,-1.151 -16.605,-2.942c-3.54,-1.407 -6.307,-4.285 -7.53,-7.867c-2.575,-7.931 3.089,-14.711 3.668,-22.45c0.322,-4.541 -1.737,-7.035 -4.054,-10.617c-2.253,-3.454 -2.511,-6.972 -1.159,-10.873c1.352,-3.902 3.282,-7.356 1.802,-11.577c-0.45,-1.407 -5.406,-7.611 -3.797,-8.571c2.574,0.448 3.604,2.943 5.985,3.518c3.605,-1.407 -2.703,-5.436 -0.901,-7.099c3.347,-1.279 3.798,5.692 6.694,5.117c2.188,-0.896 -1.094,-5.117 -0.837,-6.46c1.867,-0.96 4.313,4.285 4.827,5.372c1.416,3.07 2.124,6.396 2.124,9.722c0,3.966 -2.51,5.373 -4.376,8.571c-1.738,3.006 -1.545,5.948 -0.065,9.082c1.288,2.75 3.476,4.797 4.506,7.675c1.158,3.134 0.515,5.692 -0.837,8.634c-1.866,4.158 -3.669,11.641 -0.386,15.479c1.287,1.471 7.08,1.918 11.006,2.046z" fill="#78c8c8"/><path d="M198.27713,145.37983c-2.253,0.064 -2.06,-3.006 0.064,-3.134c1.866,-0.128 2.188,3.07 -0.064,3.134z" fill="#aadcdc"/><path d="M203.68313,166.35883c-2.253,0.064 -2.06,-3.006 0.064,-3.134c1.802,-0.064 2.189,3.07 -0.064,3.134z" fill="#00a0b4"/><path d="M206.51513,161.62583c-4.763,0.192 -4.377,-6.46 0.193,-6.716c3.99,-0.192 4.57,6.524 -0.193,6.716z" fill="#aadcdc"/></g><g fill="#00a0b4"><path d="M239.473,225.182c-0.573,5.759 -2.355,7.678 -5.855,8.51c-1.782,0.448 -3.5,0.512 -5.091,-0.32c-3.372,-1.791 -4.072,-6.782 -5.791,-10.045c-3.436,-0.96 -2.991,2.687 -7.891,2.687c-8.527,0 -8.463,-4.542 -10.054,-17.531c-1.591,-12.988 33.473,-8.957 33.473,-8.957c0,0 1.781,19.962 1.209,25.656z"/><path d="M237.882,225.758c-1.209,-3.327 5.854,-22.905 5.854,-22.905l25.264,2.943c0,0 0.891,8.382 0.955,11.005c0.318,11.9 -3.5,13.5 -6.11,13.436c-3.627,-0.128 -6.872,-0.832 -9.99,-7.614c-3.119,-6.782 -13.682,-0.064 -15.973,3.135z"/></g><g><path d="M232.664,172.078h-27.555l2.418,-21.178l25.137,-0.064v21.242" fill="#006482"/><path d="M220.573,151.22c0,0 0.191,3.199 -0.446,4.671c-0.636,1.472 -1.845,1.408 -3.563,0.704c-1.719,-0.704 -1.146,-5.759 -1.146,-5.759z" fill="#ffffff"/><path d="M225.536,165.552l-0.445,7.742l-16.991,0.768l0.191,-9.278c2.8,-2.047 6.554,-2.175 10.564,-1.343c2.8,0.64 5.981,1.279 6.681,2.111z" fill="#000000"/><path d="M275.173,206.82c-0.191,4.607 0.063,11.325 -2.482,15.355c-2.546,4.031 -7.7,3.327 -10.564,0c-2.354,-2.687 -3.372,-11.58 -10.436,-11.004c-7.064,0.575 -0.891,14.971 -9.227,18.298c-4.073,1.6 -10.055,-1.279 -12.537,-4.734c-1.336,-1.856 0,-8.318 -5.091,-8.894c-5.091,-0.576 0.446,14.524 -10.309,13.756c-4.009,0.704 -7.636,-3.519 -9.227,-10.429c-1.527,-6.526 -1.145,-15.675 -1.273,-19.514c-0.382,-8.381 -0.954,-16.379 -0.318,-24.761c1.082,-14.779 -0.318,-30.838 5.982,-44.786c5.727,-12.669 22.782,-20.154 36.654,-17.339c14.382,2.943 21.7,11.58 26.028,25.592c4.9,16.059 3.054,61.87 2.8,68.46zM216.055,153.076c-4.773,-0.384 -7.7,3.775 -7.255,8.765c0.445,4.991 3.373,7.422 6.809,7.422c3.436,0 7.191,-1.663 7.318,-7.486c0.128,-5.822 -2.291,-8.253 -6.872,-8.701z" fill="#aadcdc"/><path d="M215.355,131.642c-3.31,-2.111 4.39,-11.324 7.572,-9.341c2.737,1.727 -4.263,11.453 -7.572,9.341z" fill="#78c8c8"/><path d="M235.527,158.13c-0.7,-0.703 -0.7,-1.855 0,-2.559v0c0.318,-0.064 0.509,0.128 0.637,0.384c0.318,0.448 0.381,1.024 0.191,1.536c-0.191,0.127 -0.51,0.383 -0.828,0.639z" fill="#000000"/><path d="M240.936,210.147c3.946,0.256 4.964,16.123 1.209,15.931c-3.245,-0.128 -4.136,-1.983 -4.327,-4.159c-0.382,-5.118 -0.827,-12.028 3.118,-11.772z" fill="#78c8c8"/><path d="M240.109,195.815c3.946,0.192 4.964,8.062 1.209,7.998c-3.245,-0.128 -4.136,-1.024 -4.327,-2.112c-0.382,-2.559 -0.827,-6.078 3.118,-5.886z" fill="#78c8c8"/><path d="M248.382,200.294c-3.882,0.32 -3.627,-10.301 0.127,-10.685c3.246,-0.32 3.755,10.365 -0.127,10.685z" fill="#78c8c8"/><path d="M223.309,212.642c-3.882,0.192 -3.627,-5.31 0.127,-5.502c3.246,-0.128 3.755,5.31 -0.127,5.502z" fill="#00a0b4"/><path d="M207.973,191.784c-2.8,0.128 -2.546,-3.839 0.127,-3.966c2.355,-0.064 2.673,3.838 -0.127,3.966z" fill="#00a0b4"/><path d="M232.218,197.543c-2.736,0.128 -2.545,-3.839 0.127,-3.967c2.355,-0.128 2.61,3.839 -0.127,3.967z" fill="#78c8c8"/><path d="M269.573,218.4c-2.8,0.128 -2.546,-3.838 0.127,-3.966c2.291,-0.128 2.673,3.839 -0.127,3.966z" fill="#006482"/><path d="M213.127,192.232c6.109,0.384 7.7,23.801 1.846,23.481c-5.028,-0.256 -6.491,-2.943 -6.746,-6.206c-0.572,-7.55 -1.209,-17.659 4.9,-17.275z" fill="#78c8c8"/></g><path d="M227.25315,154.40601c1.158,0.576 2.317,1.151 3.54,1.727c0.064,0.384 -0.129,0.511 -0.58,0.575l-1.029,-0.447c-0.901,-0.384 -1.738,-0.832 -2.639,-1.216c-0.193,-0.063 -0.386,-0.127 -0.579,-0.127l-0.58,-0.128c-0.128,-0.576 0.258,-0.832 0.58,-1.024c1.287,-0.895 2.445,-1.982 3.411,-3.198c0.128,-0.128 0.193,-0.192 0.322,-0.256c0.064,-0.063 0.193,-0.063 0.257,-0.063c0.064,0 0.064,0 0.064,0c0.258,0.191 0.322,0.511 0.129,0.767c-1.094,0.959 -2.188,1.919 -3.154,3.006c0.129,0.128 0.193,0.256 0.258,0.384z" data-paper-data="{&quot;index&quot;:null}" fill="#000000"/><g data-paper-data="{&quot;index&quot;:null}"><path d="M251.9758,193.01415c-5.663,-0.128 -11.263,-1.151 -16.605,-2.942c-3.54,-1.407 -6.307,-4.285 -7.53,-7.867c-2.575,-7.931 3.089,-14.711 3.668,-22.45c0.322,-4.541 -1.737,-7.035 -4.054,-10.617c-2.253,-3.454 -2.511,-6.972 -1.159,-10.873c1.352,-3.902 3.282,-7.356 1.802,-11.577c-0.45,-1.407 -5.406,-7.611 -3.797,-8.571c2.574,0.448 3.604,2.943 5.985,3.518c3.605,-1.407 -2.703,-5.436 -0.901,-7.099c3.347,-1.279 3.798,5.692 6.694,5.117c2.188,-0.896 -1.094,-5.117 -0.837,-6.46c1.867,-0.96 4.313,4.285 4.827,5.372c1.416,3.07 2.124,6.396 2.124,9.722c0,3.966 -2.51,5.373 -4.376,8.571c-1.738,3.006 -1.545,5.948 -0.065,9.082c1.288,2.75 3.476,4.797 4.506,7.675c1.158,3.134 0.515,5.692 -0.837,8.634c-1.866,4.158 -3.669,11.641 -0.386,15.479c1.287,1.471 7.08,1.918 11.006,2.046z" fill="#78c8c8"/><path d="M229.0638,143.82915c-2.253,0.064 -2.06,-3.006 0.064,-3.134c1.866,-0.128 2.188,3.07 -0.064,3.134z" fill="#aadcdc"/><path d="M234.4698,164.80815c-2.253,0.064 -2.06,-3.006 0.064,-3.134c1.802,-0.064 2.189,3.07 -0.064,3.134z" fill="#00a0b4"/><path d="M237.3018,160.07515c-4.763,0.192 -4.377,-6.46 0.193,-6.716c3.99,-0.192 4.57,6.524 -0.193,6.716z" fill="#aadcdc"/></g><path d="M208.04387,152.72851c-0.966,-1.087 -2.06,-2.047 -3.154,-3.006c-0.193,-0.256 -0.129,-0.576 0.129,-0.767c0,0 0,0 0.064,0c0.064,0 0.193,0 0.257,0.063c0.129,0.064 0.194,0.128 0.322,0.256c0.966,1.216 2.124,2.303 3.411,3.198c0.322,0.192 0.708,0.448 0.58,1.024l-0.58,0.128c-0.193,0 -0.386,0.064 -0.579,0.127c-0.901,0.384 -1.738,0.832 -2.639,1.216l-1.029,0.447c-0.451,-0.064 -0.644,-0.191 -0.58,-0.575c1.223,-0.576 2.382,-1.151 3.54,-1.727c0.065,-0.128 0.129,-0.256 0.258,-0.384z" fill="#000000"/></g></g></svg>