<svg version="1.1" xmlns="http://www.w3.org/2000/svg" xmlns:xlink="http://www.w3.org/1999/xlink" width="120.69739" height="125.22319" viewBox="0,0,120.69739,125.22319"><g transform="translate(-180.00185,-108.58976)"><g data-paper-data="{&quot;isPaintingLayer&quot;:true}" fill-rule="nonzero" stroke="none" stroke-linecap="butt" stroke-linejoin="miter" stroke-miterlimit="10" stroke-dasharray="" stroke-dashoffset="0" style="mix-blend-mode: normal"><g data-paper-data="{&quot;index&quot;:null}" stroke-width="1"><path d="M180.98808,147.271c-1.609,-4.285 -1.223,-9.018 0.966,-13.048c2.124,-3.773 4.634,-6.076 5.47,-10.553c0.515,-2.558 0.258,-5.053 -0.064,-7.611c-0.129,-1.215 -1.158,-4.541 0.064,-5.437c1.416,-0.256 2.446,4.222 2.704,5.053l0.45,0.448c3.862,1.343 1.995,-5.82 2.446,-7.228c0.193,-0.255 0.579,-0.383 0.901,-0.255c1.673,2.366 0.901,5.564 2.703,7.803l0.708,0.255c0.966,-0.127 1.802,-0.639 2.381,-1.407c0.258,-1.215 -0.707,-4.988 0.451,-5.948c3.347,-0.064 3.154,7.419 3.089,9.53c-0.193,3.71 -0.836,7.291 -3.153,10.298c-4.827,6.395 -7.917,10.489 -2.768,17.652c2.188,3.07 4.57,5.821 4.699,9.722c0.128,4.03 -2.189,7.228 -3.798,10.745c-1.287,2.815 -1.931,7.164 0.837,9.338c2.059,1.599 7.916,1.408 11.971,1.471v13.176c-5.149,0 -10.941,-0.512 -15.575,-1.919c-3.605,-1.151 -6.694,-3.517 -8.625,-6.779c-2.188,-3.454 -2.446,-8.507 -1.416,-12.408c1.094,-4.094 3.669,-7.292 2.768,-11.769c-0.901,-4.477 -5.6,-6.972 -7.209,-11.129z" fill="#78c8c8"/><path d="M200.23208,182.449c3.798,0.192 4.055,5.692 0.129,5.5c-3.926,-0.192 -3.411,-5.692 -0.129,-5.5z" fill="#aadcdc"/><path d="M197.01408,154.051c2.124,0.128 2.317,3.198 0.065,3.134c-2.253,-0.064 -1.867,-3.198 -0.065,-3.134z" fill="#aadcdc"/><path d="M189.35508,172.087c2.124,0.128 2.317,3.198 0.065,3.134c-2.253,-0.064 -1.867,-3.198 -0.065,-3.134z" fill="#aadcdc"/><path d="M198.94508,120.344c2.124,0.128 2.317,3.198 0.065,3.134c-2.253,-0.064 -1.931,-3.198 -0.065,-3.134z" fill="#aadcdc"/></g><g data-paper-data="{&quot;index&quot;:null}" stroke-width="1"><path d="M272.63908,176.756c3.926,-0.128 9.719,-0.575 11.006,-2.046c3.283,-3.838 1.48,-11.321 -0.386,-15.479c-1.352,-2.942 -1.995,-5.5 -0.837,-8.634c1.03,-2.878 3.218,-4.925 4.506,-7.675c1.48,-3.134 1.673,-6.076 -0.065,-9.082c-1.866,-3.198 -4.376,-4.605 -4.376,-8.571c0,-3.326 0.708,-6.652 2.124,-9.722c0.514,-1.087 2.96,-6.332 4.827,-5.372c0.257,1.343 -3.025,5.564 -0.837,6.46c2.896,0.575 3.347,-6.396 6.694,-5.117c1.802,1.663 -4.506,5.692 -0.901,7.099c2.381,-0.575 3.411,-3.07 5.985,-3.518c1.609,0.96 -3.347,7.164 -3.797,8.571c-1.48,4.221 0.45,7.675 1.802,11.577c1.352,3.901 1.094,7.419 -1.159,10.873c-2.317,3.582 -4.376,6.076 -4.054,10.617c0.579,7.739 6.243,14.519 3.668,22.45c-1.223,3.582 -3.99,6.46 -7.53,7.867c-5.342,1.791 -10.942,2.814 -16.605,2.942z" fill="#78c8c8"/><path d="M295.55208,137.677c2.124,0.128 2.317,3.198 0.064,3.134c-2.252,-0.064 -1.93,-3.262 -0.064,-3.134z" fill="#aadcdc"/><path d="M290.14608,158.656c2.124,0.128 2.317,3.198 0.064,3.134c-2.253,-0.064 -1.866,-3.198 -0.064,-3.134z" fill="#00a0b4"/><path d="M287.18508,150.341c4.57,0.256 4.956,6.908 0.193,6.716c-4.763,-0.192 -4.183,-6.908 -0.193,-6.716z" fill="#aadcdc"/></g><g data-paper-data="{&quot;index&quot;:null}" fill="#00a0b4" stroke-width="1"><path d="M243.61208,199.334c0,0 35.463,-4.029 33.854,8.954c-1.609,12.984 -1.544,17.525 -10.169,17.525c-4.956,0 -4.505,-3.645 -7.981,-2.686c-1.737,3.262 -2.445,8.251 -5.856,10.042c-1.61,0.831 -3.347,0.767 -5.149,0.319c-3.54,-0.831 -5.342,-2.75 -5.922,-8.506c-0.579,-5.693 1.223,-25.648 1.223,-25.648z"/><path d="M227.77908,217.562c-3.154,1.663 -0.129,13.176 -11.971,12.728c-2.639,-0.064 -6.501,-1.535 -6.179,-13.431c0.129,-2.622 1.03,-11.001 1.03,-11.001l25.552,-2.878c0,0 1.48,15.926 0.257,19.188c-2.317,-3.198 -3.154,-7.484 -8.689,-4.606z"/></g><g data-paper-data="{&quot;index&quot;:null}"><path d="M240.39408,145.736c0,0 0.708,3.902 -1.158,4.605c-1.867,0.704 -3.412,0.768 -4.12,-0.703c-0.708,-1.472 -0.514,-4.669 -0.514,-4.669z" fill="#ffffff" stroke-width="1"/><path d="M238.33508,165.372c7.916,-1.152 15.06,0.511 19.308,4.221v6.012h-33.726v-6.524c2.768,-1.919 7.66,-2.686 14.418,-3.709z" fill="#000000" stroke-width="1"/><path d="M205.51008,186.414c1.545,-16.373 -1.416,-32.235 3.604,-48.225c4.377,-14.007 11.778,-22.642 26.324,-25.584c14.031,-2.814 31.28,4.669 37.073,17.333c6.371,13.943 4.955,29.997 6.05,44.772c0.643,8.378 0.064,16.373 -0.322,24.816c-0.322,7.931 -2.703,22.705 -10.556,21.298c-3.604,-0.639 -5.277,-5.692 -10.426,-5.116c-5.149,0.575 -3.797,7.035 -5.149,8.89c-2.51,3.454 -8.56,6.332 -12.679,4.733c-8.432,-3.326 -2.189,-17.717 -9.333,-18.292c-7.144,-0.576 -8.174,8.314 -10.555,11.001c-2.896,3.325 -8.11,4.029 -10.684,0c-2.575,-4.03 -2.317,-10.746 -2.51,-15.351c-0.322,-6.651 -1.416,-13.687 -0.837,-20.275zM226.62108,160.383c0.321,9.082 8.367,11.704 15.833,11.704c7.466,0 13.837,-3.773 14.738,-11.512c0.902,-7.739 -5.342,-14.327 -15.768,-13.688c-9.783,0.576 -15.125,4.35 -14.803,13.496z" fill="#a3d9da" stroke-width="1"/><path d="M239.2662,136.05792c10.426,-0.639 29.22571,17.21287 28.32371,24.95187c-0.901,7.739 -17.23663,17.16348 -24.70263,17.16348c-7.466,0 -24.18723,-9.56761 -24.50823,-18.64961c-0.322,-9.146 11.10416,-22.88974 20.88716,-23.46574z" data-paper-data="{&quot;noHover&quot;:false,&quot;origItem&quot;:[&quot;Path&quot;,{&quot;applyMatrix&quot;:true,&quot;segments&quot;:[[[226.62108,160.383],[-0.322,-9.146],[0.321,9.082]],[[242.45408,172.087],[-7.466,0],[7.466,0]],[[257.19208,160.575],[-0.901,7.739],[0.902,-7.739]],[[241.42408,146.887],[10.426,-0.639],[-9.783,0.576]]],&quot;closed&quot;:true,&quot;fillColor&quot;:[0,0,0,1]}]}" fill="#a3d9da" stroke-width="0.5"/><path d="M216.77308,213.917c-0.193,2.174 -1.094,4.029 -4.376,4.221c-3.798,0.192 -2.768,-15.67 1.223,-15.926c3.99,-0.256 3.54,6.588 3.153,11.705z" fill="#78c8c8" stroke-width="1"/><path d="M226.81408,206.242c-0.193,1.087 -1.094,1.982 -4.377,2.11c-3.797,0.064 -2.767,-7.803 1.223,-7.995c3.99,-0.192 3.54,3.326 3.154,5.885z" fill="#78c8c8" stroke-width="1"/><path d="M218.38208,189.292c3.798,0.384 4.055,11.001 0.129,10.682c-3.926,-0.32 -3.411,-11.001 -0.129,-10.682z" fill="#00a0b4" stroke-width="1"/><path d="M258.60808,206.945c3.798,0.192 4.055,5.693 0.129,5.501c-3.926,-0.192 -3.411,-5.629 -0.129,-5.501z" fill="#006482" stroke-width="1"/><path d="M211.43108,172.599c3.798,0.192 4.055,5.692 0.129,5.5c-3.926,-0.191 -3.411,-5.692 -0.129,-5.5z" fill="#78c8c8" stroke-width="1"/><path d="M260.08908,122.135c3.218,-1.983 11.006,7.227 7.659,9.338c-3.347,2.111 -10.427,-7.611 -7.659,-9.338z" fill="#78c8c8" stroke-width="1"/><path d="M259.25208,200.229c2.703,0.128 2.961,4.094 0.129,3.966c-2.832,-0.128 -2.446,-4.093 -0.129,-3.966z" fill="#78c8c8" stroke-width="1"/><path d="M242.64708,188.653c2.703,0.128 2.96,4.093 0.128,3.965c-2.831,-0.128 -2.445,-4.093 -0.128,-3.965z" fill="#78c8c8" stroke-width="1"/><path d="M247.79608,218.714c2.703,0.128 2.96,4.093 0.128,3.965c-2.832,-0.128 -2.445,-4.093 -0.128,-3.965z" fill="#78c8c8" stroke-width="1"/><path d="M232.86408,199.462c2.703,0.128 2.96,4.093 0.128,3.965c-2.831,-0.128 -2.445,-4.093 -0.128,-3.965z" fill="#00a0b4" stroke-width="1"/><path d="M273.99108,209.312c-0.258,3.262 -1.738,5.948 -6.822,6.204c-5.922,0.32 -4.313,-23.09 1.866,-23.473c6.179,-0.384 5.535,9.721 4.956,17.269z" fill="#78c8c8" stroke-width="1"/></g></g></g></svg>