<svg version="1.1" xmlns="http://www.w3.org/2000/svg" xmlns:xlink="http://www.w3.org/1999/xlink" width="162.55957" height="47.02588" viewBox="0,0,162.55957,47.02588"><defs><linearGradient x1="186.9441" y1="131.64061" x2="186.9441" y2="147.85118" gradientUnits="userSpaceOnUse" id="color-1"><stop offset="0" stop-color="#ca712c"/><stop offset="1" stop-color="#6b3518"/></linearGradient><linearGradient x1="268.59001" y1="130.55732" x2="268.59001" y2="142.64804" gradientUnits="userSpaceOnUse" id="color-2"><stop offset="0" stop-color="#a95f26"/><stop offset="1" stop-color="#7f481c"/></linearGradient><linearGradient x1="263.60638" y1="132.75148" x2="263.60638" y2="145.60465" gradientUnits="userSpaceOnUse" id="color-3"><stop offset="0" stop-color="#a95f26"/><stop offset="1" stop-color="#7f481c"/></linearGradient><linearGradient x1="231.25835" y1="123.97892" x2="231.25835" y2="166.94358" gradientUnits="userSpaceOnUse" id="color-4"><stop offset="0" stop-color="#8c796a"/><stop offset="1" stop-color="#595852"/></linearGradient><linearGradient x1="215.83786" y1="129.62232" x2="215.83786" y2="133.29715" gradientUnits="userSpaceOnUse" id="color-5"><stop offset="0" stop-color="#c4beba"/><stop offset="1" stop-color="#b6afa7"/></linearGradient><linearGradient x1="206.33667" y1="134.63309" x2="206.33667" y2="137.13309" gradientUnits="userSpaceOnUse" id="color-6"><stop offset="0" stop-color="#c4beba"/><stop offset="1" stop-color="#b6afa7"/></linearGradient><linearGradient x1="222.92775" y1="129.60375" x2="222.92775" y2="134.32878" gradientUnits="userSpaceOnUse" id="color-7"><stop offset="0" stop-color="#c4beba"/><stop offset="1" stop-color="#b6afa7"/></linearGradient><linearGradient x1="214.1393" y1="133.89621" x2="214.1393" y2="137.13219" gradientUnits="userSpaceOnUse" id="color-8"><stop offset="0" stop-color="#c4beba"/><stop offset="1" stop-color="#b6afa7"/></linearGradient><linearGradient x1="264.85905" y1="136.7944" x2="264.85905" y2="143.77585" gradientUnits="userSpaceOnUse" id="color-9"><stop offset="0" stop-color="#a95f26"/><stop offset="1" stop-color="#7f481c"/></linearGradient></defs><g transform="translate(-168.1325,-121.66411)"><g data-paper-data="{&quot;isPaintingLayer&quot;:true}" fill-rule="nonzero" stroke-linejoin="miter" stroke-miterlimit="10" stroke-dasharray="" stroke-dashoffset="0" style="mix-blend-mode: normal"><path d="M316.35349,132.57013c-0.00155,-0.131 0.01968,-0.25461 0.0504,-0.3638c0.24993,-1.27094 1.24589,-2.43376 2.34517,-3.05067c0.26599,-0.64291 0.48151,-1.1387 0.7178,-1.56528v-0.10769c0,-0.42154 0.20867,-0.79434 0.52834,-1.02076l-0.00076,-0.00053l0.72719,-1.01807c0.22578,-0.32457 0.60151,-0.53701 1.02685,-0.53701c0.66176,0 1.20341,0.51424 1.24715,1.16491l0.13887,1.80091l-0.05023,0.00388l0.05244,0.15327c-0.26092,1.50897 -0.21913,5.01167 -1.71517,6.08611c-0.52802,0.37921 -1.29661,0.14126 -1.92711,0.29964c-0.70527,0.17717 -1.53264,1.19849 -2.0651,0.70323c-0.85076,-0.79131 -1.14475,-1.68471 -1.07583,-2.54813z" fill="#afa7a0" stroke="none" stroke-width="0.5" stroke-linecap="butt"/><path d="M318.81393,139.59353c-0.18597,-0.04989 -0.37121,-0.10535 -0.5556,-0.16658c0,0 -0.0244,-0.00814 -0.06503,-0.02557c-0.1042,0.45962 -0.24503,1.2134 -0.08811,0.92914c0.2436,-0.44129 0.4485,-0.64381 0.70874,-0.73699zM328.47984,138.93322c0.06399,0.12797 0.11524,0.25973 0.1563,0.39452l0.01817,0.02908l0.10723,-0.05362l0.57826,1.15651c0.09145,0.17371 0.14321,0.37156 0.14321,0.58151c0,0.69036 -0.55964,1.25 -1.25,1.25c-0.45473,0 -0.85274,-0.24281 -1.07146,-0.60585l-0.17441,-0.27905c-1.41757,1.23616 -5.94614,0.3561 -7.7187,0.69585c-0.71878,0.13777 -1.46847,0.84777 -2.12966,0.534c-2.74235,-1.30138 -1.20565,-5.15992 0.93288,-5.9064c2.30165,-0.80341 5.10919,-0.73972 7.71291,-0.3107l-0.01338,-0.16055l1.75394,-0.14616c0.03897,-0.00366 0.07845,-0.00554 0.11837,-0.00554c0.69036,0 1.25,0.55964 1.25,1.25c0,0.5623 -0.37128,1.03788 -0.88206,1.19497l-0.00248,0.00083c0.20409,0.07709 0.37512,0.18909 0.47088,0.38059z" fill="#afa7a0" stroke="none" stroke-width="0.5" stroke-linecap="butt"/><g stroke-linecap="butt"><path d="" fill="#e2ddc9" stroke="none" stroke-width="1"/><path d="" fill="#4d4f68" stroke="none" stroke-width="1"/><path d="" fill="none" stroke="#7593b1" stroke-width="0.5"/></g><g stroke-linecap="butt"><path d="" fill="#e2ddc9" stroke="none" stroke-width="1"/><path d="" fill="#4d4f68" stroke="none" stroke-width="1"/><path d="" fill="none" stroke="#7593b1" stroke-width="0.5"/><path d="" fill="none" stroke="#7593b1" stroke-width="0.5"/></g><g stroke-linecap="butt"><path d="" fill="#e2ddc9" stroke="none" stroke-width="1"/><path d="" fill="none" stroke="#7593b1" stroke-width="0.5"/><path d="" fill="#4d4f68" stroke="none" stroke-width="1"/></g><path d="" fill="#fbf8ea" stroke="none" stroke-width="1" stroke-linecap="butt"/><g stroke-linecap="butt"><path d="" fill="#e0dac5" stroke="none" stroke-width="1"/><path d="" fill="#000000" stroke="none" stroke-width="1"/><path d="" fill="none" stroke="#7593b1" stroke-width="0.5"/></g><path d="" fill="none" stroke="#7593b1" stroke-width="0.5" stroke-linecap="butt"/><path d="" fill="none" stroke="#7593b1" stroke-width="0.5" stroke-linecap="butt"/><g stroke-linecap="butt"><path d="" fill="#4d6e8c" stroke="none" stroke-width="1"/><path d="" fill="#000000" stroke="none" stroke-width="1"/><path d="" fill="none" stroke="#000000" stroke-width="0.5"/></g><g stroke-linecap="butt"><path d="" fill="#fbf8ea" stroke="none" stroke-width="1"/><path d="" fill="none" stroke="#7593b1" stroke-width="0.5"/><path d="" fill="#4d4f68" stroke="none" stroke-width="1"/></g><g stroke-linecap="butt"><path d="" fill="#fbf8ea" stroke="none" stroke-width="1"/><path d="" fill="#4d4f68" stroke="none" stroke-width="1"/><path d="" fill="none" stroke="#7593b1" stroke-width="0.5"/><path d="" fill="none" stroke="#7593b1" stroke-width="0.5"/><path d="" fill="none" stroke="#7593b1" stroke-width="0.5"/><path d="" fill="none" stroke="#7593b1" stroke-width="0.5"/></g><g stroke-linecap="butt"><path d="" fill="#fbf8ea" stroke="none" stroke-width="1"/><path d="" fill="#4d4f68" stroke="none" stroke-width="1"/><path d="" fill="none" stroke="#7593b1" stroke-width="0.5"/><path d="" fill="none" stroke="#7593b1" stroke-width="0.5"/></g><path d="M201.35442,133.13662c4.45073,3.42131 2.14994,6.71624 -1.64396,8.41904c-1.263,0.56687 -2.76744,0.08553 -4.15117,0.1283h-1.1202c0,0 -0.24098,-0.00001 -0.57331,-0.07482c-1.30283,1.25868 -2.67532,2.55482 -2.76353,2.59823c-2.05274,1.01002 -6.04226,0.88925 -8.54948,0.84699c-0.97072,0.86194 -1.33417,2.93625 -2.59576,2.7894c-0.98979,-0.11522 -1.7073,-0.86337 -2.3384,-1.73805c-0.1747,0.03867 -0.35628,0.05905 -0.54262,0.05905c-1.0731,0 -1.98829,-0.67611 -2.34282,-1.62559l-0.88478,-2.21196c-0.38733,-0.23553 -0.7743,-0.47227 -1.17477,-0.66377l-0.22529,-0.54901l-0.17284,0.12963l-1.66515,-2.2202c-0.32311,-0.42123 -0.51515,-0.94829 -0.51515,-1.5202c0,-1.28831 0.97448,-2.34902 2.22655,-2.48522c0.07844,-1.81762 2.02355,-2.20664 2.02355,-2.20664c4.6718,-0.93051 9.19346,-1.16875 13.9327,-1.16875c0.21762,0 6.52777,-0.02219 6.73548,0.06688c0.72457,0.3107 1.58949,0.63696 2.34255,1.06148c1.81784,0.02857 3.67426,0.11604 3.99841,0.36522z" fill="url(#color-1)" stroke="none" stroke-width="0.5" stroke-linecap="butt"/><path d="M265.14714,130.55732c2.69664,0.29044 7.67399,-0.23529 10.0159,0.99086c0.07038,0.03685 0.13985,0.07502 0.20845,0.11443l0.01696,-0.05086l2.45294,0.81764c1.02156,0.31418 1.76412,1.26534 1.76412,2.38994c0,0.70755 -0.29393,1.34643 -0.76635,1.80123c0.20371,0.2619 0.373,0.60152 0.48273,1.04042c0.22244,0.88974 0.03687,1.53468 -0.28728,1.99469c0.03179,0.15919 0.04847,0.32383 0.04847,0.49237c0,1.38071 -1.11929,2.5 -2.5,2.5c-0.1348,0 -0.2671,-0.01067 -0.39612,-0.03121l-2.82524,-0.4036c-0.83856,-0.06669 -1.67712,-0.13337 -2.51568,-0.20006c0,0 -2.48609,-0.19889 -2.29338,-2.68248c-0.23811,-0.1394 -0.48989,-0.33033 -0.699,-0.58747c-1.07853,0.62366 -2.22671,0.03797 -2.51484,-0.13004c-1.60683,-0.45279 -2.82099,-1.44252 -2.06692,-0.03934c0,0 -0.411,2.46598 -2.87698,2.05498c-2.46598,-0.411 -2.05499,-2.87698 -2.05499,-2.87698c0.24802,-0.74977 0.28431,-1.65147 0.46017,-2.45303c-0.73377,-0.43563 -1.22558,-1.236 -1.22558,-2.15124c0,-1.38071 1.11929,-2.5 2.5,-2.5h2.50763v0.04608l0.09976,-0.04408c0.67678,0.05437 1.28803,0.11435 1.85085,0.18445z" fill="url(#color-2)" stroke="none" stroke-width="0.5" stroke-linecap="butt"/><path d="M273.41321,136.12386c1.38071,0 2.5,1.11929 2.5,2.5c0,1.38071 -1.11929,2.5 -2.5,2.5c-0.1067,0 -0.21183,-0.00669 -0.31501,-0.01966c0.00952,0.10189 0.0145,0.20853 0.0145,0.32016c0,1.48852 -0.88627,2.09076 -1.60343,2.33443c-0.27831,0.10695 -0.5806,0.16557 -0.89657,0.16557c-0.00619,0 -0.01237,-0.00002 -0.01854,-0.00007c-1.97391,-0.00662 -3.9607,0.1609 -5.89621,0.548l-3.6062,0.01216c-0.0005,0 -0.00075,0.00001 -0.00075,0.00001c0,0 -0.00487,0 -0.01417,-0.00021c-1.76756,-0.02596 -3.58928,0.25618 -5.21845,0.9416l-1.46455,0.12783c-0.17772,0.03297 -0.37191,0.05098 -0.58412,0.05098c-0.86824,0 -1.43494,-0.30154 -1.80483,-0.69517c-0.39363,-0.36989 -0.69517,-0.9366 -0.69517,-1.80483c0,-1.02586 -0.1174,-6.98755 0.44519,-7.58509c2.95277,-3.1362 6.31959,-2.74811 9.89622,-2.75632c2.96181,-0.0068 4.59994,-0.19779 7.5299,1.25462c1.26904,0.62908 3.14867,1.09104 4.01389,2.11539c0.07195,-0.00623 0.14476,-0.0094 0.21832,-0.0094z" fill="url(#color-3)" stroke="none" stroke-width="0.5" stroke-linecap="butt"/><path d="M247.9543,157.08218l1.65058,0.103c1.50862,0.86219 4.06421,0.9114 4.52588,2.58657c0.42777,1.55218 -3.13407,5.03636 -4.35893,6.33327c0,0 -1.48187,1.56904 -3.14975,0.41459c-1.43844,0.00738 -2.15766,-1.43105 -2.15766,-1.43105l0.621,0.24083c-5.99459,-3.3745 -8.90874,-10.35528 -9.94602,-16.96487c0,0 -0.21582,-1.40279 0.73474,-2.25706c-2.36474,0.02133 -4.72732,0.09008 -7.06959,0.19326c0.46451,0.45392 0.75284,1.08736 0.75284,1.78814c0,1.15061 -0.77729,2.11966 -1.83542,2.41071l-4.12559,1.23767l-0.05581,-0.18607c-0.78553,0.41429 -1.59208,0.78288 -2.42787,1.08408l-0.35567,0.1973c0,0 -1.82145,0.91073 -2.99846,-0.55569c-1.33264,2.78963 -3.14046,5.53807 -5.76042,6.7593c-0.39358,0.18346 -0.79978,0.39651 -1.21357,0.59898c-0.1266,0.35712 -0.36551,0.72548 -0.76901,1.08415c-1.86853,1.66091 -3.52943,-0.20762 -3.52943,-0.20762c-0.42355,-0.49033 -0.93173,-0.92379 -1.35859,-1.41189c-0.48155,0.04712 -1.04042,-0.06972 -1.65453,-0.49959c-2.04808,-1.43365 -0.61442,-3.48174 -0.61442,-3.48174l0.42615,-0.54497c-0.41969,-1.85537 -0.40485,-3.74529 0.06922,-4.99331c0.59061,-1.5548 2.04894,-3.16536 3.74722,-4.64945c-0.24097,-0.0853 -0.48095,-0.17436 -0.71985,-0.26732c0,0 -1.04924,-0.41969 -1.45468,-1.40018c-0.56706,-0.3224 -0.99569,-0.86018 -1.17461,-1.50206c-1.19824,-0.34807 -1.63503,-1.65843 -1.63503,-1.65843l-0.64854,-2.25376c-0.03951,-2.01875 0.36732,-4.08881 1.16227,-5.94487c0,0 0.36395,-0.80067 1.135,-1.23634c0.58678,-1.3171 2.19772,-1.37677 2.19772,-1.37677c1.70651,-0.06123 3.401,-0.26989 5.09333,-0.49421l-0.0532,-0.38568c-0.01923,-0.12494 -0.02919,-0.25294 -0.02919,-0.38327c0,-1.38071 1.11929,-2.5 2.5,-2.5c0.47333,0 0.91594,0.13154 1.29326,0.36007c0.15626,-0.03059 0.31775,-0.04662 0.48297,-0.04662c1.30971,0 2.38419,1.00713 2.49124,2.28918c5.23893,-0.11595 10.55597,1.18069 15.76182,1.58304c2.95812,0.22863 5.94609,-0.32284 8.90697,-0.31974c0.51384,0.00054 1.02658,0.01361 1.53847,0.03658c0.41608,-0.39635 0.85513,-0.57802 0.85513,-0.57802c0.18902,-0.0766 0.37806,-0.1532 0.56708,-0.2298c0.0105,-0.06414 0.02313,-0.12969 0.03802,-0.19666c0.54233,-2.44047 2.9828,-1.89814 2.9828,-1.89814c0.28638,0.06364 0.57276,0.12728 0.85914,0.19092c0.31317,-1.08179 1.42282,-1.59039 1.42282,-1.59039c0.83587,-0.38311 1.67176,-0.76622 2.50763,-1.14933l2.57677,0.03018c0,0 0.76465,0.15293 1.35443,0.71502l1.74748,0.13632c0,0 2.43598,0.56215 1.87383,2.99813c-0.08153,0.35331 -0.20248,0.64355 -0.3497,0.88158c0.03814,0.30322 0.01966,0.64927 -0.07886,1.04333c-0.04802,0.19208 -0.10745,0.36516 -0.17618,0.52102c1.85892,1.55317 0.32991,3.46444 0.32991,3.46444l-1.31762,1.50494c-2.3855,1.68498 -4.21193,2.47483 -6.57207,2.67369c0.39909,2.39323 0.93601,4.35467 2.42101,6.73571c0,0 0.43605,0.70438 0.40064,1.5532c-1.44512,0.32835 -2.94369,0.92671 -4.17888,1.63153c-0.3079,-0.28609 -0.4731,-0.55296 -0.4731,-0.55296c-0.14559,-0.23668 -0.28429,-0.47094 -0.41654,-0.70322c-0.67595,0.18567 -1.2916,0.06254 -1.2916,0.06254l-0.75391,-0.16839c-0.70652,-0.05666 -1.41581,-0.10677 -2.12736,-0.15072c-0.0182,0.20588 -0.04937,0.33498 -0.04937,0.33498c-1.04719,4.1593 -0.58128,6.85176 1.40923,10.4404c0.26396,-0.04849 0.44443,-0.04848 0.44443,-0.04848zM227.06632,148.30156l0.84744,-0.98867c0.19029,-0.21933 0.30546,-0.50561 0.30546,-0.81878c0,-0.53445 -0.33541,-0.99056 -0.80722,-1.16931c-0.48445,-0.77304 -1.42757,-0.45866 -1.42757,-0.45866l-0.36459,0.2368c-0.99433,-0.09513 -2.84116,-0.42864 -3.71036,0.27172c-0.87063,0.7015 -1.26573,1.76501 -1.20992,2.78348c-0.42969,0.19776 -0.72799,0.6321 -0.72799,1.13611c0,0.69036 0.55964,1.25 1.25,1.25c0.2082,0 0.40452,-0.05091 0.57718,-0.14094c0.33177,0.2685 0.73703,0.47037 1.21402,0.57684c0.86626,0.19337 2.63457,-0.97152 3.2192,-1.53889c0.34035,-0.3303 0.60836,-0.72097 0.83434,-1.13968z" fill="url(#color-4)" stroke="none" stroke-width="0.5" stroke-linecap="butt"/><path d="" fill="#8c796a" stroke="none" stroke-width="0.5" stroke-linecap="butt"/><path d="M303.83218,133.40828c0.06173,0.58644 -0.02943,1.04911 -0.20477,1.41378c0.52625,0.54137 1.03085,1.47039 0.37252,2.78705c-1.11804,2.23607 -3.3541,1.11803 -3.3541,1.11803l-0.21416,-0.18993c-1.31106,1.37925 -2.69295,0.68151 -3.24944,0.29677c-0.50044,0.01926 -1.06547,-0.13607 -1.63563,-0.64436c-0.57615,-0.10866 -1.14249,-0.16377 -1.70823,-0.19012c-0.45064,0.12034 -0.90345,0.35609 -1.34664,0.5102c-0.92872,0.97123 -2.38668,0.62132 -2.38668,0.62132l-0.24656,-0.05918c-0.45833,0.52668 -1.1336,0.8596 -1.88661,0.8596c-1.38071,0 -2.5,-1.11929 -2.5,-2.5c0,-0.02042 0.00025,-0.04079 0.00074,-0.0611c-1.73284,0.06428 -3.40026,-0.04384 -5.30495,-0.41302c0,0 -2.45145,-0.4903 -1.96116,-2.94174c0.49029,-2.45145 2.94174,-1.96116 2.94174,-1.96116c2.52287,0.52409 4.38171,0.39634 6.93149,0.07524l0.65515,0.09106c0.40107,-0.28959 0.77064,-0.40838 0.77064,-0.40838c1.9457,-0.61506 3.95807,-1.07939 5.99061,-1.26062l1.86018,1.49219c0.3233,-0.14695 0.64659,-0.2939 0.96989,-0.44086l2.758,-0.41932c0,0 2.48627,-0.26171 2.74797,2.22455z" fill="#8c796a" stroke="none" stroke-width="0.5" stroke-linecap="butt"/><path d="M298.30847,130.0743c2.44637,0.51503 1.93135,2.9614 1.93135,2.9614l-0.07299,0.14936c0.02772,0.00466 0.0557,0.00971 0.08394,0.01514c2.45502,0.47212 1.9829,2.92713 1.9829,2.92713c-0.34033,1.75224 -0.77172,3.49268 -1.34069,5.18463l-0.18827,2.25916c-0.09422,1.29477 -1.17452,2.31596 -2.49333,2.31596c-1.333,0 -2.42233,-1.04327 -2.49602,-2.35784l-0.20776,-3.22022l0.02132,-0.00137c-0.00849,-0.02632 -0.0169,-0.05267 -0.02521,-0.07906c-0.51747,-1.64366 -0.1449,-3.46659 -0.55917,-5.13925l0.40253,-3.08366c0,0 0.51503,-2.44638 2.9614,-1.93135z" fill="#433a33" stroke="none" stroke-width="0.5" stroke-linecap="butt"/><path d="M225.86122,130.87153c0.0008,1.25 -1.2492,1.2508 -1.2492,1.2508l-0.82134,-0.00159c-0.92242,0.0542 -1.77719,0.14948 -2.61976,0.26325c-1.04555,0.14118 -2.07232,0.31085 -3.18623,0.46585c-3.55156,0.49418 -7.10247,-0.34932 -10.64922,0.42374c0,0 -1.22225,0.26191 -1.48416,-0.96034c-0.26191,-1.22225 0.96034,-1.48416 0.96034,-1.48416c3.63993,-0.76818 7.24913,0.07179 10.86758,-0.46051c2.04574,-0.30095 3.86371,-0.6198 5.96465,-0.74352l0.96655,-0.00272c0,0 1.25,-0.0008 1.2508,1.2492z" fill="url(#color-5)" stroke="none" stroke-width="0.5" stroke-linecap="butt"/><path d="M205.08667,135.88309c0,-0.69036 0.55964,-1.25 1.25,-1.25c0.69036,0 1.25,0.55964 1.25,1.25c0,0.69036 -0.55964,1.25 -1.25,1.25c-0.69036,0 -1.25,-0.55964 -1.25,-1.25z" fill="url(#color-6)" stroke="none" stroke-width="0.5" stroke-linecap="butt"/><path d="M225.77576,130.14578c0.72655,1.01717 -0.29062,1.74372 -0.29062,1.74372l-0.88462,0.61381c-0.79921,0.97553 -2.08607,1.55612 -3.32081,1.81264c0,0 -1.23299,0.2055 -1.43849,-1.02749c-0.2055,-1.23299 1.02749,-1.43849 1.02749,-1.43849c0.75845,-0.07436 1.56636,-0.49787 1.98471,-1.13486l1.17862,-0.85994c0,0 1.01717,-0.72655 1.74372,0.29062z" fill="url(#color-7)" stroke="none" stroke-width="0.5" stroke-linecap="butt"/><path d="M218.19769,135.14621c0,1.25 -1.25,1.25 -1.25,1.25h-0.14738c-1.84463,0 -3.29361,0.08114 -5.0576,0.67273c0,0 -1.18585,0.39528 -1.58114,-0.79057c-0.39528,-1.18585 0.79057,-1.58114 0.79057,-1.58114c2.01344,-0.66749 3.74659,-0.80102 5.84817,-0.80102h0.14738c0,0 1.25,0 1.25,1.25z" fill="url(#color-8)" stroke="none" stroke-width="0.5" stroke-linecap="butt"/><path d="M318.26872,141.49009c-2.49136,0.20762 -2.69898,-2.28375 -2.69898,-2.28375c-0.10424,-1.31859 -0.09278,-2.60762 -0.02623,-3.89088c1.45128,0.30951 3.39677,0.87265 5.35342,1.32063c-1.5537,0.68869 -2.29302,2.70734 -1.96066,4.72854c-0.19761,0.06136 -0.41917,0.10476 -0.66755,0.12546z" fill="#8c796a" stroke="none" stroke-width="0.5" stroke-linecap="butt"/><path d="M321.16436,144.05586c-0.81153,0.40577 -1.4758,0.36974 -1.9928,0.15915c-3.08834,0.32079 -5.93521,0.3212 -8.89206,-0.31134c-0.73426,0.62509 -1.72648,0.62508 -1.72648,0.62508l-2.35012,-0.00487c-7.86076,-0.49177 -16.80495,-0.79099 -24.50102,0.88974c0,0 -2.4445,0.52382 -2.96833,-1.92068c-0.52382,-2.4445 1.92068,-2.96833 1.92068,-2.96833c8.18061,-1.72431 17.51858,-1.51186 25.86055,-0.99098l0.01371,-0.00003c0.94686,-1.68345 2.91958,-1.02588 2.91958,-1.02588c3.25889,1.11133 6.21131,1.0839 9.54218,0.69994c-0.20767,0.9124 -0.17524,1.945 0.12861,2.93618c0.33147,1.08127 1.55915,1.374 2.70925,1.47066c-0.17872,0.1592 -0.39745,0.30822 -0.66375,0.44137z" fill="#afa7a0" stroke="none" stroke-width="0.5" stroke-linecap="butt"/><path d="M281.55861,145.76729c-2.48471,0.27608 -2.76078,-2.20863 -2.76078,-2.20863l-0.0687,-0.7361l-0.20317,0.01966c-0.08981,0.00977 -0.18106,0.01479 -0.27347,0.01479c-1.38071,0 -2.5,-1.11929 -2.5,-2.5c0,-1.14721 0.77271,-2.11393 1.82606,-2.40811l1.39113,-0.42339c0.37414,-0.90916 1.26875,-1.54923 2.31286,-1.54923c0.53564,0 1.03193,0.16845 1.43879,0.45527c0.37393,-0.2228 0.81093,-0.35078 1.27781,-0.35078c0.15625,0 0.30915,0.01433 0.45745,0.04176l0.91407,0.15234c4.78957,-0.88671 9.78605,-0.60271 14.71661,-0.40099c6.69248,0.27381 13.45313,0.54646 20.16523,0.61074c0.21425,0.05156 0.42927,0.10221 0.64442,0.15147c-1.57945,0.70011 -2.3173,2.7746 -1.94326,4.829c-6.35321,-0.08832 -12.73917,-0.33757 -19.07039,-0.59538c-1.30523,-0.05315 -2.6356,-0.12521 -3.97558,-0.17914c-0.00377,0.0932 -0.01173,0.18982 -0.02425,0.28997c-0.31009,2.48069 -2.79078,2.1706 -2.79078,2.1706l-0.44036,-0.0551c-0.19459,0.04861 -0.39821,0.07441 -0.60786,0.07441c-0.10967,0 -0.21769,-0.00706 -0.32362,-0.02076l-2.36847,-0.27328c-0.85824,-0.00593 -1.70746,-0.04137 -2.48455,-0.31276c-0.74295,-0.07298 -1.48816,-0.12724 -2.23344,-0.17424c-0.30248,0.23833 -0.60206,0.38123 -0.88977,0.45553l0.02265,0.16154c0,0 0.27608,2.48471 -2.20863,2.76079z" fill="#afa7a0" stroke="none" stroke-width="0.5" stroke-linecap="butt"/><path d="M296.64941,146.83506c0,-0.24602 0.02421,-0.46783 0.06786,-0.66781c-0.67593,-4.27939 -1.11501,-8.56409 -0.7919,-12.89795c0,0 0.19175,-2.49264 2.68438,-2.30089c2.49264,0.19174 2.30089,2.68437 2.30089,2.68437c-0.34103,4.28235 0.20788,8.54314 0.91371,12.77129l-2.67496,2.911c0,0 -2.5,0 -2.5,-2.5z" fill="#433a33" stroke="none" stroke-width="0.5" stroke-linecap="butt"/><path d="M169.14462,135.99998c-0.55901,-1.11803 0.55902,-1.67705 0.55902,-1.67705l0.12722,-0.04651c2.41846,-1.72747 3.55203,-2.59084 6.62156,-2.59084c3.44791,0.01279 6.45898,-1.28357 9.81188,-1.4722c5.33946,-0.3004 10.28512,0.8827 15.53668,0.8827c0,0 0.17705,0 0.39788,0.06663c0.02081,-0.05643 0.04216,-0.11262 0.06404,-0.16858c0.10225,-0.26142 1.30571,-2.92767 1.37098,-2.98126c1.10899,-0.91042 3.67166,-0.91593 5.37309,-0.90102c1.64067,-6.18119 8.29111,-3.92914 11.05409,-0.06096c0,0 0.72654,1.01717 -0.29062,1.74372c-1.01717,0.72655 -1.74372,-0.29062 -1.74372,-0.29062c-1.36852,-1.91592 -5.88523,-4.96115 -6.60512,-0.75014l0.29376,-0.1774c0,0 0.64312,1.07186 -0.42874,1.71498c-0.35491,0.21294 -0.6628,0.23786 -0.91592,0.17594c-0.30792,0.14957 -0.61145,0.14957 -0.61145,0.14957c-0.80349,-0.00122 -3.90076,-0.22848 -4.48567,0.28308c-0.53803,0.47056 -0.42079,1.36829 -0.69227,2.02951c-1.18128,2.87714 -0.60005,6.85084 -0.94848,9.9866l0.00764,1.04096c0,0 0,1.25 -1.25,1.25l0.00001,0.00002c-1.25,0 -1.25,-1.25 -1.25,-1.25l0.00764,-1.31704c0.28445,-2.55999 0.06925,-5.42562 0.45505,-8.04453c-5.15081,-0.02808 -9.97725,-1.13828 -15.21434,-0.88527c-3.35154,0.16192 -6.47412,1.46428 -9.93642,1.47531c-2.5735,0 -3.0554,0.61584 -5.16846,2.12517l-0.46228,0.24824c0,0 -1.11804,0.55902 -1.67706,-0.55902z" fill="#1b1815" stroke="none" stroke-width="0.5" stroke-linecap="butt"/><path d="M226.24689,150.05323l-0.33731,0.83166c-0.38052,0.75911 -1.22676,2.64933 -1.96137,2.95188c-1.49642,0.6163 -3.90381,-1.92525 -5.1864,-0.74205c-2.54503,2.34781 -4.54888,5.37591 -7.59781,7.27766c-2.4448,1.52493 -3.7615,1.35117 -6.29215,0.45846c-0.04249,-0.01498 -0.07547,-0.01775 -0.10061,-0.01016c-0.26052,-0.17114 -0.5772,-0.31948 -0.97315,-0.43936c-0.64496,-0.19528 -1.51548,-0.83396 -2.4074,-1.2465c-0.06842,-2.89753 -0.1171,-5.8428 0.68579,-8.57536c0.36797,-1.25236 0.68243,-2.87344 1.25923,-4.03487c0.16947,-0.34123 0.42407,-0.6391 0.7051,-0.90216c-0.4698,0.0914 -0.72051,-0.1556 -1.60348,-0.44785c0,0 -1.18585,-0.39528 -0.79057,-1.58114c0.39528,-1.18585 1.58114,-0.79057 1.58114,-0.79057c0.63014,0.21173 3.57284,1.18899 3.62782,1.28586c0.70989,1.251 -1.65454,4.63544 -2.10826,5.91848c-0.95195,2.69191 -0.95101,5.63902 -0.87812,8.53913c0.14464,-0.06427 0.29858,-0.11699 0.46106,-0.15616c1.85168,-0.44643 2.50323,1.34425 4.35342,0.51078c2.25293,-1.01489 4.83272,-3.38095 6.50019,-5.15563c0.25961,-0.2763 1.86558,-2.4963 2.07874,-2.65131c1.19035,-0.86557 2.50565,-0.80972 3.8643,-0.50415c0.67648,0.15215 1.24254,1.26604 1.85508,0.94111c0.20878,-0.11075 0.31866,-0.30648 0.38918,-0.5377c0.92668,-0.09856 2.34828,-1.05478 2.86067,-1.55204c0.03209,-0.03115 0.06354,-0.06282 0.09437,-0.09501c0.0522,0.37785 -0.07946,0.707 -0.07946,0.707z" fill="#1b1815" stroke="none" stroke-width="0.5" stroke-linecap="butt"/><path d="M202.77164,139.59796c0.55901,1.11803 -0.55902,1.67705 -0.55902,1.67705l-1.44327,0.57409c-4.13825,-0.02093 -7.83079,1.23082 -11.70606,2.44663c-1.30559,0.40961 -2.79281,0.2823 -3.98499,1.04454c-1.48329,0.94837 -2.60233,2.20074 -4.16428,3.11782c0,0 -0.38437,0.22421 -0.82821,0.17576c-0.57984,0.1114 -1.06688,-0.31476 -1.06688,-0.31476c-1.34328,-1.1754 -3.52032,-1.8631 -4.67451,-3.05188c-2.14079,-2.20496 -4.4292,-5.36374 -5.84922,-8.22901l-0.33703,-1.47344c0,0 -0.27116,-1.22023 0.94907,-1.4914c1.22024,-0.27116 1.4914,0.94907 1.4914,0.94907l0.25248,1.17932c1.35413,2.6735 3.54344,5.19687 5.3513,7.39278c0.46855,0.56912 1.43386,0.41075 2.06491,0.7918c0.16493,0.09958 1.2257,1.02314 1.88527,1.60121c1.28277,-0.85808 2.279,-1.95404 3.59049,-2.76084c1.47835,-0.90945 2.98395,-0.81118 4.56278,-1.31347c4.11719,-1.30984 8.07571,-2.54572 12.46349,-2.56413l0.32523,-0.31016c0,0 1.11804,-0.55902 1.67705,0.55902z" fill="#1b1815" stroke="none" stroke-width="0.5" stroke-linecap="butt"/><path d="M233.07823,128.5059c0.30317,1.21268 -0.90951,1.51585 -0.90951,1.51585l-0.89267,0.1847c-6.88688,-0.00845 -14.42057,-1.69382 -21.24564,-0.17714c0,0 -1.22023,0.27117 -1.49139,-0.94907c-0.27116,-1.22024 0.94907,-1.4914 0.94907,-1.4914c7.03803,-1.564 14.70221,0.12553 21.78796,0.11761l0.28634,-0.11006c0,0 1.21267,-0.30317 1.51584,0.90951z" fill="#1b1815" stroke="none" stroke-width="0.5" stroke-linecap="butt"/><path d="M244.38048,128.96578c0.13804,1.24236 -1.10431,1.3804 -1.10431,1.3804l-1.50766,0.15427c-3.29456,-0.58293 -6.6476,-0.08457 -9.96895,-0.44903c0,0 -1.24236,-0.13804 -1.10432,-1.38039c0.13804,-1.24236 1.38039,-1.10431 1.38039,-1.10431c3.25517,0.36667 6.55221,-0.16866 9.77935,0.43523l1.1451,-0.14048c0,0 1.24236,-0.13804 1.38039,1.10431z" fill="#1b1815" stroke="none" stroke-width="0.5" stroke-linecap="butt"/><path d="M242.84337,129.39857l29.76982,0.29476" fill="none" stroke="#000000" stroke-width="2.5" stroke-linecap="round"/><path d="M278.13127,138.76576c0.94907,0.81349 0.13558,1.76256 0.13558,1.76256l-1.311,1.35378c-0.5871,0.03224 -1.17443,-0.0509 -1.74952,-0.21175c-0.00339,0.00294 -0.00678,0.00587 -0.01017,0.0088l-0.00367,-0.01269c-0.07781,-0.02194 -0.1554,-0.0453 -0.23272,-0.06998v0.10523h-0.04368l-0.05409,0.27048l-1.45105,-0.29021c-0.29147,-0.05235 -0.54787,-0.20574 -0.73165,-0.42262c-1.20485,0.00036 -2.4097,0.00023 -3.61455,0.00023c0,0 -1.25,0 -1.25,-1.25c0,-1.25 1.25,-1.25 1.25,-1.25c1.98538,0 3.97075,-0.00054 5.95614,0.00189l1.25655,-0.13961c0.05113,-0.00637 0.10323,-0.00965 0.15609,-0.00965c0.08648,0 0.17089,0.00878 0.25242,0.0255c0.32284,-0.20387 0.85813,-0.37525 1.44531,0.12805z" fill="#a95f26" stroke="none" stroke-width="0.5" stroke-linecap="butt"/><path d="M250.75064,158.34227c-0.2055,1.23299 -1.43849,1.0275 -1.43849,1.0275l-1.67875,-0.63037c-1.00833,-1.36613 -2.45269,-3.25467 -3.21292,-4.75962c-1.18598,-2.34776 -1.15751,-5.22364 -2.23486,-7.56749c0,0 -0.50768,-1.14226 0.63459,-1.64993c1.14227,-0.50768 1.64994,0.63459 1.64994,0.63459c1.82611,4.21726 2.27637,8.0705 5.16325,11.84245l0.08975,-0.33562c0,0 1.23299,0.2055 1.02749,1.43849z" fill="#cdc3bb" stroke="none" stroke-width="0.5" stroke-linecap="butt"/><path d="M259.70912,128.07218c0,-0.12343 0.0179,-0.24268 0.05122,-0.3553c-0.12567,-0.19496 -0.1986,-0.42713 -0.1986,-0.67633c0,-0.2949 0.10213,-0.56595 0.27294,-0.77971c-0.08043,-0.16514 -0.12556,-0.35063 -0.12556,-0.54666c0,-0.20902 0.05131,-0.40607 0.14202,-0.57922c-0.11619,-0.03539 -0.18791,-0.07125 -0.18791,-0.07125l-0.09492,-0.06813c-1.98863,-0.61781 -3.18183,-0.05343 -5.18689,0.05154c-2.00331,0.10488 -3.91852,0.04678 -5.90509,0.18924c-0.03545,0.16819 -0.10471,0.32392 -0.20034,0.45974c0.10394,0.31258 0.07219,0.59824 0.07219,0.59824c-0.04913,0.44213 -0.09825,0.88425 -0.14738,1.32637l-0.50584,0.89322c0,0 -0.88388,0.88388 -1.76776,0c-0.617,-0.617 -0.3726,-1.23399 -0.16876,-1.55034c0.03501,-0.31511 0.07003,-0.63022 0.10504,-0.94533c0,0 0.03404,-0.30642 0.22049,-0.59798c-0.0522,-0.13769 -0.08076,-0.287 -0.08076,-0.44298c0,-0.1502 0.02649,-0.29422 0.07506,-0.42763c-0.02812,-0.08541 -0.04972,-0.17997 -0.06332,-0.28462c-0.00267,-0.01936 -0.00489,-0.03887 -0.00666,-0.0585c-0.0707,-0.72414 0.33275,-1.06635 0.67224,-1.22489c0.1375,-0.07099 0.28987,-0.11723 0.4512,-0.13278c4.04038,-0.44409 9.22884,-1.39281 13.15495,-0.24786l0.49458,0.22662c0,0 1.11804,0.55901 0.55902,1.67705c-0.0027,0.0054 -0.00542,0.01077 -0.00815,0.01609c0.50817,0.15867 0.87698,0.63296 0.87698,1.1934c0,0.2949 -0.10212,0.56595 -0.27293,0.77971c0.08043,0.16514 0.12555,0.35063 0.12555,0.54666c0,0.12343 -0.01789,0.24268 -0.05122,0.3553c0.12567,0.19496 0.19859,0.42713 0.19859,0.67633c0,0.69036 -0.55964,1.25 -1.25,1.25c-0.69036,0 -1.25,-0.55964 -1.25,-1.25z" fill="#000000" stroke="none" stroke-width="0.5" stroke-linecap="butt"/><path d="M330.21988,135.58834c0,1.82663 1.221,6.66116 -0.26387,8.00083c-0.59701,0.53863 -1.59299,0.22069 -2.39076,0.32127c-1.73748,0.21905 -3.6138,0.38835 -5.45417,0.48876c-0.35499,0.25003 -0.78253,0.25003 -0.78253,0.25003h-0.44213c-2.9146,0 -5.87319,0.88142 -8.76263,0.73505c-3.05597,-0.15481 -6.11872,-0.29293 -9.21717,-0.29293c0,0 -0.04086,0 -0.10782,-0.00738c-0.09965,0.97151 -0.22118,2.57243 -0.92419,3.17828c-2.42498,2.08985 -5.29413,-0.56693 -6.30003,-2.58684c0,0 -0.15111,-0.33999 -0.10296,-0.73143h-0.52328c-3.14433,0 -6.62745,-0.03613 -9.69263,0.42888c-2.06182,0.31279 -3.60448,1.32852 -5.78178,1.33963c0,0 -0.65722,0 -1.01855,-0.47655c-0.91386,-0.20115 -0.91386,-1.21558 -0.91386,-1.21558v-0.6904c-0.13282,0.02453 -0.22375,0.02452 -0.22375,0.02452c-0.44212,0 -1.47376,0 -1.91588,0c0,0 -0.62455,0 -0.99072,-0.44146c-3.14274,0.34392 -6.43291,1.11573 -9.56956,1.60467c-2.38515,0.37179 -4.6632,0.0553 -6.97233,0.45479c-1.7414,-0.0757 -3.94365,0.5447 -5.78327,1.43618c-1.53865,-0.32852 -2.88954,-0.57603 -4.44044,-0.66263c0.72076,4.30506 0.73972,9.74426 5.32725,11.72223c0,0 0.01073,0.00477 0.02964,0.01442c0.21671,0.01791 0.45548,0.10697 0.70505,0.31495c0.96027,0.80023 0.16004,1.7605 0.16004,1.7605l-0.52674,0.52293c-0.89444,2.32279 -2.81424,3.8276 -3.88414,6.01513c0,0 -0.04647,0.09294 -0.1394,0.21182c0.02521,0.24442 -0.03379,0.52857 -0.25621,0.83997c-0.72655,1.01717 -1.74372,0.29062 -1.74372,0.29062c-4.1284,-2.94886 -9.80056,-7.7679 -11.36786,-12.86246c-0.89419,-2.90661 -0.60252,-5.96583 -0.93798,-8.94397l-0.0005,-0.06705c-1.6943,0 -3.72958,0 -5.47714,0c-0.14601,4.01315 -1.67284,5.12498 -5.559,6.42037c0,0 -1.18586,0.39529 -1.58114,-0.79057c-0.21547,-0.6464 0.03887,-1.05791 0.31485,-1.29853c0.09792,0.03232 0.19932,0.06035 0.30419,0.08376c0.86626,0.19337 2.63457,-0.97152 3.2192,-1.53889c0.34035,-0.3303 0.60836,-0.72097 0.83434,-1.13968l0.84744,-0.98867c0.19029,-0.21933 0.30546,-0.50561 0.30546,-0.81878c0,-0.53445 -0.33541,-0.99056 -0.80722,-1.16931c-0.09637,-0.15378 -0.21089,-0.26453 -0.33254,-0.34328c0.05517,-0.25305 0.17261,-0.43623 0.31372,-0.56882c0.18494,-0.19681 0.4683,-0.34759 0.90242,-0.34759c2.21063,0 4.42126,0 6.63189,0h0.88425c0,0 0.55685,0 0.92722,0.37166c0.76491,0.27212 0.76491,1.17309 0.76491,1.17309l-0.00764,0.74622c0.30649,2.79309 0.01327,5.72402 0.83052,8.44632c1.21662,4.05263 5.63732,8.00737 9.17335,10.67049c1.08119,-1.81252 2.74455,-3.22769 3.48397,-5.22608c-4.87515,-2.88324 -4.91219,-8.69251 -5.93439,-13.80229l-0.02428,-0.98202c0,0 0,-1.25 1.25,-1.25c0.03209,0 0.06337,0.00082 0.09383,0.00243c0.03408,-0.00243 0.05354,-0.00243 0.05354,-0.00243c2.45809,0 4.40654,0.35727 6.76829,0.89171l0.59287,-0.00371c0.04145,-0.66571 0.07141,-1.22825 0.03764,-1.56486c-0.18249,-1.81891 -1.44134,-4.27413 -1.18564,-6.07689c0.476,-3.35603 4.62444,-3.4518 7.50689,-2.57315c-0.11944,-1.08534 -0.13895,-2.1263 -0.13895,-3.27638v-0.88425c0,0 0,-1.25 1.25,-1.25c1.25,0 1.25,1.25 1.25,1.25v0.88425c0,1.4271 0.01345,2.64038 0.27459,4.05028c0,0 0.01515,0.08334 0.01587,0.21057c2.43077,0.10885 6.17671,-0.40627 9.21483,-0.07328c0.35924,-0.16567 0.73065,-0.1244 0.73065,-0.1244c1.50597,0.16963 2.91872,0.1413 4.40701,0.46425l0.51853,0.1035c0.01004,-0.55724 0.01833,-1.11434 0.02362,-1.6713c0.00759,-0.80137 -0.30908,-3.37264 -1.0051,-3.79815c-0.47668,-0.29143 -2.62922,0.15018 -3.22143,0.29027c0,0 -1.22023,0.27116 -1.4914,-0.94907c-0.27116,-1.22024 0.94907,-1.4914 0.94907,-1.4914c1.14577,-0.24244 3.97935,-0.69142 5.03158,-0.00448c0.44973,0.2936 0.98465,1.28753 1.40071,2.24146c0.33837,-0.20349 0.71105,-0.20349 0.71105,-0.20349c4.80603,0 9.44507,-0.41603 14.24989,-0.03334c0.00208,-0.00973 0.00426,-0.01951 0.00653,-0.02936c0.28107,-1.21799 1.49907,-0.93691 1.49907,-0.93691c0.94121,0.21721 1.88437,0.43292 2.80845,0.71424l0.77272,-0.4669c0,0 1.11804,-0.55901 1.67705,0.55902c0.02229,0.04458 0.04191,0.08826 0.05904,0.13106c0.18054,-0.06505 0.31967,-0.07897 0.31967,-0.07897c2.67467,-0.032 3.43265,0.7202 3.56904,3.21419c2.6796,0.24057 5.3537,0.39203 8.03999,0.44391c0.25779,0.22082 0.59887,0.42524 0.95528,0.59958c0.01522,-0.18611 0.05794,-0.31428 0.05794,-0.31428c0.57714,-1.73057 1.00937,-4.03811 1.83632,-5.61662c0.86168,-1.64481 2.08417,-2.39445 2.94751,-4.12651l0.21088,-0.81601c0,0 0.20238,-0.70832 0.84017,-0.88208c-0.00266,-0.03329 -0.00402,-0.06694 -0.00402,-0.1009c0,-0.69035 0.55964,-1.25 1.25,-1.25c0.30838,0 0.59068,0.11167 0.80866,0.29678c0.65695,0.03719 1.17822,0.5817 1.17822,1.24797c0,0.15046 -0.02658,0.29472 -0.07531,0.42832c0.41155,0.30669 0.50043,0.83994 0.50043,0.83994l0.16438,1.08975c0,2.81783 -0.09856,5.61959 -0.13448,8.43329c1.39571,0.02442 2.7921,0.04348 4.18999,0.04348h0.44212c0,0 0.95718,0 1.19635,0.83759zM318.80098,142.00185c2.37842,0.01433 4.88657,-0.30435 7.29964,-0.44021c0.72712,-0.04094 1.52356,0.49366 2.17788,0.1739c0.57349,-0.28027 -0.19108,-1.2627 -0.25778,-1.89752c-0.11969,-1.13913 -0.23579,-2.18502 -0.281,-3.29444c-1.43543,-0.00047 -2.86934,-0.02088 -4.3026,-0.04636c-0.01769,0.0362 -0.03745,0.07246 -0.05953,0.10828c-0.14276,-0.0468 -0.2826,-0.08567 -0.41946,-0.11696c-0.5079,-0.00937 -1.01573,-0.01916 -1.52352,-0.02872c-0.06446,0.01426 -0.12782,0.03057 -0.19007,0.04887c-0.00884,-0.01765 -0.01717,-0.03531 -0.02504,-0.05291c-1.59605,-0.02982 -3.19183,-0.05642 -4.78853,-0.0593c-0.16688,0.14729 -0.40305,0.25901 -0.73688,0.28936c-0.08418,0.00765 -0.16318,0.00909 -0.23733,0.00513h-0.31797c-3.49309,0 -6.96008,-0.1681 -10.43533,-0.48284c-0.14308,0.53276 -0.6294,0.92497 -1.20732,0.92497c-0.39637,0 -0.74965,-0.18449 -0.97866,-0.47228c-0.18775,0.11272 -0.40754,0.17753 -0.64247,0.17753c-0.69036,0 -1.25,-0.55964 -1.25,-1.25c0,-0.69036 0.55964,-1.25 1.25,-1.25c0.19484,0 0.37928,0.04459 0.54366,0.1241c0.0066,-0.03925 0.01217,-0.06152 0.01217,-0.06152l0.11006,-0.28633c0.05738,-1.16303 0.36092,-1.51751 -0.83625,-1.11421c0,0 -1.0246,0.10246 -1.30691,-0.80855l-1.46488,0.65801c-0.83754,-0.15091 -1.67232,-0.31774 -2.50426,-0.49755c-0.25588,0.80167 -1.18548,0.80166 -1.18548,0.80166l-0.70267,-0.00513c-4.88212,-0.44785 -9.55135,0.0017 -14.42138,0.00511c0.06408,0.33149 0.11401,0.67317 0.15205,1.02293c0.36221,-0.28064 0.82397,-0.28065 0.82397,-0.28065c4.25887,0.01356 8.83562,0.02687 13.09341,0.44833l0.90725,-0.0062c0,0 1.25,0 1.25,1.25c0,1.25 -1.25,1.25 -1.25,1.25l-1.15601,-0.0062c-4.15909,-0.4205 -8.68754,-0.45135 -12.84465,-0.43592c0,0 -0.3799,0 -0.72083,-0.20943c0.01161,2.52555 -0.3327,5.24516 -0.3327,7.5072v0.4949c1.73975,-0.15506 3.07905,-1.02588 4.85116,-1.28952c3.1938,-0.47515 6.79373,-0.45538 10.05566,-0.45538h0.88425c0,0 1.25,0 1.25,1.25c0,0.08709 -0.00607,0.1681 -0.01736,0.24347c0.54387,0.1601 0.79388,0.72261 0.79388,0.72261c0.82421,2.36513 2.23034,2.28756 2.47877,-0.0725l0.17705,-0.75463c0,0 0.3019,-1.2076 1.50823,-0.91139c0.36884,-0.33019 0.88345,-0.33019 0.88345,-0.33019c3.14514,0 6.24937,0.10559 9.35212,0.29658c1.8229,0.1122 3.7101,-0.23152 5.58886,-0.48719c0.36966,-0.39889 0.95338,-0.39889 0.95338,-0.39889zM274.44666,140.45173l0.00764,-1.04096c0.1388,-1.49386 -1.65018,-0.74178 -2.80591,-0.80583c-3.24755,-0.17997 -6.57963,0.05242 -9.79568,-0.30048c0,0 -0.64306,-0.07145 -0.95247,-0.5742c-0.35802,0.00512 -0.64751,-0.13962 -0.64751,-0.13962c-0.7803,-0.42231 -4.41511,-1.105 -5.12502,-0.6001c-0.43616,0.3102 0.15756,1.05976 0.27519,1.5819c0.33942,1.5065 0.75086,3.15732 0.90374,4.69041c0.00761,0.07629 0.01504,0.25205 0.01987,0.49417c2.72776,-0.68641 5.32958,-0.26138 8.11887,-0.70772c3.19527,-0.5113 6.52077,-1.24681 9.71999,-1.62002l0.58077,-0.12992c-0.29949,-0.36542 -0.29949,-0.84761 -0.29949,-0.84761zM321.23537,125.56682l-0.02214,-0.11526l-0.11521,0.37953c-0.42001,0.83716 -0.59166,1.81416 -1.15809,2.5601c-0.39855,0.52486 -1.46958,0.87234 -1.78942,1.56641c-0.53744,1.16627 -0.90666,2.59421 -1.29068,3.9402c1.41431,0.00617 2.8279,0.02952 4.24166,0.05578c0.03641,-2.79816 0.13388,-5.58491 0.13388,-8.38676zM277.36739,138.72994l-0.56394,-0.11301c0.0554,0.16366 0.10079,0.33609 0.13556,0.51774l0.00765,1.31705c0,0 0,0.58803 -0.40332,0.95746c0.11917,0.10654 0.22449,0.25081 0.30066,0.44529h0.47378c0,0 0.09662,0 0.23614,0.02687c0.01333,-1.04418 0.03577,-2.08801 0.05887,-3.13139c-0.14684,-0.00029 -0.24541,-0.02 -0.24541,-0.02z" fill="#312a2a" stroke="none" stroke-width="0.5" stroke-linecap="butt"/><path d="M274.79588,141.30444l-0.58088,0.13092c-3.19923,0.37321 -6.58174,1.15207 -9.777,1.66337c-2.78929,0.44634 -5.43003,-0.00929 -8.1578,0.67711c-0.00483,-0.24212 -0.01317,-0.42027 -0.02078,-0.49657c-0.15288,-1.53308 -0.56631,-3.20926 -0.90572,-4.71576c-0.11764,-0.52213 -0.70951,-1.27881 -0.27335,-1.58902c0.70991,-0.50491 4.34892,0.16857 5.12922,0.59088c0,0 0.29063,0.14288 0.64865,0.13775c0.30941,0.50275 0.95273,0.5738 0.95273,0.5738c3.21605,0.3529 6.63842,0.13602 9.88598,0.31599c1.15573,0.06405 2.94597,-0.68056 2.80717,0.8133l-0.00745,1.04637c0,0 -0.00026,0.48643 0.29924,0.85185z" data-paper-data="{&quot;noHover&quot;:false,&quot;origItem&quot;:[&quot;Path&quot;,{&quot;applyMatrix&quot;:true,&quot;segments&quot;:[[274.44666,140.45172],[[274.4543,139.41075],[0,0],[0.1388,-1.49386]],[[271.64839,138.60492],[1.15573,0.06405],[-3.24755,-0.17997]],[[261.85271,138.30444],[3.21605,0.3529],[0,0]],[[260.90023,137.73024],[0.30941,0.50275],[-0.35802,0.00512]],[[260.25273,137.59062],[0,0],[-0.7803,-0.42231]],[[255.12771,136.99052],[0.70991,-0.50491],[-0.43616,0.3102]],[[255.4029,138.57242],[-0.11764,-0.52213],[0.33942,1.5065]],[[256.30664,143.26283],[-0.15288,-1.53308],[0.00761,0.07629]],[[256.32651,143.75699],[-0.00483,-0.24212],[2.72776,-0.68641]],[[264.44538,143.04928],[-2.78929,0.44634],[3.19527,-0.5113]],[[274.16538,141.42925],[-3.19923,0.37321],[0,0]],[[274.74615,141.29933],[0,0],[-0.29949,-0.36542]]],&quot;closed&quot;:true}]}" fill="url(#color-9)" stroke="none" stroke-width="0.5" stroke-linecap="butt"/><path d="M239.63842,147.409c0.28456,-0.20649 0.9552,-0.55353 1.62584,0.11711c0.88388,0.88388 0,1.76776 0,1.76776l-0.7601,0.48373c-0.88425,0.1965 -1.76851,0.393 -2.65276,0.5895c0,0 -1.22024,0.27116 -1.4914,-0.94907c-0.27116,-1.22024 0.94907,-1.4914 0.94907,-1.4914c0.77644,-0.17255 1.5529,-0.34508 2.32934,-0.51763z" fill="#312a2a" stroke="none" stroke-width="0.5" stroke-linecap="butt"/><path d="M242.91944,153.41233c0.30317,1.21268 -0.90951,1.51585 -0.90951,1.51585l-0.16613,-0.04814c-0.88846,0.61052 -1.93317,1.01213 -2.98678,1.24018c0,0 -1.22573,0.24515 -1.47088,-0.98058c-0.24515,-1.22573 0.98058,-1.47087 0.98058,-1.47087c0.71719,-0.12678 1.44326,-0.38351 2.02398,-0.82307l1.01288,-0.34288c0,0 1.21268,-0.30318 1.51585,0.9095z" fill="#312a2a" stroke="none" stroke-width="0.5" stroke-linecap="butt"/><path d="M244.94865,156.66339c0.88388,0.88388 0,1.76776 0,1.76776l-0.16147,0.13742c-0.56868,0.7854 -1.23978,1.5029 -1.97218,2.1384c0,0 -0.94907,0.81349 -1.76256,-0.13558c-0.81349,-0.94907 0.13558,-1.76256 0.13558,-1.76256c0.5873,-0.49574 1.12324,-1.06432 1.56483,-1.69335l0.42803,-0.45209c0,0 0.88388,-0.88388 1.76776,0z" fill="#312a2a" stroke="none" stroke-width="0.5" stroke-linecap="butt"/><path d="M247.12916,159.96623c1.11803,0.55901 0.55901,1.67705 0.55901,1.67705l-0.20541,0.39823c-0.48331,0.77258 -0.98724,1.53288 -1.51658,2.27468c0,0 -0.72655,1.01717 -1.74372,0.29062c-1.01717,-0.72655 -0.29062,-1.74372 -0.29062,-1.74372c0.50017,-0.69951 0.97548,-1.41717 1.43093,-2.14659l0.08934,-0.19126c0,0 0.55902,-1.11803 1.67705,-0.55902z" fill="#312a2a" stroke="none" stroke-width="0.5" stroke-linecap="butt"/><path d="M229.25085,144.28348c0,0.83699 -0.56044,1.11353 -0.93079,1.20491c0.12107,0.12813 0.21534,0.28186 0.27383,0.45221c0.1356,0.19989 0.21483,0.44114 0.21483,0.70088c0,0.19603 -0.04512,0.38153 -0.12555,0.54666c0.17081,0.21376 0.27293,0.48481 0.27293,0.77971c0,0.69036 -0.55964,1.25 -1.25,1.25c-0.69036,0 -1.25,-0.55964 -1.25,-1.25c0,-0.19603 0.04513,-0.38152 0.12556,-0.54666c-0.08847,-0.11071 -0.15851,-0.23678 -0.20548,-0.37358c-0.1356,-0.19989 -0.21483,-0.44114 -0.21483,-0.70088c0,-0.3276 0.12602,-0.62577 0.33224,-0.84867c-0.92187,-0.03594 -1.77685,-0.07291 -2.79082,0.02933c-0.62809,0.06332 -1.51196,-0.42193 -1.89205,0.0821c-1.1062,1.46689 -2.55669,3.99031 -2.90042,5.84578c0,0 -0.24514,1.22573 -1.47087,0.98058c-1.22573,-0.24515 -0.98058,-1.47087 -0.98058,-1.47087c0.40702,-1.92774 2.05876,-5.74704 3.5841,-7.12325c1.89596,-1.71061 5.57319,-0.79693 7.81052,-0.80824h0.14738c0,0 1.25,0 1.25,1.25z" fill="#312a2a" stroke="none" stroke-width="0.5" stroke-linecap="butt"/><path d="M203.76029,140.89385c0,-1.25 1.25,-1.25 1.25,-1.25l0.27176,0.0062c4.88789,0.49419 9.45926,-0.30096 14.3184,-0.30096c2.06325,0 4.86339,0 6.92665,0c5.04422,0 9.6742,1.51571 14.65242,1.77006c3.88519,0.1985 7.35797,-0.86555 11.40942,0.02821c0,0 1.22024,0.27116 0.94907,1.4914c-0.27116,1.22024 -1.4914,0.94907 -1.4914,0.94907c-3.93521,-0.88161 -7.18561,0.23366 -10.99164,0.02821c-4.94194,-0.26677 -9.53105,-1.76695 -14.52789,-1.76695c-2.06325,0 -4.12651,0 -6.18976,0h-0.73688c-4.93337,0 -9.5968,0.78053 -14.56716,0.28854l-0.023,0.00621c0,0 -1.25,0 -1.25,-1.25z" fill="#79685c" stroke="none" stroke-width="0.5" stroke-linecap="butt"/><path d="M219.53911,135.30126c-0.15505,-1.24034 1.08531,-1.39539 1.08531,-1.39539l1.33404,-0.15703c0.93883,0.00116 1.87991,0.04054 2.81263,0.14744c2.53486,-0.23872 4.85748,0.15198 7.33202,0.14755c6.23342,-0.01117 12.63248,-0.48033 18.8387,0.76091c0,0 1.22573,0.24515 0.98058,1.47088c-0.24515,1.22573 -1.47088,0.98058 -1.47088,0.98058c-6.02761,-1.20552 -12.24454,-0.70406 -18.29989,-0.71284c-2.52357,-0.00366 -4.82649,-0.37393 -7.40552,-0.1472c-0.92514,-0.09982 -1.85713,-0.14858 -2.78764,-0.14731l-1.02395,0.13772c0,0 -1.24035,0.15504 -1.3954,-1.08531z" fill="#79685c" stroke="none" stroke-width="0.5" stroke-linecap="butt"/><path d="M225.86122,129.98728c0.0008,1.25 -1.2492,1.2508 -1.2492,1.2508l-0.82134,-0.00159c-2.06707,0.12146 -3.79442,0.4492 -5.80599,0.7291c-3.55156,0.49418 -7.10247,-0.34932 -10.64922,0.42374c0,0 -1.22225,0.26191 -1.48416,-0.96034c-0.26191,-1.22225 0.96034,-1.48416 0.96034,-1.48416c3.63993,-0.76818 7.24913,0.07179 10.86758,-0.46051c2.04574,-0.30095 3.86371,-0.6198 5.96465,-0.74352l0.96655,-0.00272c0,0 1.25,-0.0008 1.2508,1.2492z" fill="#c4a895" stroke="none" stroke-width="0.5" stroke-linecap="butt"/></g></g></svg>