<svg version="1.1" xmlns="http://www.w3.org/2000/svg" xmlns:xlink="http://www.w3.org/1999/xlink" width="111.97202" height="110.61961" viewBox="0,0,111.97202,110.61961"><g transform="translate(-191.05374,-126.13464)"><g data-paper-data="{&quot;isPaintingLayer&quot;:true}" fill-rule="nonzero" stroke-miterlimit="10" stroke-dasharray="" stroke-dashoffset="0" style="mix-blend-mode: normal"><g data-paper-data="{&quot;index&quot;:null,&quot;origPos&quot;:null,&quot;origRot&quot;:0}" stroke-linejoin="round"><path d="M291.27539,176.18075c-4.8451,0.1207 -4.1342,-1.7855 -11.9625,-2.1502c-5.3611,-0.2497 -15.1703,2.2049 -15.2112,-5.5082c-0.1681,-8.2974 8.8657,-6.7559 15.9615,-6.9326c3.2257,-0.4162 6.8009,-1.6793 10.3596,-1.5258c10.4895,0.4525 12.4607,5.4774 12.2988,9.199c-0.1932,4.441 -6.601,6.7972 -11.4462,6.9178z" data-paper-data="{&quot;origPos&quot;:null,&quot;index&quot;:null,&quot;origRot&quot;:0}" fill="#ffffff" stroke="#627191" stroke-width="0.25" stroke-linecap="butt"/><path d="M279.10217,173.57957c-5.34781,-0.5288 -15.09554,2.02776 -15.00047,-5.05722c-0.18785,-6.86874 8.86564,-6.75588 15.96146,-6.93256c3.22577,-0.41625 6.86085,-0.78494 10.41954,-0.63142c8.03015,0.48991 11.58481,4.11676 11.42291,7.8383c-0.1932,4.44101 -6.20525,6.27216 -11.05039,6.39279c-4.84515,0.12063 -6.8914,-1.12917 -11.75305,-1.6099z" data-paper-data="{&quot;origPos&quot;:null,&quot;index&quot;:null,&quot;origRot&quot;:0}" fill="#627191" stroke="none" stroke-width="0" stroke-linecap="butt"/><path d="M288.41209,163.95825l-2.9196,8.4828l-1.923,-8.8034l-3.0121,8.5954l-1.9813,-8.6623c0,0 0.8363,2.1438 0.699,4.3088c-0.1418,2.234 -1.1184,4.2033 -1.1184,4.2033l3.1484,-8.4597l1.4941,8.614l3.167,-8.5233l2.1974,8.7669l2.7027,-8.3656c0,0 1.0842,2.3223 0.9647,4.1238c-0.1195,1.8015 -1.2178,4.1713 -1.2178,4.1713z" data-paper-data="{&quot;origPos&quot;:null,&quot;origRot&quot;:0}" fill="none" stroke="#ffffff" stroke-width="1" stroke-linecap="round"/><path d="M296.26603,168.08671c0.05783,-2.05157 0.27573,-5.25689 0.27573,-5.25689c0,0 4.8624,2.51217 4.86054,5.54426c-0.00252,4.1033 -5.15787,5.004 -5.15787,5.004c0,0 -0.03661,-3.22635 0.0216,-5.29137z" data-paper-data="{&quot;origPos&quot;:null,&quot;origRot&quot;:0}" fill="#ffffff" stroke="none" stroke-width="0" stroke-linecap="round"/></g><g data-paper-data="{&quot;origPos&quot;:null,&quot;origRot&quot;:0,&quot;index&quot;:null}" stroke-linejoin="round"><path d="M291.29069,186.43925c4.8451,0.1206 11.253,2.4769 11.4462,6.9179c0.1619,3.7215 -1.8094,8.7465 -12.2989,9.199c-3.5586,0.1535 -7.1338,-1.1096 -10.3596,-1.5259c-7.0958,-0.1767 -16.1295,1.3648 -15.9614,-6.9325c0.0409,-7.7131 9.8501,-5.2585 15.2112,-5.5083c7.8283,-0.3647 7.1174,-2.2708 11.9625,-2.1502z" data-paper-data="{&quot;origPos&quot;:null,&quot;index&quot;:null,&quot;origRot&quot;:0}" fill="#ffffff" stroke="#627191" stroke-width="0.25" stroke-linecap="butt"/><path d="M290.87048,187.4306c4.84515,0.12063 10.8572,1.95178 11.05039,6.39279c0.1619,3.72154 -3.39276,7.34839 -11.4229,7.83831c-3.55869,0.15351 -7.19377,-0.21518 -10.41955,-0.63142c-7.09582,-0.17667 -16.1493,-0.06382 -15.96146,-6.93256c-0.09508,-7.08498 9.65266,-4.52842 15.00047,-5.05722c4.86165,-0.48073 6.9079,-1.73053 11.75304,-1.60989z" data-paper-data="{&quot;origPos&quot;:null,&quot;index&quot;:null,&quot;origRot&quot;:0}" fill="#627191" stroke="none" stroke-width="0" stroke-linecap="butt"/><path d="M290.62849,190.20985c0,0 1.0982,2.3697 1.2177,4.1712c0.1195,1.8015 -0.9647,4.1239 -0.9647,4.1239l-2.7027,-8.3657l-2.1974,8.7669l-3.167,-8.5233l-1.4941,8.614l-3.1483,-8.4596c0,0 0.9766,1.9693 1.1183,4.2033c0.1374,2.165 -0.699,4.3087 -0.699,4.3087l1.9813,-8.6623l3.0121,8.5954l1.9231,-8.8034l2.9195,8.4828z" data-paper-data="{&quot;origPos&quot;:null,&quot;origRot&quot;:0}" fill="none" stroke="#ffffff" stroke-width="1" stroke-linecap="round"/><path d="M296.25971,189.24199c0,0 5.15535,0.9007 5.15787,5.004c0.00187,3.03209 -4.86053,5.54426 -4.86053,5.54426c0,0 -0.2179,-3.20532 -0.27573,-5.25689c-0.05821,-2.06502 -0.02161,-5.29137 -0.02161,-5.29137z" data-paper-data="{&quot;origPos&quot;:null,&quot;origRot&quot;:0}" fill="#ffffff" stroke="none" stroke-width="0" stroke-linecap="round"/></g><path d="M296.43625,168.31803c0.05783,-2.05157 0.27573,-5.25689 0.27573,-5.25689c0,0 4.8624,2.51217 4.86054,5.54426c-0.00252,4.1033 -5.15787,5.004 -5.15787,5.004c0,0 -0.03661,-3.22635 0.0216,-5.29137z" data-paper-data="{&quot;origPos&quot;:null,&quot;origRot&quot;:0}" fill="#605c3f" stroke="none" stroke-width="0" stroke-linecap="round" stroke-linejoin="round"/><path d="M302.61512,193.32019c0.1619,3.7215 -1.8094,8.7465 -12.2989,9.1989c-3.5587,0.1536 -7.1338,-1.1096 -10.3596,-1.5258c-7.0958,-0.1767 -16.1295,1.3648 -15.9615,-6.9326c0.0409,-7.713 9.8501,-5.2585 15.2112,-5.5082c7.8283,-0.3647 7.1174,-2.2709 11.9626,-2.1502c4.8451,0.1206 11.253,2.4769 11.4462,6.9179z" data-paper-data="{&quot;origPos&quot;:null,&quot;index&quot;:null,&quot;origRot&quot;:0}" fill="#383625" stroke="#605c3f" stroke-width="0.25" stroke-linecap="butt" stroke-linejoin="round"/><path d="M278.99563,189.00351c4.86165,-0.48073 6.9079,-1.73053 11.75305,-1.6099c4.84514,0.12063 10.85719,1.95178 11.05039,6.39279c0.1619,3.72154 -3.39276,7.34839 -11.42291,7.8383c-3.55869,0.15352 -7.19377,-0.21517 -10.41954,-0.63142c-7.09582,-0.17668 -16.14931,-0.06382 -15.96146,-6.93256c-0.09507,-7.08498 9.65266,-4.52842 15.00047,-5.05722z" data-paper-data="{&quot;origPos&quot;:null,&quot;index&quot;:null,&quot;origRot&quot;:0}" fill="#605c3f" stroke="none" stroke-width="0" stroke-linecap="butt" stroke-linejoin="round"/><path d="M290.50672,190.17289c0,0 1.0982,2.3697 1.2177,4.1712c0.1195,1.8015 -0.9647,4.1238 -0.9647,4.1238l-2.7027,-8.3656l-2.1974,8.7669l-3.167,-8.5233l-1.4941,8.614l-3.1483,-8.4596c0,0 0.9766,1.9692 1.1183,4.2032c0.1374,2.165 -0.699,4.3088 -0.699,4.3088l1.9814,-8.6623l3.012,8.5954l1.9231,-8.8034l2.9195,8.4828z" data-paper-data="{&quot;origPos&quot;:null,&quot;origRot&quot;:0}" fill="none" stroke="#383625" stroke-width="1" stroke-linecap="round" stroke-linejoin="round"/><path d="M296.1379,189.205c0,0 5.15535,0.9007 5.15787,5.004c0.00186,3.03209 -4.86054,5.54426 -4.86054,5.54426c0,0 -0.2179,-3.20532 -0.27573,-5.25689c-0.05821,-2.06502 -0.0216,-5.29137 -0.0216,-5.29137z" data-paper-data="{&quot;origPos&quot;:null,&quot;origRot&quot;:0}" fill="#605c3f" stroke="none" stroke-width="0" stroke-linecap="round" stroke-linejoin="round"/><g stroke-linejoin="round"><path d="M291.44567,176.41211c-4.8452,0.1207 -4.1343,-1.7855 -11.9626,-2.1502c-5.3611,-0.2497 -15.1703,2.2048 -15.2112,-5.5082c-0.168,-8.2974 8.8657,-6.7559 15.9615,-6.9326c3.2258,-0.4162 6.8009,-1.6794 10.3596,-1.5258c10.4895,0.4524 12.4608,5.4774 12.2989,9.1989c-0.1932,4.441 -6.6011,6.7973 -11.4462,6.9179z" data-paper-data="{&quot;index&quot;:null,&quot;origRot&quot;:0}" fill="#383625" stroke="#383625" stroke-width="0.25" stroke-linecap="butt"/><path d="M279.27238,173.8109c-5.34781,-0.5288 -15.09554,2.02776 -15.00047,-5.05722c-0.18785,-6.86874 8.86564,-6.75588 15.96146,-6.93256c3.22577,-0.41625 6.86085,-0.78494 10.41954,-0.63142c8.03015,0.48991 11.58481,4.11676 11.42291,7.8383c-0.1932,4.44101 -6.20525,6.27216 -11.05039,6.39279c-4.84515,0.12063 -6.8914,-1.12917 -11.75305,-1.6099z" data-paper-data="{&quot;index&quot;:null,&quot;origRot&quot;:0}" fill="#605c3f" stroke="none" stroke-width="0" stroke-linecap="butt"/><path d="M288.58227,164.18961l-2.9195,8.4828l-1.9231,-8.8034l-3.012,8.5954l-1.9814,-8.6623c0,0 0.8364,2.1438 0.699,4.3088c-0.1417,2.234 -1.1183,4.2032 -1.1183,4.2032l3.1483,-8.4596l1.4941,8.614l3.167,-8.5233l2.1974,8.7669l2.7027,-8.3656c0,0 1.0842,2.3223 0.9647,4.1238c-0.1195,1.8015 -1.2177,4.1712 -1.2177,4.1712z" data-paper-data="{&quot;origRot&quot;:0}" fill="none" stroke="#383625" stroke-width="1" stroke-linecap="round"/></g><path d="M277.14821,215.12088c-0.96339,3.26432 1.3912,2.52813 2.15774,1.89814c0.87155,-0.71629 -1.31892,-3.9084 0.62634,-4.32518c1.33269,-0.28554 2.73901,4.5964 2.41333,8.14836c-0.54637,5.14357 -19.65773,11.25527 -12.58742,1.21886c0.3549,-6.22111 9.51502,-14.14061 7.39,-6.94017z" data-paper-data="{&quot;origPos&quot;:null,&quot;origRot&quot;:0,&quot;index&quot;:null}" fill="#f6dbc4" stroke="none" stroke-width="0" stroke-linecap="butt" stroke-linejoin="miter"/><g data-paper-data="{&quot;origPos&quot;:null,&quot;origRot&quot;:0,&quot;index&quot;:null}" stroke="none" stroke-width="0" stroke-linecap="butt" stroke-linejoin="miter"><path d="M269.1571,211.0972l-0.9571,-58.70477l15.48152,10.34441c0,0 8.23255,5.55619 0.53702,11.04813c-3.35459,0.50454 -6.18142,-0.68739 -6.18142,-0.68739l-0.15383,18.06384c0,0 4.21635,-2.00798 6.37791,-2.05632c6.35296,4.63015 0.11146,10.8209 0.11146,10.8209z" data-paper-data="{&quot;origPos&quot;:null}" fill="#5083ab"/><path d="M283.1806,162.0684c0,0 11.70117,6.01359 1.29527,12.28709c-0.79075,0.11893 -1.09979,-0.93316 -3.43017,-0.56165c4.605,-4.80692 4.85062,-7.67995 0.14939,-13.78146z" data-paper-data="{&quot;origPos&quot;:null}" fill="#404c73"/><path d="M283.69921,188.39219c9.28788,5.29582 0.53179,12.14786 0.53179,12.14786l-2.95805,2.47935c3.48413,-5.48842 4.56811,-8.90446 -0.25569,-14.14266c2.5899,0.32367 2.12291,-0.47205 2.68195,-0.48455z" data-paper-data="{&quot;origPos&quot;:null}" fill="#404c73"/></g><path d="M277.50546,150.53062c1.16184,7.41702 -6.87993,-1.63593 -6.41548,-7.84983c-5.69227,-10.87734 12.45194,-2.31083 12.31866,2.85997c-0.14321,3.56399 -2.17793,8.21919 -3.46164,7.76126c-1.87375,-0.66844 0.71662,-3.54553 -0.05341,-4.36998c-0.67724,-0.72513 -2.91486,-1.76391 -2.38814,1.59861z" data-paper-data="{&quot;origPos&quot;:null,&quot;origRot&quot;:0,&quot;index&quot;:null}" fill="#f6dbc4" stroke="none" stroke-width="0" stroke-linecap="butt" stroke-linejoin="miter"/><path d="M267.41029,176.49545c-0.0143,0.0099 -0.0126,0.0086 0.0005,-0.0015c-0.0002,0.0005 -0.0003,0.001 -0.0005,0.0015z" data-paper-data="{&quot;origPos&quot;:null,&quot;origRot&quot;:0,&quot;index&quot;:null}" fill="#9383d1" stroke="none" stroke-width="0.5" stroke-linecap="butt" stroke-linejoin="miter"/><g data-paper-data="{&quot;origPos&quot;:null,&quot;origRot&quot;:0,&quot;index&quot;:null}" stroke="none" stroke-linecap="butt" stroke-linejoin="miter"><path d="M280.72652,145.05541c0.69121,3.60124 -11.93081,3.21739 -19.51267,2.2877c-7.58186,-0.92969 -11.88337,-3.23683 -13.0125,-9.37087c-1.10544,-6.00534 6.32308,-7.83297 14.14918,-5.00635c8.20133,2.96214 17.11684,5.52942 18.37601,12.08952z" data-paper-data="{&quot;origPos&quot;:null,&quot;origRot&quot;:0,&quot;index&quot;:null}" fill="#f6dbc4" stroke-width="0"/><g data-paper-data="{&quot;origPos&quot;:null,&quot;origRot&quot;:0}" stroke-width="0.5"><path d="M274.36819,141.82365c0.0588,-0.3592 0.4271,-0.598 0.8226,-0.5332c0.3955,0.0647 0.6685,0.4084 0.6097,0.7676c-0.0589,0.3593 -0.4271,0.598 -0.8226,0.5332c-0.3956,-0.0647 -0.6685,-0.4084 -0.6097,-0.7676z" data-paper-data="{&quot;origPos&quot;:null}" fill="#f6dbc4"/><path d="M251.04869,137.80915c0.0588,-0.3592 0.4271,-0.5979 0.8226,-0.5332c0.3955,0.0648 0.6685,0.4085 0.6097,0.7677c-0.0588,0.3592 -0.4271,0.598 -0.8226,0.5332c-0.3956,-0.0648 -0.6685,-0.4085 -0.6097,-0.7677z" data-paper-data="{&quot;origPos&quot;:null}" fill="#d1b29b"/><path d="M256.68349,137.36825c0.0507,-0.3097 0.3682,-0.5155 0.7091,-0.4597c0.341,0.0559 0.5763,0.3521 0.5256,0.6618c-0.0507,0.3097 -0.3682,0.5155 -0.7092,0.4597c-0.3409,-0.0558 -0.5762,-0.3521 -0.5255,-0.6618z" data-paper-data="{&quot;origPos&quot;:null}" fill="#d1b29b"/><path d="M252.93879,135.53845c0.0588,-0.3592 0.4271,-0.5979 0.8226,-0.5332c0.3955,0.0648 0.6684,0.4085 0.6096,0.7677c-0.0588,0.3592 -0.4271,0.5979 -0.8226,0.5332c-0.3955,-0.0648 -0.6684,-0.4085 -0.6096,-0.7677z" data-paper-data="{&quot;origPos&quot;:null}" fill="#d1b29b"/><path d="M267.04089,140.43055c0.035,-0.2137 0.2541,-0.3556 0.4894,-0.3171c0.2352,0.0385 0.3976,0.2429 0.3626,0.4566c-0.035,0.2137 -0.2541,0.3557 -0.4893,0.3171c-0.2353,-0.0385 -0.3976,-0.2429 -0.3627,-0.4566z" data-paper-data="{&quot;origPos&quot;:null}" fill="#d1b29b"/><path d="M262.70198,135.29315c0.035,-0.2137 0.2541,-0.3557 0.4893,-0.3172c0.2353,0.0385 0.3977,0.243 0.3627,0.4566c-0.035,0.2137 -0.2541,0.3557 -0.4893,0.3172c-0.2353,-0.0385 -0.3977,-0.243 -0.3627,-0.4566z" data-paper-data="{&quot;origPos&quot;:null}" fill="#d1b29b"/><path d="M263.61129,140.15855c0.0349,-0.2136 0.254,-0.3556 0.4893,-0.3171c0.2352,0.0385 0.3976,0.2429 0.3626,0.4566c-0.035,0.2137 -0.254,0.3557 -0.4893,0.3172c-0.2353,-0.0385 -0.3976,-0.243 -0.3626,-0.4566z" data-paper-data="{&quot;origPos&quot;:null}" fill="#d1b29b"/><path d="M261.58889,139.24845c0.035,-0.2136 0.254,-0.3556 0.4893,-0.3171c0.2352,0.0385 0.3976,0.243 0.3626,0.4566c-0.035,0.2137 -0.2541,0.3557 -0.4893,0.3172c-0.2353,-0.0385 -0.3976,-0.243 -0.3626,-0.4566z" data-paper-data="{&quot;origPos&quot;:null}" fill="#d1b29b"/><path d="M259.04868,137.96405c0.035,-0.2136 0.2541,-0.3556 0.4893,-0.3171c0.2353,0.0385 0.3976,0.2429 0.3627,0.4566c-0.035,0.2137 -0.2541,0.3557 -0.4893,0.3172c-0.2353,-0.0385 -0.3976,-0.243 -0.3627,-0.4567z" data-paper-data="{&quot;origPos&quot;:null}" fill="#d1b29b"/><path d="M254.09249,138.99735c0.0437,-0.2665 0.3169,-0.4436 0.6102,-0.3956c0.2934,0.0481 0.4959,0.303 0.4522,0.5695c-0.0436,0.2665 -0.3168,0.4435 -0.6102,0.3955c-0.2933,-0.048 -0.4958,-0.303 -0.4522,-0.5694z" data-paper-data="{&quot;origPos&quot;:null}" fill="#bda18b"/><path d="M259.96959,140.16465c0.0659,-0.4027 0.4788,-0.6703 0.9221,-0.5977c0.4434,0.0726 0.7493,0.4578 0.6834,0.8605c-0.0659,0.4026 -0.4788,0.6702 -0.9221,0.5977c-0.4434,-0.0726 -0.7493,-0.4579 -0.6834,-0.8605z" data-paper-data="{&quot;origPos&quot;:null}" fill="#bda18b"/><path d="M269.31329,138.44923c0.0629,-0.384 0.4566,-0.6392 0.8795,-0.57c0.4228,0.0692 0.7146,0.4367 0.6518,0.8207c-0.0629,0.3841 -0.4567,0.6393 -0.8795,0.5701c-0.4229,-0.0692 -0.7147,-0.4367 -0.6518,-0.8207z" data-paper-data="{&quot;origPos&quot;:null}" fill="#bda18b"/><path d="M258.31029,139.51135c-0.0443,-0.1662 0.0663,-0.3296 0.247,-0.3651c0.1808,-0.0354 0.3633,0.0706 0.4077,0.2368c0.0444,0.1662 -0.0662,0.3297 -0.247,0.3651c-0.1808,0.0354 -0.3633,-0.0706 -0.4077,-0.2368z" data-paper-data="{&quot;origPos&quot;:null,&quot;origRot&quot;:0}" fill="#d1b29b"/><path d="M270.86819,137.07965c-0.0444,-0.1662 0.0662,-0.3297 0.247,-0.3651c0.1808,-0.0354 0.3633,0.0706 0.4077,0.2368c0.0443,0.1662 -0.0662,0.3297 -0.247,0.3651c-0.1808,0.0354 -0.3633,-0.0706 -0.4077,-0.2368z" data-paper-data="{&quot;origPos&quot;:null,&quot;origRot&quot;:0}" fill="#d1b29b"/><path d="M272.77558,138.73985c0.0548,-0.3344 0.3976,-0.5567 0.7659,-0.4964c0.3682,0.0603 0.6223,0.3803 0.5676,0.7147c-0.0548,0.3345 -0.3977,0.5567 -0.7659,0.4964c-0.3682,-0.0602 -0.6223,-0.3802 -0.5676,-0.7147z" data-paper-data="{&quot;origPos&quot;:null}" fill="#f6dbc4"/><path d="M268.86079,136.09044c0.0456,-0.2787 0.3313,-0.464 0.6382,-0.4137c0.3068,0.0502 0.5186,0.3169 0.473,0.5956c-0.0456,0.2787 -0.3314,0.4639 -0.6383,0.4137c-0.3068,-0.0503 -0.5186,-0.3169 -0.473,-0.5956z" data-paper-data="{&quot;origPos&quot;:null}" fill="#d1b29b"/><path d="M263.55899,138.44365c0.0467,-0.2851 0.3389,-0.4745 0.6528,-0.4232c0.3138,0.0514 0.5304,0.3242 0.4838,0.6092c-0.0467,0.2851 -0.3389,0.4745 -0.6528,0.4232c-0.3139,-0.0514 -0.5305,-0.3242 -0.4838,-0.6092z" data-paper-data="{&quot;origPos&quot;:null}" fill="#bda18b"/></g></g><g data-paper-data="{&quot;origRot&quot;:0,&quot;index&quot;:null,&quot;origPos&quot;:null}" stroke="none" stroke-linecap="butt" stroke-linejoin="miter"><path d="M279.26007,221.0255c-1.86238,6.41496 -10.97764,8.14398 -19.41843,10.33242c-8.0546,2.08832 -15.2815,-0.42065 -13.62365,-6.29752c1.69338,-6.00282 6.19039,-7.90093 13.82579,-8.12314c7.63543,-0.22222 20.23862,0.56666 19.21625,4.08823z" data-paper-data="{&quot;origPos&quot;:null,&quot;origRot&quot;:0,&quot;index&quot;:null}" fill="#f6dbc4" stroke-width="0"/><g data-paper-data="{&quot;origPos&quot;:null,&quot;origRot&quot;:0}" stroke-width="0.5"><path d="M262.23429,223.99655c-0.0642,-0.3583 0.2035,-0.7061 0.598,-0.7768c0.3945,-0.0706 0.7664,0.1625 0.8306,0.5208c0.0642,0.3583 -0.2036,0.7061 -0.5981,0.7768c-0.3945,0.0707 -0.7663,-0.1625 -0.8305,-0.5208z" data-paper-data="{&quot;origPos&quot;:null}" fill="#d1b29b"/><path d="M256.36649,227.25645c-0.0642,-0.3583 0.2036,-0.706 0.5981,-0.7767c0.3945,-0.0707 0.7663,0.1625 0.8305,0.5208c0.0642,0.3583 -0.2036,0.706 -0.5981,0.7767c-0.3945,0.0707 -0.7663,-0.1625 -0.8305,-0.5208z" data-paper-data="{&quot;origPos&quot;:null}" fill="#d1b29b"/><path d="M271.29289,227.17235c-0.0381,-0.2131 0.1211,-0.42 0.3558,-0.462c0.2346,-0.042 0.4558,0.0966 0.494,0.3097c0.0382,0.2132 -0.1211,0.42 -0.3557,0.4621c-0.2347,0.042 -0.4559,-0.0967 -0.494,-0.3098z" data-paper-data="{&quot;origPos&quot;:null}" fill="#f6dbc4"/><path d="M261.73188,225.61805c-0.0382,-0.2131 0.1211,-0.42 0.3557,-0.462c0.2347,-0.042 0.4559,0.0966 0.4941,0.3098c0.0382,0.2131 -0.1211,0.42 -0.3558,0.462c-0.2346,0.042 -0.4558,-0.0967 -0.494,-0.3098z" data-paper-data="{&quot;origPos&quot;:null}" fill="#d1b29b"/><path d="M260.50019,223.27805c-0.0382,-0.2131 0.1211,-0.42 0.3558,-0.462c0.2346,-0.0421 0.4558,0.0966 0.494,0.3097c0.0382,0.2132 -0.1211,0.42 -0.3557,0.4621c-0.2347,0.042 -0.4559,-0.0967 -0.4941,-0.3098z" data-paper-data="{&quot;origPos&quot;:null}" fill="#d1b29b"/><path d="M265.75838,227.87365c-0.0382,-0.2131 0.1211,-0.42 0.3558,-0.462c0.2346,-0.0421 0.4558,0.0966 0.494,0.3097c0.0382,0.2132 -0.1211,0.42 -0.3557,0.4621c-0.2347,0.042 -0.4559,-0.0967 -0.494,-0.3098z" data-paper-data="{&quot;origPos&quot;:null}" fill="#d1b29b"/><path d="M262.93549,227.50865c-0.0381,-0.2132 0.1211,-0.42 0.3558,-0.462c0.2346,-0.0421 0.4558,0.0966 0.494,0.3097c0.0382,0.2132 -0.1211,0.42 -0.3557,0.4621c-0.2347,0.042 -0.4559,-0.0967 -0.4941,-0.3098z" data-paper-data="{&quot;origPos&quot;:null}" fill="#d1b29b"/><path d="M259.15429,224.49225c-0.0476,-0.2658 0.151,-0.5238 0.4436,-0.5762c0.2926,-0.0524 0.5685,0.1206 0.6161,0.3863c0.0476,0.2658 -0.151,0.5238 -0.4436,0.5762c-0.2927,0.0525 -0.5685,-0.1205 -0.6161,-0.3863z" data-paper-data="{&quot;origPos&quot;:null}" fill="#bda18b"/><path d="M258.71449,227.62565c-0.0719,-0.4017 0.2282,-0.7915 0.6704,-0.8707c0.4422,-0.0792 0.859,0.1822 0.931,0.5838c0.0719,0.4016 -0.2282,0.7914 -0.6704,0.8706c-0.4422,0.0793 -0.859,-0.1821 -0.931,-0.5837z" data-paper-data="{&quot;origPos&quot;:null}" fill="#bda18b"/><path d="M267.20309,225.80095c-0.0686,-0.3831 0.2176,-0.7548 0.6394,-0.8304c0.4217,-0.0756 0.8193,0.1737 0.8879,0.5568c0.0687,0.3831 -0.2176,0.7548 -0.6394,0.8304c-0.4217,0.0756 -0.8193,-0.1737 -0.8879,-0.5568z" data-paper-data="{&quot;origPos&quot;:null}" fill="#bda18b"/><path d="M256.01889,225.44615c-0.0972,-0.142 -0.0473,-0.3329 0.1113,-0.4265c0.1587,-0.0936 0.3661,-0.0545 0.4633,0.0875c0.0972,0.1419 0.0474,0.3329 -0.1113,0.4265c-0.1587,0.0936 -0.3661,0.0544 -0.4633,-0.0875z" data-paper-data="{&quot;origPos&quot;:null,&quot;origRot&quot;:0}" fill="#d1b29b"/><path d="M273.47089,223.58275c-0.0972,-0.142 -0.0474,-0.3329 0.1113,-0.4265c0.1586,-0.0936 0.3661,-0.0545 0.4632,0.0875c0.0973,0.1419 0.0474,0.3328 -0.1113,0.4265c-0.1586,0.0936 -0.366,0.0544 -0.4632,-0.0875z" data-paper-data="{&quot;origPos&quot;:null,&quot;origRot&quot;:0}" fill="#f6dbc4"/><path d="M273.74978,221.72855c-0.0972,-0.142 -0.0474,-0.3329 0.1113,-0.4265c0.1587,-0.0936 0.3661,-0.0545 0.4633,0.0875c0.0972,0.1419 0.0474,0.3329 -0.1113,0.4265c-0.1587,0.0936 -0.3661,0.0544 -0.4633,-0.0875z" data-paper-data="{&quot;origPos&quot;:null,&quot;origRot&quot;:0}" fill="#f6dbc4"/><path d="M269.03229,222.89585c-0.0972,-0.1419 -0.0474,-0.3328 0.1113,-0.4265c0.1586,-0.0936 0.366,-0.0544 0.4632,0.0875c0.0973,0.1419 0.0474,0.3329 -0.1113,0.4265c-0.1586,0.0936 -0.3661,0.0544 -0.4632,-0.0875z" data-paper-data="{&quot;origPos&quot;:null,&quot;origRot&quot;:0}" fill="#d1b29b"/><path d="M276.13699,223.66815c-0.0597,-0.3336 0.1896,-0.6573 0.5569,-0.7231c0.3673,-0.0658 0.7134,0.1512 0.7732,0.4848c0.0598,0.3336 -0.1895,0.6574 -0.5568,0.7232c-0.3673,0.0658 -0.7135,-0.1513 -0.7733,-0.4849z" data-paper-data="{&quot;origPos&quot;:null}" fill="#f6dbc4"/><path d="M258.15969,225.69915c-0.0509,-0.2843 0.1616,-0.5603 0.4747,-0.6164c0.313,-0.0561 0.6081,0.129 0.6591,0.4133c0.0509,0.2844 -0.1616,0.5603 -0.4746,0.6164c-0.3131,0.0561 -0.6082,-0.1289 -0.6591,-0.4133z" data-paper-data="{&quot;origPos&quot;:null}" fill="#bda18b"/></g></g><g data-paper-data="{&quot;index&quot;:null,&quot;origPos&quot;:null}" fill="#546d6d" stroke="none" stroke-linecap="butt" stroke-linejoin="miter"><path d="M274.17795,150.73746c2.71778,0.2576 12.21402,10.08689 11.42886,34.60992c-1.26211,18.51969 -5.58227,26.64725 -11.07117,27.90882c-3.6975,0.02994 -3.09787,0.56871 -5.46424,3.58866c2.27777,5.25108 1.24252,4.47736 1.13464,8.22662c-0.12318,4.28075 -4.68413,10.21007 -8.83031,8.25016c-3.11009,1.22751 -5.04873,3.38335 -8.3815,3.42928c-6.93868,0.10464 -27.33398,-1.92798 -28.04905,-54.25276c-0.77055,-56.38455 23.62469,-56.73524 30.20255,-56.30273c3.11641,0.32355 6.25933,1.93962 9.15836,3.15456c5.24764,-2.21 8.49828,5.21215 7.97099,9.9074c-1.15564,5.94298 -1.76013,5.24506 -2.91239,8.76507c2.51441,1.52003 2.69123,3.3118 4.81325,2.26354zM251.40487,159.11838c-11.64196,0 -20.59913,11.28764 -20.59913,22.33334c0,11.04569 10.55878,23 22.20075,23c11.64198,0 11.28305,-18.62097 23.93084,-23c-11.11289,-2.71237 -13.89049,-22.33334 -25.53245,-22.33334z" data-paper-data="{&quot;origPos&quot;:null,&quot;index&quot;:null,&quot;origRot&quot;:0}" stroke-width="NaN"/><path d="M276.3336,197.30393c0,0 3.18117,-8.44944 3.17356,-15.51096c-0.00585,-5.43228 -3.54844,-19.83622 -3.54844,-19.83622l3.07631,-7.07747c0,0 6.89776,7.8112 6.85104,25.80653c-0.05088,17.59532 -4.67677,26.10807 -4.67677,26.10807z" data-paper-data="{&quot;origPos&quot;:null,&quot;origRot&quot;:0,&quot;index&quot;:null}" stroke-width="0"/><g data-paper-data="{&quot;origPos&quot;:null,&quot;origRot&quot;:0}" stroke-width="0.5"><path d="M276.93939,176.69965c-0.271,0 -0.4907,-0.7249 -0.4907,-1.6193c0,-0.8943 0.2197,-1.6193 0.4907,-1.6193c0.2709,0 0.4906,0.725 0.4906,1.6193c0,0.8944 -0.2197,1.6193 -0.4906,1.6193z" data-paper-data="{&quot;origPos&quot;:null}"/><path d="M277.30779,176.18405c-2.062,-0.1404 -5.4361,-0.37 -7.4981,-0.5103c0,0 -0.9841,-0.067 -0.966,-1.5643c0.0181,-1.4973 0.996,-0.917 0.996,-0.917c2.4873,0.1693 4.8677,0.4647 7.3773,1.1871c1.3009,0.3745 2.1528,1.9448 0.0908,1.8045z" data-paper-data="{&quot;origPos&quot;:null,&quot;origRot&quot;:0}"/></g><g data-paper-data="{&quot;origPos&quot;:null,&quot;origRot&quot;:0}" stroke-width="0.5"><path d="M277.02799,189.48105c-0.2559,0 -0.4633,-0.8024 -0.4633,-1.7922c0,-0.9897 0.2074,-1.7921 0.4633,-1.7921c0.2559,0 0.4634,0.8024 0.4634,1.7921c0,0.9898 -0.2075,1.7922 -0.4634,1.7922z" data-paper-data="{&quot;origPos&quot;:null}"/><path d="M277.32919,188.56455c-1.706,0.9355 -4.7549,2.0985 -6.5295,2.2641c0,0 -0.7481,0.2353 -0.7658,-1.2107c-0.0177,-1.446 0.8292,-1.5251 0.8292,-1.5251c2.4097,-0.225 5.3913,-0.9738 6.1693,-1.0687c0.2594,-0.0316 0.4053,-0.0467 0.6647,-0.0657c1.0178,-0.0743 0.723,1.0079 -0.368,1.6061z" data-paper-data="{&quot;origPos&quot;:null,&quot;origRot&quot;:0}"/></g></g><path d="M267.6898,171.77467c-0.364,0 -0.6591,-0.3249 -0.6591,-0.7256c0,-0.4008 0.2951,-0.7257 0.6591,-0.7257c0.364,0 0.6591,0.3249 0.6591,0.7257c0,0.4007 -0.2951,0.7256 -0.6591,0.7256z" data-paper-data="{&quot;origPos&quot;:null}" fill="#f6dbc4" stroke="none" stroke-width="0.5" stroke-linecap="butt" stroke-linejoin="miter"/><path d="M266.82992,167.21657c-0.3033,0 -0.5492,-0.2707 -0.5492,-0.6047c0,-0.334 0.2459,-0.6047 0.5492,-0.6047c0.3034,0 0.5493,0.2707 0.5493,0.6047c0,0.334 -0.2459,0.6047 -0.5493,0.6047z" data-paper-data="{&quot;origPos&quot;:null}" fill="#f6dbc4" stroke="none" stroke-width="0.5" stroke-linecap="butt" stroke-linejoin="miter"/><path d="M266.34891,197.38997c-0.3138,0 -0.5682,-0.28 -0.5682,-0.6255c0,-0.3455 0.2544,-0.6256 0.5682,-0.6256c0.3138,0 0.5682,0.2801 0.5682,0.6256c0,0.3455 -0.2544,0.6255 -0.5682,0.6255z" data-paper-data="{&quot;origPos&quot;:null}" fill="#f6dbc4" stroke="none" stroke-width="0.5" stroke-linecap="butt" stroke-linejoin="miter"/><path d="M264.98142,201.38117c-0.364,0 -0.6591,-0.3249 -0.6591,-0.7257c0,-0.4007 0.2951,-0.7256 0.6591,-0.7256c0.364,0 0.6591,0.3249 0.6591,0.7256c0,0.4008 -0.2951,0.7257 -0.6591,0.7257z" data-paper-data="{&quot;origPos&quot;:null}" fill="#f6dbc4" stroke="none" stroke-width="0.5" stroke-linecap="butt" stroke-linejoin="miter"/><path d="M267.69772,186.67387c-0.2166,0 -0.3921,-0.1933 -0.3921,-0.4316c0,-0.2384 0.1755,-0.4317 0.3921,-0.4317c0.2165,0 0.392,0.1933 0.392,0.4317c0,0.2384 -0.1755,0.4316 -0.392,0.4316z" data-paper-data="{&quot;origPos&quot;:null}" fill="#f6dbc4" stroke="none" stroke-width="0.5" stroke-linecap="butt" stroke-linejoin="miter"/><path d="M267.98332,190.10247c-0.2165,0 -0.392,-0.1933 -0.392,-0.4317c0,-0.2383 0.1755,-0.4316 0.392,-0.4316c0.2165,0 0.3921,0.1933 0.3921,0.4316c0,0.2384 -0.1756,0.4317 -0.3921,0.4317z" data-paper-data="{&quot;origPos&quot;:null}" fill="#f6dbc4" stroke="none" stroke-width="0.5" stroke-linecap="butt" stroke-linejoin="miter"/><path d="M267.24521,192.24527c-0.2165,0 -0.392,-0.1932 -0.392,-0.4316c0,-0.2384 0.1755,-0.4317 0.392,-0.4317c0.2165,0 0.3921,0.1933 0.3921,0.4317c0,0.2384 -0.1756,0.4316 -0.3921,0.4316z" data-paper-data="{&quot;origPos&quot;:null}" fill="#f6dbc4" stroke="none" stroke-width="0.5" stroke-linecap="butt" stroke-linejoin="miter"/><path d="M266.55482,194.95957c-0.2166,0 -0.3921,-0.1932 -0.3921,-0.4316c0,-0.2384 0.1755,-0.4317 0.3921,-0.4317c0.2165,0 0.392,0.1933 0.392,0.4317c0,0.2384 -0.1755,0.4316 -0.392,0.4316z" data-paper-data="{&quot;origPos&quot;:null}" fill="#f6dbc4" stroke="none" stroke-width="0.5" stroke-linecap="butt" stroke-linejoin="miter"/><path d="M263.72772,176.86977c-0.3389,0 -0.6137,-0.3025 -0.6137,-0.6756c0,-0.3731 0.2748,-0.6756 0.6137,-0.6756c0.3389,0 0.6136,0.3025 0.6136,0.6756c0,0.3731 -0.2747,0.6756 -0.6136,0.6756z" data-paper-data="{&quot;origPos&quot;:null}" fill="#f6dbc4" stroke="none" stroke-width="0.5" stroke-linecap="butt" stroke-linejoin="miter"/><path d="M268.24431,193.86197c-0.408,0 -0.7388,-0.3642 -0.7388,-0.8134c0,-0.4493 0.3308,-0.8135 0.7388,-0.8135c0.408,0 0.7388,0.3642 0.7388,0.8135c0,0.4492 -0.3308,0.8134 -0.7388,0.8134z" data-paper-data="{&quot;origPos&quot;:null}" fill="#f6dbc4" stroke="none" stroke-width="0.5" stroke-linecap="butt" stroke-linejoin="miter"/><path d="M267.45462,168.93127c-0.1967,0 -0.3562,-0.1756 -0.3562,-0.3922c0,-0.2166 0.1595,-0.3922 0.3562,-0.3922c0.1968,0 0.3563,0.1756 0.3563,0.3922c0,0.2166 -0.1595,0.3922 -0.3563,0.3922z" data-paper-data="{&quot;origPos&quot;:null}" fill="#f6dbc4" stroke="none" stroke-width="0.5" stroke-linecap="butt" stroke-linejoin="miter"/><path d="M267.69272,165.78837c-0.1967,0 -0.3562,-0.1756 -0.3562,-0.3922c0,-0.2166 0.1595,-0.3922 0.3562,-0.3922c0.1968,0 0.3563,0.1756 0.3563,0.3922c0,0.2166 -0.1595,0.3922 -0.3563,0.3922z" data-paper-data="{&quot;origPos&quot;:null}" fill="#f6dbc4" stroke="none" stroke-width="0.5" stroke-linecap="butt" stroke-linejoin="miter"/><path d="M268.09752,167.35987c-0.1967,0 -0.3562,-0.1756 -0.3562,-0.3922c0,-0.2167 0.1595,-0.3923 0.3562,-0.3923c0.1968,0 0.3563,0.1756 0.3563,0.3923c0,0.2166 -0.1595,0.3922 -0.3563,0.3922z" data-paper-data="{&quot;origPos&quot;:null}" fill="#f6dbc4" stroke="none" stroke-width="0.5" stroke-linecap="butt" stroke-linejoin="miter"/><path d="M265.37532,184.75147c-0.3892,0 -0.7046,-0.3473 -0.7046,-0.7758c0,-0.4285 0.3154,-0.7759 0.7046,-0.7759c0.3892,0 0.7047,0.3474 0.7047,0.7759c0,0.4285 -0.3155,0.7758 -0.7047,0.7758z" data-paper-data="{&quot;origPos&quot;:null}" fill="#f6dbc4" stroke="none" stroke-width="0.5" stroke-linecap="butt" stroke-linejoin="miter"/><path d="M264.58732,162.36627c-0.3829,0 -0.6933,-0.3418 -0.6933,-0.7634c0,-0.4216 0.3104,-0.7634 0.6933,-0.7634c0.383,0 0.6934,0.3418 0.6934,0.7634c0,0.4216 -0.3104,0.7634 -0.6934,0.7634z" data-paper-data="{&quot;origPos&quot;:null}" fill="#f6dbc4" stroke="none" stroke-width="0.5" stroke-linecap="butt" stroke-linejoin="miter"/><path d="M259.97391,183.07687c-0.3138,0 -0.5682,-0.2801 -0.5682,-0.6256c0,-0.3455 0.2544,-0.6255 0.5682,-0.6255c0.3138,0 0.5682,0.28 0.5682,0.6255c0,0.3455 -0.2544,0.6256 -0.5682,0.6256z" data-paper-data="{&quot;origPos&quot;:null}" fill="#f6dbc4" stroke="none" stroke-width="0.5" stroke-linecap="butt" stroke-linejoin="miter"/><path d="M261.34391,179.72407c-0.1569,0.0706 -0.336,-0.0121 -0.4002,-0.1848c-0.0642,-0.1727 0.011,-0.37 0.1678,-0.4406c0.1569,-0.0707 0.336,0.0121 0.4002,0.1848c0.0642,0.1727 -0.011,0.3699 -0.1678,0.4406z" data-paper-data="{&quot;origPos&quot;:null,&quot;origRot&quot;:0}" fill="#f6dbc4" stroke="none" stroke-width="0.5" stroke-linecap="butt" stroke-linejoin="miter"/><path d="M261.34391,175.72407c-0.1569,0.0706 -0.336,-0.0121 -0.4002,-0.1848c-0.0642,-0.1727 0.011,-0.37 0.1678,-0.4406c0.1569,-0.0707 0.336,0.0121 0.4002,0.1848c0.0642,0.1727 -0.011,0.3699 -0.1678,0.4406z" data-paper-data="{&quot;origPos&quot;:null,&quot;origRot&quot;:0}" fill="#f6dbc4" stroke="none" stroke-width="0.5" stroke-linecap="butt" stroke-linejoin="miter"/><path d="M266.20102,178.29547c-0.1569,0.0706 -0.336,-0.0121 -0.4002,-0.1848c-0.0642,-0.1727 0.011,-0.3699 0.1678,-0.4406c0.1569,-0.0706 0.336,0.0121 0.4002,0.1848c0.0642,0.1727 -0.011,0.3699 -0.1678,0.4406z" data-paper-data="{&quot;origPos&quot;:null,&quot;origRot&quot;:0}" fill="#f6dbc4" stroke="none" stroke-width="0.5" stroke-linecap="butt" stroke-linejoin="miter"/><path d="M266.62952,169.15257c-0.1568,0.0707 -0.336,-0.012 -0.4001,-0.1847c-0.0642,-0.1727 0.0109,-0.37 0.1678,-0.4406c0.1568,-0.0707 0.336,0.0121 0.4001,0.1847c0.0642,0.1727 -0.0109,0.37 -0.1678,0.4406z" data-paper-data="{&quot;origPos&quot;:null,&quot;origRot&quot;:0}" fill="#f6dbc4" stroke="none" stroke-width="0.5" stroke-linecap="butt" stroke-linejoin="miter"/><path d="M268.20102,195.43827c-0.1569,0.0707 -0.336,-0.012 -0.4002,-0.1847c-0.0642,-0.1727 0.011,-0.37 0.1678,-0.4406c0.1569,-0.0707 0.336,0.0121 0.4002,0.1847c0.0642,0.1727 -0.011,0.37 -0.1678,0.4406z" data-paper-data="{&quot;origPos&quot;:null,&quot;origRot&quot;:0}" fill="#f6dbc4" stroke="none" stroke-width="0.5" stroke-linecap="butt" stroke-linejoin="miter"/><path d="M261.77242,182.00977c-0.1568,0.0706 -0.336,-0.0121 -0.4001,-0.1848c-0.0642,-0.1727 0.0109,-0.3699 0.1678,-0.4406c0.1568,-0.0706 0.336,0.0121 0.4001,0.1848c0.0642,0.1727 -0.0109,0.3699 -0.1678,0.4406z" data-paper-data="{&quot;origPos&quot;:null,&quot;origRot&quot;:0}" fill="#f6dbc4" stroke="none" stroke-width="0.5" stroke-linecap="butt" stroke-linejoin="miter"/><path d="M263.77242,183.43827c-0.1568,0.0707 -0.336,-0.012 -0.4001,-0.1847c-0.0642,-0.1727 0.0109,-0.37 0.1678,-0.4406c0.1568,-0.0707 0.336,0.0121 0.4001,0.1847c0.0642,0.1727 -0.0109,0.37 -0.1678,0.4406z" data-paper-data="{&quot;origPos&quot;:null,&quot;origRot&quot;:0}" fill="#f6dbc4" stroke="none" stroke-width="0.5" stroke-linecap="butt" stroke-linejoin="miter"/><path d="M262.77242,183.29547c-0.1568,0.0706 -0.336,-0.0121 -0.4001,-0.1848c-0.0642,-0.1727 0.0109,-0.3699 0.1678,-0.4406c0.1568,-0.0706 0.336,0.0121 0.4001,0.1848c0.0642,0.1727 -0.0109,0.3699 -0.1678,0.4406z" data-paper-data="{&quot;origPos&quot;:null,&quot;origRot&quot;:0}" fill="#f6dbc4" stroke="none" stroke-width="0.5" stroke-linecap="butt" stroke-linejoin="miter"/><path d="M266.20102,164.43827c-0.1569,0.0707 -0.336,-0.012 -0.4002,-0.1847c-0.0642,-0.1727 0.011,-0.37 0.1678,-0.4406c0.1569,-0.0707 0.336,0.0121 0.4002,0.1847c0.0642,0.1727 -0.011,0.37 -0.1678,0.4406z" data-paper-data="{&quot;origPos&quot;:null,&quot;origRot&quot;:0}" fill="#f6dbc4" stroke="none" stroke-width="0.5" stroke-linecap="butt" stroke-linejoin="miter"/><path d="M268.62952,191.58117c-0.1568,0.0707 -0.336,-0.0121 -0.4001,-0.1848c-0.0642,-0.1726 0.0109,-0.3699 0.1678,-0.4406c0.1568,-0.0706 0.336,0.0121 0.4001,0.1848c0.0642,0.1727 -0.0109,0.37 -0.1678,0.4406z" data-paper-data="{&quot;origPos&quot;:null,&quot;origRot&quot;:0}" fill="#f6dbc4" stroke="none" stroke-width="0.5" stroke-linecap="butt" stroke-linejoin="miter"/><path d="M265.10272,181.28777c-0.339,0 -0.6137,-0.3025 -0.6137,-0.6757c0,-0.3731 0.2748,-0.6756 0.6137,-0.6756c0.3389,0 0.6136,0.3025 0.6136,0.6756c0,0.3732 -0.2747,0.6757 -0.6136,0.6757z" data-paper-data="{&quot;origPos&quot;:null}" fill="#f6dbc4" stroke="none" stroke-width="0.5" stroke-linecap="butt" stroke-linejoin="miter"/><path d="M263.1205,185.57917c-0.2824,0 -0.5114,-0.2521 -0.5114,-0.563c0,-0.311 0.229,-0.563 0.5114,-0.563c0.2824,0 0.5114,0.252 0.5114,0.563c0,0.3109 -0.229,0.563 -0.5114,0.563z" data-paper-data="{&quot;origPos&quot;:null}" fill="#f6dbc4" stroke="none" stroke-width="0.5" stroke-linecap="butt" stroke-linejoin="miter"/><path d="M262.77312,179.56447c-0.3033,0 -0.5492,-0.2707 -0.5492,-0.6047c0,-0.334 0.2459,-0.6047 0.5492,-0.6047c0.3034,0 0.5493,0.2707 0.5493,0.6047c0,0.334 -0.2459,0.6047 -0.5493,0.6047z" data-paper-data="{&quot;origPos&quot;:null}" fill="#f6dbc4" stroke="none" stroke-width="0.5" stroke-linecap="butt" stroke-linejoin="miter"/><path d="M262.97752,181.45087c-0.3516,0 -0.6366,-0.3138 -0.6366,-0.7009c0,-0.3871 0.285,-0.7009 0.6366,-0.7009c0.3515,0 0.6365,0.3138 0.6365,0.7009c0,0.3871 -0.285,0.7009 -0.6365,0.7009z" data-paper-data="{&quot;origPos&quot;:null}" fill="#f6dbc4" stroke="none" stroke-width="0.5" stroke-linecap="butt" stroke-linejoin="miter"/><path d="M266.29931,190.43117c-0.2889,0 -0.523,-0.2579 -0.523,-0.5759c0,-0.3181 0.2341,-0.5759 0.523,-0.5759c0.2889,0 0.523,0.2578 0.523,0.5759c0,0.318 -0.2341,0.5759 -0.523,0.5759z" data-paper-data="{&quot;origPos&quot;:null}" fill="#f6dbc4" stroke="none" stroke-width="0.5" stroke-linecap="butt" stroke-linejoin="miter"/><g stroke="none" stroke-linejoin="miter"><path d="M272.34712,200.49199c-4.61809,6.16656 -11.8619,6.74145 -19.27128,8.28178c-5.91594,3.11496 -12.95878,7.79735 -15.34637,5.83117c-2.59073,-2.13346 8.38223,-5.69909 -1.09935,-3.4086c-9.48158,2.29049 -42.88986,6.74284 -42.6692,-29.81948c0.70725,-37.31221 32.86712,-33.01257 40.12367,-30.89204c16.09818,3.35733 3.20838,1.63437 6.3106,-2.7093c2.64275,-0.98577 8.73833,2.27915 13.4864,6.49728c6.36839,1.04597 14.60216,3.38768 18.54707,8.64487c4.14738,5.52702 2.14313,11.59055 3.80471,13.37103c1.78563,1.91341 3.19835,2.88823 3.08277,4.39454c-0.10649,1.7405 -1.91985,3.33904 -2.85082,4.11174c-0.93098,0.77269 0.11376,10.04605 -4.1182,15.69701z" data-paper-data="{&quot;origPos&quot;:null}" fill="#f6dbc4" stroke-width="0" stroke-linecap="butt"/><path d="M269.48671,170.84472c-0.37804,4.28411 -3.08105,4.53214 -3.08105,4.53214c0,0 0.12351,-1.61433 0.38226,-4.7588c0.09038,-3.70737 -3.11362,-7.56381 -3.11362,-7.56381c0,0 6.19045,3.50636 5.81241,7.79047z" data-paper-data="{&quot;origPos&quot;:null,&quot;index&quot;:null}" fill="#ab7b70" stroke-width="0" stroke-linecap="round"/><path d="M265.67193,176.27017c0,0 -3.45399,-0.24681 -4.04904,-2.46877c0.12532,-5.05456 0.03854,-6.50315 -0.72265,-10.97671c-0.2885,-1.69562 -0.61746,-4.31851 -0.61746,-4.31851c0,0 2.63712,2.53086 3.10301,4.79681c0.55451,2.69649 1.16808,8.85778 1.16808,8.85778z" data-paper-data="{&quot;origPos&quot;:null,&quot;index&quot;:null}" fill="#b39474" stroke-width="0.5" stroke-linecap="butt"/><path d="M264.51214,198.26724c0,0 2.99043,-4.0243 2.6994,-7.72134c-0.42867,-3.12584 -0.63944,-4.73111 -0.63944,-4.73111c0,0 2.71248,0.10126 3.32199,4.35861c0.60951,4.25735 -5.38195,8.09383 -5.38195,8.09383z" data-paper-data="{&quot;origPos&quot;:null}" fill="#ab7b70" stroke-width="0" stroke-linecap="round"/><path d="M261.08433,202.7868c0,0 0.02188,-2.60955 0.21813,-4.31821c0.51788,-4.50824 0.69052,-5.98679 0.29151,-11.02723c0.47385,-2.25083 3.90942,-2.68434 3.90942,-2.68434l-0.89386,4.16392c0,0 -0.27898,6.18549 -0.68663,8.90805c-0.40764,2.72267 -2.83856,4.95781 -2.83856,4.95781z" data-paper-data="{&quot;origPos&quot;:null,&quot;index&quot;:null}" fill="#b39474" stroke-width="0.5" stroke-linecap="butt"/><g fill="#bfab7c" stroke-linecap="butt"><path d="M228.52908,179.07507c9.1185,2.45239 29.26194,0.42141 33.82035,-7.44912c1.06787,8.90349 0.82355,16.07913 -0.20816,20.55922c-5.22311,8.71883 -23.08438,7.81285 -23.08438,7.81285c0,0 16.79516,1.95192 21.72522,-2.41321c-1.76908,6.27507 -6.6687,18.7556 -16.82502,20.18069c-39.7593,2.02195 -57.45837,-16.80669 -51.90731,-40.19754c-1.16948,-27.24192 27.54023,-33.98783 51.56796,-31.20037c7.39611,0.85802 12.84439,0.03711 14.91678,7.1886c2.15637,12.90331 -25.00645,19.09921 -25.00645,19.09921c0,0 11.63224,-1.53878 19.22014,-4.77266c4.38541,-1.86901 7.56789,-4.69722 7.44251,-9.46264c0.89483,4.21446 2.59683,7.28591 1.08838,11.32162c-3.74877,10.02944 -32.75002,9.33335 -32.75002,9.33335z" stroke-width="0"/><path d="M257.64205,154.71408c2.08013,1.38675 0.69338,3.46688 0.69338,3.46688l-0.46767,0.62616c-0.76487,1.78272 -1.59378,3.53841 -2.46072,5.27379c0,0 -0.12318,0.24636 -0.36953,0.53464c0.14984,0.26389 0.26478,0.4892 0.34008,0.66114c0.785,1.79262 1.19597,3.86337 0.91202,5.79962c-0.19131,1.30454 -1.71237,2.05164 -2.24057,3.25972c-0.21362,0.48857 -0.37205,0.99616 -0.50361,1.51302c1.23964,2.85506 2.84208,4.47811 1.62756,7.85801c-0.60273,1.67735 -1.64722,2.47366 -2.70784,3.34608c0.49714,1.65472 1.2535,3.1874 1.981,5.09557c0.57664,1.51248 1.81511,3.00042 1.55955,4.5988c-0.96052,6.00758 -6.41917,6.90244 -11.64937,6.66633l0.00887,0.04881l-3.72122,0.67659c-0.16024,0.03223 -0.32601,0.04914 -0.49574,0.04914c-1.38071,0 -2.5,-1.11929 -2.5,-2.5c0,-0.75528 0.33493,-1.43234 0.86438,-1.89075l2.41638,-2.11433c1.62421,-3.87384 3.30536,-8.47689 5.78312,-11.88318l-0.23469,0.07823c-0.2642,0.09499 -0.54902,0.14675 -0.84593,0.14675c-1.38071,0 -2.5,-1.11929 -2.5,-2.5c0,-0.75356 0.3334,-1.42923 0.86074,-1.88759c-0.27231,0.1668 -0.5548,0.31476 -0.85136,0.43585c-5.22187,2.13206 -10.21666,-2.30628 -15.32996,-2.21693c0,0 -2.5,0 -2.5,-2.5c0,-2.5 2.5,-2.5 2.5,-2.5c1.06257,0.01337 2.14268,-0.1527 3.18769,0.04012c0.34112,0.06294 0.71662,0.17387 1.11803,0.31663c-0.28681,-1.22383 0.03618,-3.18805 1.11276,-6.03423c1.15193,-3.04538 5.16308,-3.12134 7.567,-2.87138c1.31994,0.13725 2.70139,0.54301 3.97555,1.17335c0.52183,0.0046 1.04786,0.01213 1.5736,0.01128c-1.05158,-2.6142 -2.83461,-6.39812 -1.06128,-8.05898c2.06506,-1.93408 4.44276,-0.8475 6.38243,0.92275c0.55991,-1.16141 1.09806,-2.33343 1.60533,-3.51845l0.90314,-1.43007c0,0 1.38675,-2.08013 3.46688,-0.69338zM246.82837,179.47048c0.00224,-0.02473 0.00449,-0.04948 0.00674,-0.07422c-0.1157,0.08648 -0.22899,0.17408 -0.3383,0.26379c-0.11872,0.09743 -0.23681,0.19666 -0.35472,0.29679l0.14366,0.1724c0.17503,-0.22511 0.35564,-0.44504 0.54261,-0.65876zM248.83501,191.86868c-1.07116,2.06206 -1.97158,4.32364 -2.86285,6.45034c2.27958,0.04176 5.16692,0.15376 5.0495,-1.97087c-0.04684,-0.84746 -0.81625,-1.4894 -1.18207,-2.25528c-0.26379,-0.55227 -0.62511,-1.34647 -1.00458,-2.2242zM243.14706,172.23941c-0.84185,-0.02456 -1.6606,0.02161 -2.3893,0.40143c-0.84007,0.43786 -0.52793,2.05465 -1.36902,2.49053c-1.45738,0.75527 -2.75083,1.28086 -3.83142,1.52859c2.04686,0.8548 4.1717,1.5361 5.71072,0.77739c0.81399,-0.40129 1.39218,-1.16699 2.12731,-1.69915c0.42389,-0.30685 1.06005,-0.37277 1.34298,-0.81298c0.61693,-0.95983 -0.61515,-2.0669 -1.59126,-2.68581z" stroke-width="0.5"/></g></g></g></g></svg>