<svg version="1.1" xmlns="http://www.w3.org/2000/svg" xmlns:xlink="http://www.w3.org/1999/xlink" width="154.53751" height="117.68235" viewBox="0,0,154.53751,117.68235"><g transform="translate(-190.68361,-118.7451)"><g data-paper-data="{&quot;isPaintingLayer&quot;:true}" fill-rule="nonzero" stroke-miterlimit="10" stroke-dasharray="" stroke-dashoffset="0" style="mix-blend-mode: normal"><g data-paper-data="{&quot;index&quot;:null}" stroke-linejoin="round"><path d="M333.64103,174.56144c-4.8452,0.1207 -4.1343,-1.7855 -11.9626,-2.1502c-5.3611,-0.2497 -15.1703,2.2048 -15.2112,-5.5082c-0.168,-8.2974 8.8657,-6.7559 15.9615,-6.9326c3.2258,-0.4162 6.8009,-1.6794 10.3596,-1.5258c10.4895,0.4524 12.4608,5.4774 12.2989,9.1989c-0.1932,4.441 -6.6011,6.7973 -11.4462,6.9179z" data-paper-data="{&quot;index&quot;:null,&quot;origRot&quot;:0}" fill="#383625" stroke="#383625" stroke-width="0.25" stroke-linecap="butt"/><path d="M321.46774,171.96023c-5.34781,-0.5288 -15.09554,2.02776 -15.00047,-5.05722c-0.18785,-6.86874 8.86564,-6.75588 15.96146,-6.93256c3.22577,-0.41625 6.86085,-0.78494 10.41954,-0.63142c8.03015,0.48991 11.58481,4.11676 11.42291,7.8383c-0.1932,4.44101 -6.20525,6.27216 -11.05039,6.39279c-4.84515,0.12063 -6.8914,-1.12917 -11.75305,-1.6099z" data-paper-data="{&quot;index&quot;:null,&quot;origRot&quot;:0}" fill="#605c3f" stroke="none" stroke-width="0" stroke-linecap="butt"/><path d="M330.77763,162.33894l-2.9195,8.4828l-1.9231,-8.8034l-3.012,8.5954l-1.9814,-8.6623c0,0 0.8364,2.1438 0.699,4.3088c-0.1417,2.234 -1.1183,4.2032 -1.1183,4.2032l3.1483,-8.4596l1.4941,8.614l3.167,-8.5233l2.1974,8.7669l2.7027,-8.3656c0,0 1.0842,2.3223 0.9647,4.1238c-0.1195,1.8015 -1.2177,4.1712 -1.2177,4.1712z" data-paper-data="{&quot;origRot&quot;:0}" fill="none" stroke="#383625" stroke-width="1" stroke-linecap="round"/></g><path d="M210.59034,131.56389c-1.25578,0.61908 -0.87441,-0.74955 -3.38391,-0.55361c-1.71924,0.13423 -3.747,-4.49579 -2.46259,-8.02219c1.9524,-5.09802 25.39819,-5.99948 18.87156,-0.28492c-10.63606,8.26162 -11.76927,8.24164 -13.02505,8.86072z" data-paper-data="{&quot;origPos&quot;:null,&quot;origRot&quot;:0,&quot;index&quot;:null}" fill="#f6dbc4" stroke="none" stroke-width="0" stroke-linecap="butt" stroke-linejoin="miter"/><g data-paper-data="{&quot;origPos&quot;:null,&quot;origRot&quot;:0,&quot;index&quot;:null}" fill="#f6dbc4" stroke="none" stroke-linecap="butt" stroke-linejoin="miter"><path d="M219.84967,119.44035c6.51241,0.28172 12.73877,3.9501 11.64307,7.97379c-1.0957,4.02369 -4.09224,8.74834 -11.02908,6.50069c-7.26944,-2.3554 -12.38136,-5.24472 -14.00281,-10.25917c-0.998,-3.71142 6.87639,-4.49704 13.38882,-4.21531z" data-paper-data="{&quot;origPos&quot;:null,&quot;origRot&quot;:0,&quot;index&quot;:null}" stroke-width="0"/><g data-paper-data="{&quot;origPos&quot;:null,&quot;origRot&quot;:0}" stroke-width="0.5"><path d="M229.27473,130.49961c-0.333,-0.1016 -0.5489,-0.4858 -0.4823,-0.8581c0.0665,-0.3723 0.3904,-0.5917 0.7233,-0.4901c0.333,0.1016 0.5489,0.4858 0.4823,0.8581c-0.0666,0.3723 -0.3904,0.5917 -0.7233,0.4901z" data-paper-data="{&quot;origPos&quot;:null}"/><path d="M209.17143,123.44361c0.0666,-0.3723 0.3904,-0.5917 0.7233,-0.4901c0.333,0.1016 0.5489,0.4858 0.4823,0.8581c-0.0665,0.3723 -0.3904,0.5917 -0.7233,0.4901c-0.3329,-0.1016 -0.5489,-0.4858 -0.4823,-0.8581z" data-paper-data="{&quot;origPos&quot;:null}"/><path d="M213.97773,123.45921c0.0574,-0.3209 0.3366,-0.5101 0.6236,-0.4225c0.287,0.0876 0.4732,0.4188 0.4158,0.7398c-0.0574,0.3209 -0.3366,0.5101 -0.6236,0.4225c-0.287,-0.0876 -0.4732,-0.4188 -0.4158,-0.7397z" data-paper-data="{&quot;origPos&quot;:null}"/><path d="M211.36413,122.07731c-0.333,-0.1016 -0.5489,-0.4858 -0.4824,-0.8581c0.0666,-0.3722 0.3905,-0.5917 0.7234,-0.4901c0.3329,0.1016 0.5488,0.4858 0.4823,0.8581c-0.0666,0.3723 -0.3904,0.5918 -0.7234,0.4901z" data-paper-data="{&quot;origPos&quot;:null}"/><path d="M222.63333,127.55581c0.0396,-0.2215 0.2322,-0.352 0.4303,-0.2916c0.198,0.0605 0.3265,0.289 0.2869,0.5104c-0.0396,0.2215 -0.2323,0.352 -0.4303,0.2915c-0.198,-0.0604 -0.3265,-0.2889 -0.2869,-0.5104z" data-paper-data="{&quot;origPos&quot;:null}"/><path d="M219.18563,121.79111c0.0396,-0.2214 0.2322,-0.3519 0.4303,-0.2915c0.198,0.0604 0.3264,0.289 0.2869,0.5104c-0.0396,0.2215 -0.2323,0.352 -0.4303,0.2915c-0.1981,-0.0604 -0.3265,-0.2889 -0.2869,-0.5104z" data-paper-data="{&quot;origPos&quot;:null}"/><path d="M219.73293,126.97871c0.0395,-0.2215 0.2322,-0.352 0.4302,-0.2916c0.1981,0.0605 0.3265,0.289 0.2869,0.5104c-0.0396,0.2215 -0.2322,0.352 -0.4302,0.2916c-0.1981,-0.0604 -0.3265,-0.289 -0.2869,-0.5104z" data-paper-data="{&quot;origPos&quot;:null}"/><path d="M218.34413,126.36131c-0.198,-0.0604 -0.3265,-0.2889 -0.2869,-0.5104c0.0396,-0.2214 0.2323,-0.352 0.4303,-0.2915c0.198,0.0604 0.3265,0.289 0.2869,0.5104c-0.0396,0.2215 -0.2323,0.352 -0.4303,0.2915z" data-paper-data="{&quot;origPos&quot;:null}"/><path d="M215.95913,124.28611c0.0396,-0.2215 0.2322,-0.352 0.4303,-0.2916c0.198,0.0605 0.3265,0.289 0.2869,0.5105c-0.0396,0.2214 -0.2323,0.3519 -0.4303,0.2915c-0.198,-0.0604 -0.3265,-0.289 -0.2869,-0.5104z" data-paper-data="{&quot;origPos&quot;:null}"/><path d="M212.05953,125.58661c-0.247,-0.0753 -0.4071,-0.3603 -0.3578,-0.6365c0.0494,-0.2761 0.2896,-0.4389 0.5366,-0.3635c0.2469,0.0753 0.4071,0.3603 0.3578,0.6365c-0.0494,0.2762 -0.2896,0.4389 -0.5366,0.3635z" data-paper-data="{&quot;origPos&quot;:null}"/><path d="M216.63953,126.67561c0.0746,-0.4174 0.4376,-0.6633 0.8108,-0.5494c0.3733,0.1139 0.6153,0.5445 0.5407,0.9618c-0.0746,0.4173 -0.4377,0.6633 -0.8108,0.5494c-0.3732,-0.1139 -0.6153,-0.5445 -0.5407,-0.9618z" data-paper-data="{&quot;origPos&quot;:null}"/><path d="M225.17063,126.58531c-0.3559,-0.1086 -0.5868,-0.5194 -0.5156,-0.9174c0.0711,-0.398 0.4174,-0.6326 0.7733,-0.524c0.356,0.1087 0.5868,0.5194 0.5157,0.9174c-0.0712,0.3981 -0.4174,0.6327 -0.7734,0.524z" data-paper-data="{&quot;origPos&quot;:null}"/><path d="M215.26043,125.84841c-0.03,-0.1783 0.0715,-0.3406 0.2267,-0.3624c0.1552,-0.0219 0.3053,0.105 0.3353,0.2833c0.03,0.1783 -0.0715,0.3406 -0.2267,0.3625c-0.1552,0.0218 -0.3053,-0.1051 -0.3353,-0.2834z" data-paper-data="{&quot;origPos&quot;:null,&quot;origRot&quot;:0}"/><path d="M226.03903,124.36151c-0.03,-0.1784 0.0715,-0.3406 0.2266,-0.3625c0.1552,-0.0218 0.3053,0.105 0.3354,0.2834c0.03,0.1783 -0.0715,0.3406 -0.2267,0.3624c-0.1552,0.0218 -0.3053,-0.105 -0.3354,-0.2833z" data-paper-data="{&quot;origPos&quot;:null,&quot;origRot&quot;:0}"/><path d="M227.58233,126.26731c0.0619,-0.3467 0.3635,-0.551 0.6734,-0.4563c0.31,0.0946 0.511,0.4523 0.4491,0.7989c-0.062,0.3466 -0.3635,0.5509 -0.6735,0.4563c-0.31,-0.0946 -0.511,-0.4523 -0.449,-0.7989z" data-paper-data="{&quot;origPos&quot;:null}"/><path d="M224.94093,122.77161c0.2583,0.0789 0.4258,0.377 0.3742,0.6658c-0.0516,0.2889 -0.3029,0.4591 -0.5612,0.3803c-0.2583,-0.0789 -0.4259,-0.3769 -0.3742,-0.6658c0.0516,-0.2888 0.3029,-0.4591 0.5612,-0.3803z" data-paper-data="{&quot;origPos&quot;:null}"/><path d="M219.76773,125.17301c0.0529,-0.2955 0.3099,-0.4696 0.5741,-0.389c0.2642,0.0807 0.4356,0.3855 0.3827,0.681c-0.0528,0.2954 -0.3098,0.4695 -0.574,0.3889c-0.2642,-0.0806 -0.4356,-0.3855 -0.3827,-0.6809z" data-paper-data="{&quot;origPos&quot;:null}"/></g></g><path d="M266.92953,172.62561c-0.0143,0.0098 -0.0126,0.0086 0.0005,-0.0015c-0.0002,0.0005 -0.0003,0.001 -0.0005,0.0015z" data-paper-data="{&quot;origPos&quot;:null,&quot;origRot&quot;:0,&quot;index&quot;:null}" fill="#9383d1" stroke="none" stroke-width="0.5" stroke-linecap="butt" stroke-linejoin="miter"/><g data-paper-data="{&quot;index&quot;:null,&quot;origPos&quot;:null}" fill="#404c73" stroke="none" stroke-width="0" stroke-linecap="butt" stroke-linejoin="miter"><path d="M269.08324,147.53813l45.04518,12.7969c0,0 10.64903,6.55619 1.94101,12.04813c-3.79595,0.50454 -23.34972,3.31261 -23.34972,3.31261l-11.85174,17.47213z" data-paper-data="{&quot;origPos&quot;:null}"/><path d="M317.27654,159.99991c0,0 13.96255,6.34692 0.53119,12.62043c-1.02066,0.11893 -3.32066,0.40017 -6.32858,0.77168c5.94389,-4.80692 6.26091,-8.34661 0.19283,-14.44813z" data-paper-data="{&quot;origPos&quot;:null}"/></g><path d="M326.08029,217.20023c5.09901,-0.50787 8.8732,-5.80154 10.55252,-3.65696c1.15688,1.47741 -6.33084,7.02581 -8.299,9.32557c-22.44353,4.49001 -22.06734,-2.43678 -17.02806,-6.65985c6.23665,-5.18919 5.7635,-2.77932 10.57994,-4.13482c3.59238,-1.01101 3.78605,-1.44382 4.83898,-0.17941c0.65693,0.95722 -2.39362,1.53463 -5.5702,4.35392z" data-paper-data="{&quot;origRot&quot;:0,&quot;index&quot;:null}" fill="#f6dbc4" stroke="none" stroke-width="0" stroke-linecap="butt" stroke-linejoin="miter"/><g data-paper-data="{&quot;index&quot;:null}" fill="#f6dbc4" stroke="none" stroke-linecap="butt" stroke-linejoin="miter"><path d="M318.58576,220.59804c1.60391,3.32706 -14.43819,6.25847 -21.67485,7.51038c-7.23665,1.2519 -10.02758,1.10743 -13.20159,-4.67453c-3.97618,-7.24324 5.8578,-8.34377 13.82883,-7.80899c8.35322,0.56042 18.1259,-1.08749 21.04762,4.97314z" data-paper-data="{&quot;origPos&quot;:null,&quot;origRot&quot;:0,&quot;index&quot;:null}" stroke-width="0"/><g data-paper-data="{&quot;origPos&quot;:null,&quot;origRot&quot;:0}" stroke-width="0.5"><path d="M301.96893,224.37891c0.3996,-0.0511 0.7606,0.2058 0.8064,0.5739c0.0458,0.3681 -0.241,0.708 -0.6406,0.7591c-0.3996,0.0512 -0.7606,-0.2058 -0.8064,-0.5739c-0.0458,-0.3681 0.241,-0.708 0.6406,-0.7591z" data-paper-data="{&quot;origPos&quot;:null}"/><path d="M297.36143,217.82331c0.3445,-0.044 0.6557,0.1775 0.6952,0.4948c0.0394,0.3174 -0.2078,0.6103 -0.5523,0.6544c-0.3445,0.0441 -0.6557,-0.1774 -0.6952,-0.4948c-0.0394,-0.3173 0.2078,-0.6103 0.5523,-0.6544z" data-paper-data="{&quot;origPos&quot;:null}"/><path d="M295.36353,222.99051c0.3996,-0.0511 0.7607,0.2059 0.8064,0.574c0.0458,0.3681 -0.241,0.7079 -0.6406,0.7591c-0.3996,0.0511 -0.7606,-0.2059 -0.8064,-0.574c-0.0458,-0.3681 0.241,-0.7079 0.6406,-0.7591z" data-paper-data="{&quot;origPos&quot;:null}"/><path d="M309.06613,219.29521c-0.0273,-0.219 0.1433,-0.4212 0.381,-0.4516c0.2377,-0.0304 0.4525,0.1225 0.4797,0.3414c0.0273,0.219 -0.1434,0.4211 -0.3811,0.4516c-0.2376,0.0303 -0.4524,-0.1225 -0.4796,-0.3414z" data-paper-data="{&quot;origPos&quot;:null}"/><path d="M300.36053,223.71301c-0.0273,-0.2189 0.1434,-0.4211 0.381,-0.4515c0.2377,-0.0304 0.4525,0.1225 0.4797,0.3414c0.0273,0.219 -0.1434,0.4211 -0.381,0.4515c-0.2377,0.0304 -0.4525,-0.1224 -0.4797,-0.3414z" data-paper-data="{&quot;origPos&quot;:null}"/><path d="M300.26133,225.91251c0.2376,-0.0304 0.4524,0.1224 0.4796,0.3414c0.0273,0.2189 -0.1433,0.4211 -0.381,0.4515c-0.2377,0.0304 -0.4525,-0.1224 -0.4797,-0.3414c-0.0272,-0.2189 0.1434,-0.4211 0.3811,-0.4515z" data-paper-data="{&quot;origPos&quot;:null}"/><path d="M303.92813,219.84331c0.2377,-0.0304 0.4525,0.1225 0.4797,0.3414c0.0272,0.219 -0.1434,0.4211 -0.3811,0.4515c-0.2377,0.0304 -0.4524,-0.1224 -0.4797,-0.3414c-0.0272,-0.2189 0.1434,-0.4211 0.3811,-0.4515z" data-paper-data="{&quot;origPos&quot;:null}"/><path d="M298.22533,225.59171c-0.034,-0.273 0.1788,-0.5251 0.4752,-0.563c0.2964,-0.038 0.5642,0.1526 0.5982,0.4257c0.0339,0.2731 -0.1788,0.5252 -0.4752,0.5631c-0.2964,0.0379 -0.5642,-0.1527 -0.5982,-0.4257z" data-paper-data="{&quot;origPos&quot;:null}"/><path d="M294.93192,225.61661c0.0507,-0.1677 0.238,-0.2688 0.4182,-0.226c0.1803,0.0429 0.2853,0.2135 0.2346,0.3812c-0.0508,0.1676 -0.238,0.2687 -0.4182,0.2259c-0.1803,-0.0429 -0.2853,-0.2135 -0.2346,-0.3811z" data-paper-data="{&quot;origPos&quot;:null,&quot;origRot&quot;:0}"/><path d="M312.23083,222.12571c0.0507,-0.1677 0.2379,-0.2688 0.4182,-0.2259c0.1802,0.0428 0.2853,0.2134 0.2345,0.381c-0.0507,0.1677 -0.2379,0.2688 -0.4181,0.226c-0.1803,-0.0429 -0.2853,-0.2135 -0.2346,-0.3811z" data-paper-data="{&quot;origPos&quot;:null,&quot;origRot&quot;:0}"/><path d="M313.47213,223.61891c0.1803,0.0429 0.2853,0.2135 0.2346,0.3811c-0.0507,0.1677 -0.2379,0.2688 -0.4182,0.2259c-0.1802,-0.0428 -0.2853,-0.2134 -0.2345,-0.3811c0.0507,-0.1676 0.2379,-0.2687 0.4181,-0.2259z" data-paper-data="{&quot;origPos&quot;:null,&quot;origRot&quot;:0}"/><path d="M308.17893,224.14281c0.0507,-0.1676 0.238,-0.2687 0.4182,-0.2259c0.1803,0.0429 0.2853,0.2135 0.2346,0.3811c-0.0507,0.1677 -0.238,0.2688 -0.4182,0.2259c-0.1803,-0.0428 -0.2853,-0.2134 -0.2346,-0.3811z" data-paper-data="{&quot;origPos&quot;:null,&quot;origRot&quot;:0}"/><path d="M314.76273,221.23221c-0.0426,-0.3427 0.2244,-0.6591 0.5964,-0.7067c0.3721,-0.0476 0.7082,0.1916 0.7508,0.5343c0.0427,0.3428 -0.2244,0.6592 -0.5964,0.7068c-0.3721,0.0476 -0.7082,-0.1916 -0.7508,-0.5344z" data-paper-data="{&quot;origPos&quot;:null}"/></g></g><g data-paper-data="{&quot;index&quot;:null}" fill="#556e6e" stroke="none" stroke-linecap="butt" stroke-linejoin="miter"><path d="M267.41053,176.58401c-0.0144,0.0099 -0.0127,0.0086 0.0004,-0.0015c-0.0001,0.0005 -0.0003,0.001 -0.0004,0.0015z" data-paper-data="{&quot;origPos&quot;:null,&quot;origRot&quot;:0,&quot;index&quot;:null}" stroke-width="0.5"/><path d="M248.06613,128.1524c9.22185,5.3047 10.32837,9.31367 17.18698,17.74216c24.21823,5.8077 33.75045,43.31918 24.08307,64.36397c-2.29014,5.35591 -13.10386,1.66964 -21.57446,3.54858c10.97222,-2.99892 24.36696,-14.01685 26.22497,10.28098c0.10525,5.96738 -2.2998,12.04026 -9.07103,12.3315c-5.77441,0.24837 -2.19062,-5.47783 -27.64065,-3.70641c-10.77257,0.10464 -28.87254,1.77562 -43.0801,-48.58609c-4.59243,-17.85431 3.6066,-48.05366 3.6066,-48.05366c0,0 -3.92713,-1.77907 -3.78274,-4.94634c-0.68025,-10.5143 18.61854,-17.42547 21.86714,-7.76467c0,0 2.95837,-0.51472 12.18022,4.78998z" data-paper-data="{&quot;origPos&quot;:null,&quot;index&quot;:null,&quot;origRot&quot;:0}" stroke-width="NaN"/><g data-paper-data="{&quot;origPos&quot;:null,&quot;origRot&quot;:0,&quot;index&quot;:null}" stroke-width="0.5"><path d="M273.44032,186.47051c-0.2819,0 -0.5104,-0.6411 -0.5104,-1.4319c0,-0.7907 0.2285,-1.4318 0.5104,-1.4318c0.2818,0 0.5103,0.6411 0.5103,1.4318c0,0.7908 -0.2285,1.4319 -0.5103,1.4319z" data-paper-data="{&quot;origPos&quot;:null}"/><path d="M273.77203,185.73831c-1.879,0.7473 -5.2373,1.6765 -7.1919,1.8089c0,0 -0.824,0.188 -0.8435,-0.9673c-0.0195,-1.1553 0.9134,-1.2185 0.9134,-1.2185c2.6541,-0.1797 5.9382,-0.778 6.7952,-0.8538c0.2857,-0.0253 0.4464,-0.0374 0.7321,-0.0525c1.1211,-0.0594 0.7963,0.8052 -0.4053,1.2832z" data-paper-data="{&quot;origPos&quot;:null,&quot;origRot&quot;:0}"/></g><g data-paper-data="{&quot;origPos&quot;:null,&quot;origRot&quot;:0,&quot;index&quot;:null}" stroke-width="0.5"><path d="M273.75793,178.28111c-0.2656,0 -0.481,-0.58 -0.481,-1.2955c0,-0.7154 0.2154,-1.2954 0.481,-1.2954c0.2656,0 0.481,0.58 0.481,1.2954c0,0.7155 -0.2154,1.2955 -0.481,1.2955z" data-paper-data="{&quot;origPos&quot;:null}"/><path d="M274.11913,177.75981c-2.0213,-0.1122 -5.3287,-0.296 -7.35,-0.4082c0,0 -0.9647,-0.0536 -0.9469,-1.2515c0.0177,-1.1978 0.9763,-0.7335 0.9763,-0.7335c2.4381,0.1354 4.7716,0.3717 7.2316,0.9497c1.2752,0.2996 2.1102,1.5558 0.089,1.4435z" data-paper-data="{&quot;origPos&quot;:null,&quot;origRot&quot;:0}"/></g><path d="M267.81066,146.99767c0,0 14.44601,3.70181 21.5335,23.84566c7.13627,20.28251 1.28204,34.97889 1.28204,34.97889l-7.73889,-8.20655c0,0 -0.8776,-12.72419 -3.89537,-20.25429c-2.88431,-7.19707 -10.02882,-17.0026 -10.02882,-17.0026z" data-paper-data="{&quot;origPos&quot;:null,&quot;origRot&quot;:0,&quot;index&quot;:null}" stroke-width="0"/></g><g fill="#bfab7c" stroke="none" stroke-linecap="butt" stroke-linejoin="miter"><path d="M232.36558,178.73338c9.1185,2.45239 29.26194,0.42141 33.82035,-7.44912c1.06787,8.90349 0.82355,16.07913 -0.20816,20.55922c-5.22311,8.71883 -23.08438,7.81285 -23.08438,7.81285c0,0 16.79516,1.95192 21.72522,-2.41321c-1.76908,6.27507 -6.6687,18.7556 -16.82502,20.18069c-39.7593,2.02195 -57.45837,-16.80669 -51.90731,-40.19754c-1.16948,-27.24192 27.54023,-33.98783 51.56796,-31.20037c7.39611,0.85802 12.84439,0.03711 14.91678,7.1886c2.15637,12.90331 -25.00645,19.09921 -25.00645,19.09921c0,0 11.63224,-1.53878 19.22014,-4.77266c4.38541,-1.86901 7.56789,-4.69722 7.44251,-9.46264c0.89483,4.21446 2.59683,7.28591 1.08838,11.32162c-3.74877,10.02944 -32.75002,9.33335 -32.75002,9.33335z" stroke-width="0"/><path d="M261.47855,154.37239c2.08013,1.38675 0.69338,3.46688 0.69338,3.46688l-0.46767,0.62616c-0.76487,1.78272 -1.59378,3.53841 -2.46072,5.27379c0,0 -0.12318,0.24636 -0.36953,0.53464c0.14984,0.26389 0.26478,0.4892 0.34008,0.66114c0.785,1.79262 1.19597,3.86337 0.91202,5.79962c-0.19131,1.30454 -1.71237,2.05164 -2.24057,3.25972c-0.21362,0.48857 -0.37205,0.99616 -0.50361,1.51302c1.23964,2.85506 2.84208,4.47811 1.62756,7.85801c-0.60273,1.67735 -1.64722,2.47366 -2.70784,3.34608c0.49714,1.65472 1.2535,3.1874 1.981,5.09557c0.57664,1.51248 1.81511,3.00042 1.55955,4.5988c-0.96052,6.00758 -6.41917,6.90244 -11.64937,6.66633l0.00887,0.04881l-3.72122,0.67659c-0.16024,0.03223 -0.32601,0.04914 -0.49574,0.04914c-1.38071,0 -2.5,-1.11929 -2.5,-2.5c0,-0.75528 0.33493,-1.43234 0.86438,-1.89075l2.41638,-2.11433c1.62421,-3.87384 3.30536,-8.47689 5.78312,-11.88318l-0.23469,0.07823c-0.2642,0.09499 -0.54902,0.14675 -0.84593,0.14675c-1.38071,0 -2.5,-1.11929 -2.5,-2.5c0,-0.75356 0.3334,-1.42923 0.86074,-1.88759c-0.27231,0.1668 -0.5548,0.31476 -0.85136,0.43585c-5.22187,2.13206 -10.21666,-2.30628 -15.32996,-2.21693c0,0 -2.5,0 -2.5,-2.5c0,-2.5 2.5,-2.5 2.5,-2.5c1.06257,0.01337 2.14268,-0.1527 3.18769,0.04012c0.34112,0.06294 0.71662,0.17387 1.11803,0.31663c-0.28681,-1.22383 0.03618,-3.18805 1.11276,-6.03423c1.15193,-3.04538 5.16308,-3.12134 7.567,-2.87138c1.31994,0.13725 2.70139,0.54301 3.97555,1.17335c0.52183,0.0046 1.04786,0.01213 1.5736,0.01128c-1.05158,-2.6142 -2.83461,-6.39812 -1.06128,-8.05898c2.06506,-1.93408 4.44276,-0.8475 6.38243,0.92275c0.55991,-1.16141 1.09806,-2.33343 1.60533,-3.51845l0.90314,-1.43007c0,0 1.38675,-2.08013 3.46688,-0.69338zM250.66487,179.12879c0.00224,-0.02473 0.00449,-0.04948 0.00674,-0.07422c-0.1157,0.08648 -0.22899,0.17408 -0.3383,0.26379c-0.11872,0.09743 -0.23681,0.19666 -0.35472,0.29679l0.14366,0.1724c0.17503,-0.22511 0.35564,-0.44504 0.54261,-0.65876zM252.67151,191.52699c-1.07116,2.06206 -1.97158,4.32364 -2.86285,6.45034c2.27958,0.04176 5.16692,0.15376 5.0495,-1.97087c-0.04684,-0.84746 -0.81625,-1.4894 -1.18207,-2.25528c-0.26379,-0.55227 -0.62511,-1.34647 -1.00458,-2.2242zM246.98356,171.89772c-0.84185,-0.02456 -1.6606,0.02161 -2.3893,0.40143c-0.84007,0.43786 -0.52793,2.05465 -1.36902,2.49053c-1.45738,0.75527 -2.75083,1.28086 -3.83142,1.52859c2.04686,0.8548 4.1717,1.5361 5.71072,0.77739c0.81399,-0.40129 1.39218,-1.16699 2.12731,-1.69915c0.42389,-0.30685 1.06005,-0.37277 1.34298,-0.81298c0.61693,-0.95983 -0.61515,-2.0669 -1.59126,-2.68581z" stroke-width="0.5"/></g><g stroke="none" stroke-linejoin="miter"><path d="M271.97699,200.49199c-4.61809,6.16656 -11.8619,6.74145 -19.27128,8.28178c-5.91594,3.11496 -12.95878,7.79735 -15.34637,5.83117c-2.59073,-2.13346 8.38223,-5.69909 -1.09935,-3.4086c-9.48158,2.29049 -42.88986,6.74284 -42.6692,-29.81948c0.70725,-37.31221 32.86712,-33.01257 40.12367,-30.89204c16.09818,3.35733 3.20838,1.63437 6.3106,-2.7093c2.64275,-0.98577 8.73833,2.27915 13.4864,6.49728c6.36839,1.04597 14.60216,3.38768 18.54707,8.64487c4.14738,5.52702 2.14313,11.59055 3.80471,13.37103c1.78563,1.91341 3.19835,2.88823 3.08277,4.39454c-0.10649,1.7405 -1.91985,3.33904 -2.85082,4.11174c-0.93098,0.77269 0.11376,10.04605 -4.1182,15.69701z" data-paper-data="{&quot;origPos&quot;:null}" fill="#f6dbc4" stroke-width="0" stroke-linecap="butt"/><path d="M269.11658,170.84472c-0.37804,4.28411 -3.08105,4.53214 -3.08105,4.53214c0,0 0.12351,-1.61433 0.38226,-4.7588c0.09038,-3.70737 -3.11362,-7.56381 -3.11362,-7.56381c0,0 6.19045,3.50636 5.81241,7.79047z" data-paper-data="{&quot;origPos&quot;:null,&quot;index&quot;:null}" fill="#ab7b70" stroke-width="0" stroke-linecap="round"/><path d="M265.3018,176.27017c0,0 -3.45399,-0.24681 -4.04904,-2.46877c0.12532,-5.05456 0.03854,-6.50315 -0.72265,-10.97671c-0.2885,-1.69562 -0.61746,-4.31851 -0.61746,-4.31851c0,0 2.63712,2.53086 3.10301,4.79681c0.55451,2.69649 1.16808,8.85778 1.16808,8.85778z" data-paper-data="{&quot;origPos&quot;:null,&quot;index&quot;:null}" fill="#b39474" stroke-width="0.5" stroke-linecap="butt"/><path d="M264.14201,198.26724c0,0 2.99043,-4.0243 2.6994,-7.72134c-0.42867,-3.12584 -0.63944,-4.73111 -0.63944,-4.73111c0,0 2.71248,0.10126 3.32199,4.35861c0.60951,4.25735 -5.38195,8.09383 -5.38195,8.09383z" data-paper-data="{&quot;origPos&quot;:null}" fill="#ab7b70" stroke-width="0" stroke-linecap="round"/><path d="M260.7142,202.7868c0,0 0.02188,-2.60955 0.21813,-4.31821c0.51788,-4.50824 0.69052,-5.98679 0.29151,-11.02723c0.47385,-2.25083 3.90942,-2.68434 3.90942,-2.68434l-0.89386,4.16392c0,0 -0.27898,6.18549 -0.68663,8.90805c-0.40764,2.72267 -2.83856,4.95781 -2.83856,4.95781z" data-paper-data="{&quot;origPos&quot;:null,&quot;index&quot;:null}" fill="#b39474" stroke-width="0.5" stroke-linecap="butt"/><g fill="#bfab7c" stroke-linecap="butt"><path d="M228.15895,179.07507c9.1185,2.45239 29.26194,0.42141 33.82035,-7.44912c1.06787,8.90349 0.82355,16.07913 -0.20816,20.55922c-5.22311,8.71883 -23.08438,7.81285 -23.08438,7.81285c0,0 16.79516,1.95192 21.72522,-2.41321c-1.76908,6.27507 -6.6687,18.7556 -16.82502,20.18069c-39.7593,2.02195 -57.45837,-16.80669 -51.90731,-40.19754c-1.16948,-27.24192 27.54023,-33.98783 51.56796,-31.20037c7.39611,0.85802 12.84439,0.03711 14.91678,7.1886c2.15637,12.90331 -25.00645,19.09921 -25.00645,19.09921c0,0 11.63224,-1.53878 19.22014,-4.77266c4.38541,-1.86901 7.56789,-4.69722 7.44251,-9.46264c0.89483,4.21446 2.59683,7.28591 1.08838,11.32162c-3.74877,10.02944 -32.75002,9.33335 -32.75002,9.33335z" stroke-width="0"/><path d="M257.27191,154.71408c2.08013,1.38675 0.69338,3.46688 0.69338,3.46688l-0.46767,0.62616c-0.76487,1.78272 -1.59378,3.53841 -2.46072,5.27379c0,0 -0.12318,0.24636 -0.36953,0.53464c0.14984,0.26389 0.26478,0.4892 0.34008,0.66114c0.785,1.79262 1.19597,3.86337 0.91202,5.79962c-0.19131,1.30454 -1.71237,2.05164 -2.24057,3.25972c-0.21362,0.48857 -0.37205,0.99616 -0.50361,1.51302c1.23964,2.85506 2.84208,4.47811 1.62756,7.85801c-0.60273,1.67735 -1.64722,2.47366 -2.70784,3.34608c0.49714,1.65472 1.2535,3.1874 1.981,5.09557c0.57664,1.51248 1.81511,3.00042 1.55955,4.5988c-0.96052,6.00758 -6.41917,6.90244 -11.64937,6.66633l0.00887,0.04881l-3.72122,0.67659c-0.16024,0.03223 -0.32601,0.04914 -0.49574,0.04914c-1.38071,0 -2.5,-1.11929 -2.5,-2.5c0,-0.75528 0.33493,-1.43234 0.86438,-1.89075l2.41638,-2.11433c1.62421,-3.87384 3.30536,-8.47689 5.78312,-11.88318l-0.23469,0.07823c-0.2642,0.09499 -0.54902,0.14675 -0.84593,0.14675c-1.38071,0 -2.5,-1.11929 -2.5,-2.5c0,-0.75356 0.3334,-1.42923 0.86074,-1.88759c-0.27231,0.1668 -0.5548,0.31476 -0.85136,0.43585c-5.22187,2.13206 -10.21666,-2.30628 -15.32996,-2.21693c0,0 -2.5,0 -2.5,-2.5c0,-2.5 2.5,-2.5 2.5,-2.5c1.06257,0.01337 2.14268,-0.1527 3.18769,0.04012c0.34112,0.06294 0.71662,0.17387 1.11803,0.31663c-0.28681,-1.22383 0.03618,-3.18805 1.11276,-6.03423c1.15193,-3.04538 5.16308,-3.12134 7.567,-2.87138c1.31994,0.13725 2.70139,0.54301 3.97555,1.17335c0.52183,0.0046 1.04786,0.01213 1.5736,0.01128c-1.05158,-2.6142 -2.83461,-6.39812 -1.06128,-8.05898c2.06506,-1.93408 4.44276,-0.8475 6.38243,0.92275c0.55991,-1.16141 1.09806,-2.33343 1.60533,-3.51845l0.90314,-1.43007c0,0 1.38675,-2.08013 3.46688,-0.69338zM246.45824,179.47048c0.00224,-0.02473 0.00449,-0.04948 0.00674,-0.07422c-0.1157,0.08648 -0.22899,0.17408 -0.3383,0.26379c-0.11872,0.09743 -0.23681,0.19666 -0.35472,0.29679l0.14366,0.1724c0.17503,-0.22511 0.35564,-0.44504 0.54261,-0.65876zM248.46488,191.86868c-1.07116,2.06206 -1.97158,4.32364 -2.86285,6.45034c2.27958,0.04176 5.16692,0.15376 5.0495,-1.97087c-0.04684,-0.84746 -0.81625,-1.4894 -1.18207,-2.25528c-0.26379,-0.55227 -0.62511,-1.34647 -1.00458,-2.2242zM242.77693,172.23941c-0.84185,-0.02456 -1.6606,0.02161 -2.3893,0.40143c-0.84007,0.43786 -0.52793,2.05465 -1.36902,2.49053c-1.45738,0.75527 -2.75083,1.28086 -3.83142,1.52859c2.04686,0.8548 4.1717,1.5361 5.71072,0.77739c0.81399,-0.40129 1.39218,-1.16699 2.12731,-1.69915c0.42389,-0.30685 1.06005,-0.37277 1.34298,-0.81298c0.61693,-0.95983 -0.61515,-2.0669 -1.59126,-2.68581z" stroke-width="0.5"/></g></g></g></g></svg>