<svg version="1.1" xmlns="http://www.w3.org/2000/svg" xmlns:xlink="http://www.w3.org/1999/xlink" width="150.0959" height="117.68235" viewBox="0,0,150.0959,117.68235"><g transform="translate(-190.68361,-124.66314)"><g data-paper-data="{&quot;isPaintingLayer&quot;:true}" fill-rule="nonzero" stroke-miterlimit="10" stroke-dasharray="" stroke-dashoffset="0" style="mix-blend-mode: normal"><g data-paper-data="{&quot;index&quot;:null}" stroke-linejoin="round"><path d="M340.64562,192.74513c0.1619,3.7215 -1.8094,8.7465 -12.2989,9.1989c-3.5587,0.1536 -7.1338,-1.1096 -10.3596,-1.5258c-7.0958,-0.1767 -16.1295,1.3648 -15.9615,-6.9326c0.0409,-7.713 9.8501,-5.2585 15.2112,-5.5082c7.8283,-0.3647 7.1174,-2.2709 11.9626,-2.1502c4.8451,0.1206 11.253,2.4769 11.4462,6.9179z" data-paper-data="{&quot;index&quot;:null,&quot;origRot&quot;:0}" fill="#383625" stroke="#383625" stroke-width="0.25" stroke-linecap="butt"/><path d="M317.02613,188.42845c4.86165,-0.48073 6.9079,-1.73053 11.75305,-1.6099c4.84514,0.12063 10.85719,1.95178 11.05039,6.39279c0.1619,3.72154 -3.39276,7.34839 -11.42291,7.8383c-3.55869,0.15352 -7.19377,-0.21517 -10.41954,-0.63142c-7.09582,-0.17668 -16.14931,-0.06382 -15.96146,-6.93256c-0.09507,-7.08498 9.65266,-4.52842 15.00047,-5.05722z" data-paper-data="{&quot;index&quot;:null,&quot;origRot&quot;:0}" fill="#605c3f" stroke="none" stroke-width="0" stroke-linecap="butt"/><path d="M328.53722,189.59783c0,0 1.0982,2.3697 1.2177,4.1712c0.1195,1.8015 -0.9647,4.1238 -0.9647,4.1238l-2.7027,-8.3656l-2.1974,8.7669l-3.167,-8.5233l-1.4941,8.614l-3.1483,-8.4596c0,0 0.9766,1.9692 1.1183,4.2032c0.1374,2.165 -0.699,4.3088 -0.699,4.3088l1.9814,-8.6623l3.012,8.5954l1.9231,-8.8034l2.9195,8.4828z" data-paper-data="{&quot;origRot&quot;:0}" fill="none" stroke="#383625" stroke-width="1" stroke-linecap="round"/></g><path d="M210.59036,225.14234c1.25578,0.61908 2.38899,0.5991 13.02505,8.86072c6.52663,5.71456 -16.91916,4.8131 -18.87156,-0.28492c-1.28441,-3.5264 0.74335,-8.15642 2.46259,-8.02219c2.5095,0.19594 2.12813,-1.17269 3.38391,-0.55361z" data-paper-data="{&quot;origPos&quot;:null,&quot;origRot&quot;:0,&quot;index&quot;:null}" fill="#f6dbc4" stroke="none" stroke-width="0" stroke-linecap="butt" stroke-linejoin="miter"/><g data-paper-data="{&quot;origRot&quot;:0,&quot;index&quot;:null}" fill="#f6dbc4" stroke="none" stroke-linecap="butt" stroke-linejoin="miter"><path d="M206.83099,233.05057c1.62145,-5.01445 6.73337,-7.90377 14.00281,-10.25917c6.93684,-2.24765 9.93338,2.477 11.02908,6.50069c1.0957,4.02369 -5.13066,7.69207 -11.64307,7.97379c-6.51243,0.28173 -14.38682,-0.50389 -13.38882,-4.21531z" data-paper-data="{&quot;origPos&quot;:null,&quot;origRot&quot;:0,&quot;index&quot;:null}" stroke-width="0"/><g data-paper-data="{&quot;origPos&quot;:null,&quot;origRot&quot;:0}" stroke-width="0.5"><path d="M229.64482,226.20665c0.333,-0.1016 0.6568,0.1178 0.7233,0.4901c0.0666,0.3723 -0.1493,0.7565 -0.4823,0.8581c-0.3329,0.1016 -0.6567,-0.1179 -0.7233,-0.4901c-0.0666,-0.3723 0.1494,-0.7565 0.4823,-0.8581z" data-paper-data="{&quot;origPos&quot;:null}"/><path d="M210.02382,232.40455c0.333,-0.1016 0.6568,0.1178 0.7234,0.4901c0.0666,0.3723 -0.1494,0.7565 -0.4823,0.8581c-0.333,0.1016 -0.6568,-0.1178 -0.7234,-0.4901c-0.0665,-0.3723 0.1494,-0.7565 0.4823,-0.8581z" data-paper-data="{&quot;origPos&quot;:null}"/><path d="M214.34792,233.24695c-0.0574,-0.3209 0.1287,-0.6521 0.4158,-0.7397c0.287,-0.0876 0.5662,0.1015 0.6235,0.4225c0.0574,0.321 -0.1287,0.6521 -0.4157,0.7397c-0.287,0.0876 -0.5662,-0.1015 -0.6236,-0.4225z" data-paper-data="{&quot;origPos&quot;:null}"/><path d="M211.73422,234.62885c0.3329,-0.1016 0.6568,0.1179 0.7233,0.4902c0.0666,0.3722 -0.1493,0.7564 -0.4823,0.8581c-0.3329,0.1016 -0.6568,-0.1179 -0.7233,-0.4902c-0.0666,-0.3723 0.1494,-0.7564 0.4823,-0.858z" data-paper-data="{&quot;origPos&quot;:null}"/><path d="M223.00342,229.15045c-0.0395,-0.2214 0.0889,-0.4499 0.2869,-0.5104c0.1981,-0.0604 0.3907,0.0701 0.4303,0.2915c0.0396,0.2215 -0.0889,0.45 -0.2869,0.5104c-0.198,0.0605 -0.3907,-0.07 -0.4303,-0.2915z" data-paper-data="{&quot;origPos&quot;:null}"/><path d="M219.55572,234.91505c-0.0396,-0.2214 0.0889,-0.45 0.2869,-0.5104c0.1981,-0.0604 0.3907,0.0701 0.4303,0.2915c0.0396,0.2215 -0.0889,0.45 -0.2869,0.5105c-0.198,0.0604 -0.3907,-0.0701 -0.4303,-0.2916z" data-paper-data="{&quot;origPos&quot;:null}"/><path d="M220.10302,229.72755c-0.0396,-0.2215 0.0889,-0.45 0.2869,-0.5104c0.198,-0.0605 0.3907,0.0701 0.4303,0.2915c0.0396,0.2215 -0.0889,0.45 -0.2869,0.5104c-0.198,0.0605 -0.3907,-0.07 -0.4303,-0.2915z" data-paper-data="{&quot;origPos&quot;:null}"/><path d="M218.71422,230.34485c0.1981,-0.0604 0.3907,0.0701 0.4303,0.2916c0.0396,0.2214 -0.0888,0.4499 -0.2869,0.5104c-0.198,0.0604 -0.3907,-0.0701 -0.4303,-0.2915c-0.0395,-0.2215 0.0889,-0.45 0.2869,-0.5105z" data-paper-data="{&quot;origPos&quot;:null}"/><path d="M216.32932,232.42015c-0.0396,-0.2215 0.0888,-0.45 0.2868,-0.5104c0.1981,-0.0605 0.3907,0.0701 0.4303,0.2915c0.0396,0.2215 -0.0888,0.45 -0.2869,0.5104c-0.198,0.0605 -0.3907,-0.07 -0.4302,-0.2915z" data-paper-data="{&quot;origPos&quot;:null}"/><path d="M212.42962,231.11955c0.247,-0.0754 0.4872,0.0874 0.5366,0.3636c0.0494,0.2761 -0.1108,0.5611 -0.3578,0.6365c-0.2469,0.0754 -0.4871,-0.0874 -0.5365,-0.3636c-0.0494,-0.2761 0.1108,-0.5611 0.3577,-0.6365z" data-paper-data="{&quot;origPos&quot;:null}"/><path d="M217.00972,230.03065c-0.0747,-0.4173 0.1674,-0.8479 0.5406,-0.9618c0.3732,-0.1139 0.7362,0.132 0.8108,0.5494c0.0747,0.4173 -0.1674,0.8479 -0.5406,0.9618c-0.3732,0.1139 -0.7362,-0.1321 -0.8108,-0.5494z" data-paper-data="{&quot;origPos&quot;:null}"/><path d="M225.54082,230.12095c0.3559,-0.1087 0.7022,0.1259 0.7733,0.524c0.0712,0.398 -0.1597,0.8087 -0.5156,0.9173c-0.356,0.1087 -0.7022,-0.1259 -0.7734,-0.5239c-0.0711,-0.3981 0.1597,-0.8088 0.5157,-0.9174z" data-paper-data="{&quot;origPos&quot;:null}"/><path d="M215.63062,230.85785c0.03,-0.1784 0.1801,-0.3052 0.3353,-0.2834c0.1552,0.0219 0.2567,0.1841 0.2266,0.3625c-0.03,0.1783 -0.1801,0.3051 -0.3353,0.2833c-0.1552,-0.0219 -0.2566,-0.1841 -0.2266,-0.3624z" data-paper-data="{&quot;origPos&quot;:null,&quot;origRot&quot;:0}"/><path d="M226.40912,232.34475c0.03,-0.1783 0.1801,-0.3052 0.3353,-0.2833c0.1552,0.0218 0.2567,0.1841 0.2267,0.3624c-0.03,0.1783 -0.1801,0.3052 -0.3353,0.2833c-0.1552,-0.0218 -0.2567,-0.1841 -0.2267,-0.3624z" data-paper-data="{&quot;origPos&quot;:null,&quot;origRot&quot;:0}"/><path d="M228.40152,229.64005c0.3099,-0.0946 0.6114,0.1097 0.6734,0.4563c0.062,0.3466 -0.1391,0.7043 -0.449,0.7989c-0.31,0.0946 -0.6115,-0.1097 -0.6735,-0.4563c-0.062,-0.3466 0.1391,-0.7043 0.4491,-0.7989z" data-paper-data="{&quot;origPos&quot;:null}"/><path d="M224.74982,233.55435c-0.0516,-0.2889 0.1159,-0.587 0.3742,-0.6658c0.2584,-0.0788 0.5096,0.0914 0.5612,0.3803c0.0517,0.2888 -0.1158,0.5869 -0.3742,0.6657c-0.2583,0.0788 -0.5095,-0.0914 -0.5612,-0.3802z" data-paper-data="{&quot;origPos&quot;:null}"/><path d="M220.13792,231.53325c-0.0528,-0.2954 0.1185,-0.6003 0.3827,-0.6809c0.2643,-0.0807 0.5213,0.0935 0.5741,0.3889c0.0528,0.2954 -0.1186,0.6003 -0.3828,0.681c-0.2642,0.0806 -0.5212,-0.0935 -0.574,-0.389z" data-paper-data="{&quot;origPos&quot;:null}"/></g></g><path d="M266.93009,188.08215c-0.0132,-0.0101 -0.0148,-0.0114 -0.0005,-0.0015c0.0002,0.0005 0.0003,0.001 0.0005,0.0015z" data-paper-data="{&quot;origPos&quot;:null,&quot;origRot&quot;:0,&quot;index&quot;:null}" fill="#9383d1" stroke="none" stroke-width="0.5" stroke-linecap="butt" stroke-linejoin="miter"/><g data-paper-data="{&quot;index&quot;:null}" fill="#404c73" stroke="none" stroke-width="0" stroke-linecap="butt" stroke-linejoin="miter"><path d="M277.16663,167.47256l11.85174,17.47213c0,0 19.55377,2.80807 23.34972,3.31261c8.70802,5.49194 -1.94101,12.04813 -1.94101,12.04813l-45.04518,12.7969z" data-paper-data="{&quot;origPos&quot;:null}"/><path d="M307.97064,201.69657c6.06808,-6.10152 5.75106,-9.64121 -0.19283,-14.44813c3.00792,0.37151 5.30792,0.65275 6.32858,0.77168c13.43136,6.27351 -0.53119,12.62043 -0.53119,12.62043z" data-paper-data="{&quot;origPos&quot;:null}"/></g><path d="M315.23232,144.30518c3.17658,2.81929 6.22713,3.3967 5.5702,4.35392c-1.05293,1.26441 -1.2466,0.8316 -4.83898,-0.17941c-4.81644,-1.3555 -4.34329,1.05437 -10.57994,-4.13482c-5.03928,-4.22307 -5.41547,-11.14986 17.02806,-6.65985c1.96816,2.29976 9.45588,7.84816 8.299,9.32557c-1.67932,2.14458 -5.45351,-3.14909 -10.55252,-3.65696z" data-paper-data="{&quot;origRot&quot;:0,&quot;index&quot;:null}" fill="#f6dbc4" stroke="none" stroke-width="0" stroke-linecap="butt" stroke-linejoin="miter"/><g fill="#f6dbc4" stroke="none" stroke-linecap="butt" stroke-linejoin="miter"><path d="M312.6636,139.95582c-2.92172,6.06063 -12.6944,4.41272 -21.04762,4.97314c-7.97103,0.53478 -17.80501,-0.56575 -13.82883,-7.80899c3.17401,-5.78196 5.96494,-5.92643 13.20159,-4.67453c7.23666,1.25191 23.27876,4.18332 21.67485,7.51038z" data-paper-data="{&quot;origPos&quot;:null,&quot;origRot&quot;:0,&quot;index&quot;:null}" stroke-width="0"/><g data-paper-data="{&quot;origPos&quot;:null,&quot;origRot&quot;:0}" stroke-width="0.5"><path d="M295.40613,135.41583c0.0458,-0.3681 0.4068,-0.625 0.8065,-0.5739c0.3995,0.0511 0.6863,0.391 0.6406,0.7591c-0.0458,0.3681 -0.4068,0.625 -0.8065,0.5739c-0.3995,-0.0511 -0.6863,-0.391 -0.6406,-0.7591z" data-paper-data="{&quot;origPos&quot;:null}"/><path d="M291.43923,142.73055c-0.3444,-0.0441 -0.5917,-0.3371 -0.5522,-0.6544c0.0395,-0.3174 0.3507,-0.5389 0.6952,-0.4948c0.3444,0.0441 0.5917,0.3371 0.5522,0.6544c-0.0395,0.3173 -0.3507,0.5389 -0.6951,0.4948z" data-paper-data="{&quot;origPos&quot;:null}"/><path d="M289.44143,137.56335c-0.3996,-0.0512 -0.6864,-0.391 -0.6406,-0.7591c0.0457,-0.3681 0.4068,-0.6251 0.8064,-0.574c0.3996,0.0512 0.6864,0.391 0.6406,0.7591c-0.0458,0.3681 -0.4068,0.6251 -0.8064,0.574z" data-paper-data="{&quot;origPos&quot;:null}"/><path d="M303.14393,141.25865c0.0273,-0.2189 0.242,-0.3718 0.4797,-0.3413c0.2377,0.0304 0.4083,0.2325 0.3811,0.4515c-0.0273,0.2189 -0.242,0.3718 -0.4797,0.3414c-0.2377,-0.0304 -0.4083,-0.2326 -0.3811,-0.4516z" data-paper-data="{&quot;origPos&quot;:null}"/><path d="M294.43833,136.84085c0.0273,-0.219 0.242,-0.3718 0.4797,-0.3414c0.2377,0.0304 0.4083,0.2325 0.3811,0.4515c-0.0273,0.219 -0.242,0.3718 -0.4797,0.3414c-0.2377,-0.0304 -0.4083,-0.2326 -0.3811,-0.4515z" data-paper-data="{&quot;origPos&quot;:null}"/><path d="M294.33913,134.64135c-0.2377,-0.0304 -0.4083,-0.2326 -0.381,-0.4515c0.0272,-0.219 0.242,-0.3718 0.4796,-0.3414c0.2377,0.0304 0.4083,0.2326 0.3811,0.4515c-0.0272,0.219 -0.242,0.3719 -0.4797,0.3414z" data-paper-data="{&quot;origPos&quot;:null}"/><path d="M298.00591,140.71055c-0.2376,-0.0304 -0.4083,-0.2326 -0.381,-0.4515c0.0272,-0.219 0.242,-0.3718 0.4797,-0.3414c0.2376,0.0304 0.4083,0.2325 0.381,0.4515c-0.0272,0.219 -0.242,0.3718 -0.4797,0.3414z" data-paper-data="{&quot;origPos&quot;:null}"/><path d="M295.40753,139.49745c-0.2377,-0.0304 -0.4083,-0.2326 -0.3811,-0.4515c0.0273,-0.219 0.242,-0.3718 0.4797,-0.3414c0.2377,0.0304 0.4083,0.2326 0.3811,0.4515c-0.0273,0.219 -0.242,0.3718 -0.4797,0.3414z" data-paper-data="{&quot;origPos&quot;:null}"/><path d="M292.30313,134.96203c0.034,-0.273 0.3018,-0.4636 0.5982,-0.4257c0.2964,0.0379 0.5092,0.29 0.4752,0.5631c-0.034,0.2731 -0.3018,0.4637 -0.5982,0.4257c-0.2964,-0.0379 -0.5091,-0.29 -0.4752,-0.563z" data-paper-data="{&quot;origPos&quot;:null}"/><path d="M291.66053,138.72785c-0.4479,-0.0573 -0.7694,-0.4383 -0.7181,-0.8509c0.0513,-0.4126 0.456,-0.7007 0.9039,-0.6433c0.4479,0.0573 0.7694,0.4382 0.7181,0.8508c-0.0513,0.4127 -0.456,0.7007 -0.9039,0.6434z" data-paper-data="{&quot;origPos&quot;:null}"/><path d="M299.63172,138.68155c0.0489,-0.3936 0.4349,-0.6683 0.8621,-0.6136c0.4272,0.0546 0.7339,0.418 0.6849,0.8115c-0.0489,0.3936 -0.4349,0.6683 -0.8621,0.6136c-0.4272,-0.0547 -0.7339,-0.418 -0.6849,-0.8115z" data-paper-data="{&quot;origPos&quot;:null}"/><path d="M289.00983,134.93723c-0.0507,-0.1676 0.0543,-0.3382 0.2345,-0.3811c0.1803,-0.0428 0.3675,0.0583 0.4182,0.2259c0.0507,0.1677 -0.0543,0.3383 -0.2345,0.3812c-0.1803,0.0428 -0.3675,-0.0583 -0.4182,-0.226z" data-paper-data="{&quot;origPos&quot;:null,&quot;origRot&quot;:0}"/><path d="M306.30873,138.42825c-0.0508,-0.1677 0.0543,-0.3383 0.2345,-0.3812c0.1803,-0.0428 0.3675,0.0583 0.4182,0.226c0.0507,0.1676 -0.0543,0.3382 -0.2346,0.3811c-0.1802,0.0428 -0.3674,-0.0583 -0.4181,-0.2259z" data-paper-data="{&quot;origPos&quot;:null,&quot;origRot&quot;:0}"/><path d="M307.55003,136.93495c-0.1803,0.0428 -0.3675,-0.0583 -0.4182,-0.2259c-0.0507,-0.1677 0.0543,-0.3383 0.2345,-0.3811c0.1803,-0.0429 0.3675,0.0583 0.4182,0.2259c0.0508,0.1676 -0.0543,0.3382 -0.2345,0.3811z" data-paper-data="{&quot;origPos&quot;:null,&quot;origRot&quot;:0}"/><path d="M302.49132,136.02995c0.1803,-0.0429 0.3675,0.0582 0.4182,0.2259c0.0508,0.1676 -0.0543,0.3382 -0.2345,0.3811c-0.1803,0.0428 -0.3675,-0.0583 -0.4182,-0.2259c-0.0507,-0.1677 0.0543,-0.3383 0.2345,-0.3811z" data-paper-data="{&quot;origPos&quot;:null,&quot;origRot&quot;:0}"/><path d="M308.84052,139.32163c0.0427,-0.3428 0.3788,-0.582 0.7508,-0.5344c0.3721,0.0476 0.6391,0.364 0.5965,0.7068c-0.0426,0.3427 -0.3788,0.5819 -0.7508,0.5343c-0.3721,-0.0476 -0.6391,-0.364 -0.5965,-0.7067z" data-paper-data="{&quot;origPos&quot;:null}"/><path d="M290.98753,135.83405c0.0363,-0.2921 0.3228,-0.496 0.6399,-0.4554c0.3172,0.0406 0.5448,0.3103 0.5084,0.6024c-0.0363,0.2921 -0.3228,0.496 -0.6399,0.4554c-0.3171,-0.0405 -0.5447,-0.3102 -0.5084,-0.6023z" data-paper-data="{&quot;origPos&quot;:null}"/></g></g><g fill="#9383d1" stroke="none" stroke-width="0" stroke-linecap="butt" stroke-linejoin="miter"><path d="M237.8811,194.81178c0,0 0.7467,7.49481 2.99085,13.64286c1.77314,4.85769 6.02901,9.12964 6.02901,9.12964c0,0 -9.63042,4.93937 -10.59475,1.08441c-1.59282,-6.36744 1.5749,-23.85691 1.5749,-23.85691z" data-paper-data="{&quot;origPos&quot;:null,&quot;origRot&quot;:0,&quot;index&quot;:null}"/><path d="M236.16303,144.58899c0.96433,-3.85496 10.59475,1.08441 10.59475,1.08441c0,0 -4.45432,5.26127 -5.94113,9.18947c-2.2941,6.06111 -3.07873,13.58303 -3.07873,13.58303c0,0 -3.16771,-17.48948 -1.5749,-23.85691z" data-paper-data="{&quot;origPos&quot;:null,&quot;index&quot;:null,&quot;origRot&quot;:0}"/></g><path d="M266.92955,172.62561c-0.0143,0.0098 -0.0126,0.0086 0.0005,-0.0015c-0.0002,0.0005 -0.0003,0.001 -0.0005,0.0015z" data-paper-data="{&quot;origPos&quot;:null,&quot;origRot&quot;:0,&quot;index&quot;:null}" fill="#9383d1" stroke="none" stroke-width="0.5" stroke-linecap="butt" stroke-linejoin="miter"/><g data-paper-data="{&quot;index&quot;:null}" fill="#556d6e" stroke="none" stroke-linecap="butt" stroke-linejoin="miter"><path d="M264.60977,184.50809c-0.0125,-0.0101 -0.01413,-0.0114 -0.00038,-0.0015c0.0001,0.0005 0.00029,0.001 0.00038,0.0015z" data-paper-data="{&quot;origPos&quot;:null,&quot;origRot&quot;:0,&quot;index&quot;:null}" stroke-width="0.5"/><path d="M234.52191,237.72818c-3.1005,9.6608 -21.51951,2.74963 -20.87027,-7.76467c-0.13781,-3.16727 3.61029,-4.94634 3.61029,-4.94634c0,0 -7.82526,-30.19935 -3.44218,-48.05366c13.55987,-50.36171 30.83471,-48.69073 41.11619,-48.58609c24.28983,1.77142 20.86941,-3.95478 26.38058,-3.70641c6.46255,0.29124 8.75796,6.36412 8.65751,12.3315c-1.77331,24.29783 -14.55742,13.2799 -25.02944,10.28098c8.08445,1.87894 18.4052,-1.80733 20.59094,3.54858c9.22667,21.04479 0.129,58.55627 -22.98518,64.36397c-6.54594,8.42849 -7.60202,12.43746 -16.40347,17.74216c-8.80145,5.3047 -11.62496,4.78998 -11.62496,4.78998z" data-paper-data="{&quot;origPos&quot;:null,&quot;index&quot;:null,&quot;origRot&quot;:0}" stroke-width="NaN"/><g data-paper-data="{&quot;origPos&quot;:null,&quot;origRot&quot;:0,&quot;index&quot;:null}" stroke-width="0.5"><path d="M270.85135,176.05199c0,0.7907 -0.21808,1.4318 -0.48704,1.4318c-0.26905,0 -0.48713,-0.6411 -0.48713,-1.4318c0,-0.7908 0.21808,-1.4319 0.48713,-1.4319c0.26895,0 0.48704,0.6411 0.48704,1.4319z" data-paper-data="{&quot;origPos&quot;:null}"/><path d="M271.06773,176.63549c-0.27268,-0.0151 -0.42605,-0.0272 -0.69873,-0.0525c-0.81793,-0.0758 -3.95232,-0.6741 -6.48542,-0.8538c0,0 -0.89037,-0.0632 -0.87176,-1.2185c0.01861,-1.1553 0.80505,-0.9673 0.80505,-0.9673c1.86549,0.1324 5.0707,1.0616 6.86404,1.8089c1.14682,0.478 1.45682,1.3426 0.38682,1.2832z" data-paper-data="{&quot;origPos&quot;:null,&quot;origRot&quot;:0}"/></g><g data-paper-data="{&quot;origPos&quot;:null,&quot;origRot&quot;:0,&quot;index&quot;:null}" stroke-width="0.5"><path d="M271.12652,184.10499c0,0.7154 -0.20558,1.2954 -0.45907,1.2954c-0.25349,0 -0.45907,-0.58 -0.45907,-1.2954c0,-0.7155 0.20558,-1.2955 0.45907,-1.2955c0.25349,0 0.45907,0.58 0.45907,1.2955z" data-paper-data="{&quot;origPos&quot;:null}"/><path d="M270.92724,184.77429c-2.34785,0.578 -4.57498,0.8143 -6.90193,0.9497c0,0 -0.9149,0.4643 -0.93179,-0.7335c-0.01699,-1.1979 0.90373,-1.2515 0.90373,-1.2515c1.92915,-0.1122 5.08578,-0.296 7.01493,-0.4082c1.92906,-0.1123 1.13212,1.1439 -0.08494,1.4435z" data-paper-data="{&quot;origPos&quot;:null,&quot;origRot&quot;:0}"/></g><path d="M266.0912,200.73182c0,0 6.81881,-9.80553 9.57163,-17.0026c2.8802,-7.5301 3.71779,-20.25429 3.71779,-20.25429l7.38609,-8.20655c0,0 5.58735,14.69638 -1.2236,34.97889c-6.76439,20.14385 -20.55184,23.84566 -20.55184,23.84566z" data-paper-data="{&quot;origPos&quot;:null,&quot;origRot&quot;:0,&quot;index&quot;:null}" stroke-width="0"/></g><g stroke="none" stroke-linejoin="miter"><path d="M271.97699,200.49199c-4.61809,6.16656 -11.8619,6.74145 -19.27128,8.28178c-5.91594,3.11496 -12.95878,7.79735 -15.34637,5.83117c-2.59073,-2.13346 8.38223,-5.69909 -1.09935,-3.4086c-9.48158,2.29049 -42.88986,6.74284 -42.6692,-29.81948c0.70725,-37.31221 32.86712,-33.01257 40.12367,-30.89204c16.09818,3.35733 3.20838,1.63437 6.3106,-2.7093c2.64275,-0.98577 8.73833,2.27915 13.4864,6.49728c6.36839,1.04597 14.60216,3.38768 18.54707,8.64487c4.14738,5.52702 2.14313,11.59055 3.80471,13.37103c1.78563,1.91341 3.19835,2.88823 3.08277,4.39454c-0.10649,1.7405 -1.91985,3.33904 -2.85082,4.11174c-0.93098,0.77269 0.11376,10.04605 -4.1182,15.69701z" data-paper-data="{&quot;origPos&quot;:null}" fill="#f6dbc4" stroke-width="0" stroke-linecap="butt"/><path d="M269.11658,170.84472c-0.37804,4.28411 -3.08105,4.53214 -3.08105,4.53214c0,0 0.12351,-1.61433 0.38226,-4.7588c0.09038,-3.70737 -3.11362,-7.56381 -3.11362,-7.56381c0,0 6.19045,3.50636 5.81241,7.79047z" data-paper-data="{&quot;origPos&quot;:null,&quot;index&quot;:null}" fill="#ab7b70" stroke-width="0" stroke-linecap="round"/><path d="M265.3018,176.27017c0,0 -3.45399,-0.24681 -4.04904,-2.46877c0.12532,-5.05456 0.03854,-6.50315 -0.72265,-10.97671c-0.2885,-1.69562 -0.61746,-4.31851 -0.61746,-4.31851c0,0 2.63712,2.53086 3.10301,4.79681c0.55451,2.69649 1.16808,8.85778 1.16808,8.85778z" data-paper-data="{&quot;origPos&quot;:null,&quot;index&quot;:null}" fill="#b39474" stroke-width="0.5" stroke-linecap="butt"/><path d="M264.14201,198.26724c0,0 2.99043,-4.0243 2.6994,-7.72134c-0.42867,-3.12584 -0.63944,-4.73111 -0.63944,-4.73111c0,0 2.71248,0.10126 3.32199,4.35861c0.60951,4.25735 -5.38195,8.09383 -5.38195,8.09383z" data-paper-data="{&quot;origPos&quot;:null}" fill="#ab7b70" stroke-width="0" stroke-linecap="round"/><path d="M260.7142,202.7868c0,0 0.02188,-2.60955 0.21813,-4.31821c0.51788,-4.50824 0.69052,-5.98679 0.29151,-11.02723c0.47385,-2.25083 3.90942,-2.68434 3.90942,-2.68434l-0.89386,4.16392c0,0 -0.27898,6.18549 -0.68663,8.90805c-0.40764,2.72267 -2.83856,4.95781 -2.83856,4.95781z" data-paper-data="{&quot;origPos&quot;:null,&quot;index&quot;:null}" fill="#b39474" stroke-width="0.5" stroke-linecap="butt"/><g fill="#bfab7c" stroke-linecap="butt"><path d="M228.15895,179.07507c9.1185,2.45239 29.26194,0.42141 33.82035,-7.44912c1.06787,8.90349 0.82355,16.07913 -0.20816,20.55922c-5.22311,8.71883 -23.08438,7.81285 -23.08438,7.81285c0,0 16.79516,1.95192 21.72522,-2.41321c-1.76908,6.27507 -6.6687,18.7556 -16.82502,20.18069c-39.7593,2.02195 -57.45837,-16.80669 -51.90731,-40.19754c-1.16948,-27.24192 27.54023,-33.98783 51.56796,-31.20037c7.39611,0.85802 12.84439,0.03711 14.91678,7.1886c2.15637,12.90331 -25.00645,19.09921 -25.00645,19.09921c0,0 11.63224,-1.53878 19.22014,-4.77266c4.38541,-1.86901 7.56789,-4.69722 7.44251,-9.46264c0.89483,4.21446 2.59683,7.28591 1.08838,11.32162c-3.74877,10.02944 -32.75002,9.33335 -32.75002,9.33335z" stroke-width="0"/><path d="M257.27192,154.71408c2.08013,1.38675 0.69338,3.46688 0.69338,3.46688l-0.46767,0.62616c-0.76487,1.78272 -1.59378,3.53841 -2.46072,5.27379c0,0 -0.12318,0.24636 -0.36953,0.53464c0.14984,0.26389 0.26478,0.4892 0.34008,0.66114c0.785,1.79262 1.19597,3.86337 0.91202,5.79962c-0.19131,1.30454 -1.71237,2.05164 -2.24057,3.25972c-0.21362,0.48857 -0.37205,0.99616 -0.50361,1.51302c1.23964,2.85506 2.84208,4.47811 1.62756,7.85801c-0.60273,1.67735 -1.64722,2.47366 -2.70784,3.34608c0.49714,1.65472 1.2535,3.1874 1.981,5.09557c0.57664,1.51248 1.81511,3.00042 1.55955,4.5988c-0.96052,6.00758 -6.41917,6.90244 -11.64937,6.66633l0.00887,0.04881l-3.72122,0.67659c-0.16024,0.03223 -0.32601,0.04914 -0.49574,0.04914c-1.38071,0 -2.5,-1.11929 -2.5,-2.5c0,-0.75528 0.33493,-1.43234 0.86438,-1.89075l2.41638,-2.11433c1.62421,-3.87384 3.30536,-8.47689 5.78312,-11.88318l-0.23469,0.07823c-0.2642,0.09499 -0.54902,0.14675 -0.84593,0.14675c-1.38071,0 -2.5,-1.11929 -2.5,-2.5c0,-0.75356 0.3334,-1.42923 0.86074,-1.88759c-0.27231,0.1668 -0.5548,0.31476 -0.85136,0.43585c-5.22187,2.13206 -10.21666,-2.30628 -15.32996,-2.21693c0,0 -2.5,0 -2.5,-2.5c0,-2.5 2.5,-2.5 2.5,-2.5c1.06257,0.01337 2.14268,-0.1527 3.18769,0.04012c0.34112,0.06294 0.71662,0.17387 1.11803,0.31663c-0.28681,-1.22383 0.03618,-3.18805 1.11276,-6.03423c1.15193,-3.04538 5.16308,-3.12134 7.567,-2.87138c1.31994,0.13725 2.70139,0.54301 3.97555,1.17335c0.52183,0.0046 1.04786,0.01213 1.5736,0.01128c-1.05158,-2.6142 -2.83461,-6.39812 -1.06128,-8.05898c2.06506,-1.93408 4.44276,-0.8475 6.38243,0.92275c0.55991,-1.16141 1.09806,-2.33343 1.60533,-3.51845l0.90314,-1.43007c0,0 1.38675,-2.08013 3.46688,-0.69338zM246.45824,179.47048c0.00224,-0.02473 0.00449,-0.04948 0.00674,-0.07422c-0.1157,0.08648 -0.22899,0.17408 -0.3383,0.26379c-0.11872,0.09743 -0.23681,0.19666 -0.35472,0.29679l0.14366,0.1724c0.17503,-0.22511 0.35564,-0.44504 0.54261,-0.65876zM248.46488,191.86868c-1.07116,2.06206 -1.97158,4.32364 -2.86285,6.45034c2.27958,0.04176 5.16692,0.15376 5.0495,-1.97087c-0.04684,-0.84746 -0.81625,-1.4894 -1.18207,-2.25528c-0.26379,-0.55227 -0.62511,-1.34647 -1.00458,-2.2242zM242.77693,172.23941c-0.84185,-0.02456 -1.6606,0.02161 -2.3893,0.40143c-0.84007,0.43786 -0.52793,2.05465 -1.36902,2.49053c-1.45738,0.75527 -2.75083,1.28086 -3.83142,1.52859c2.04686,0.8548 4.1717,1.5361 5.71072,0.77739c0.81399,-0.40129 1.39218,-1.16699 2.12731,-1.69915c0.42389,-0.30685 1.06005,-0.37277 1.34298,-0.81298c0.61693,-0.95983 -0.61515,-2.0669 -1.59126,-2.68581z" stroke-width="0.5"/></g></g></g></g></svg>