<svg version="1.1" xmlns="http://www.w3.org/2000/svg" xmlns:xlink="http://www.w3.org/1999/xlink" width="19.91321" height="16.09132" viewBox="0,0,19.91321,16.09132"><g transform="translate(-237.59558,-168.79829)"><g data-paper-data="{&quot;isPaintingLayer&quot;:true}" fill-rule="nonzero" stroke="none" stroke-width="0.5" stroke-linecap="butt" stroke-linejoin="miter" stroke-miterlimit="10" stroke-dasharray="" stroke-dashoffset="0" style="mix-blend-mode: normal"><g><path d="M254.66747,182.86588c-0.43984,0.08797 -0.74789,-0.02176 -0.96116,-0.19344c-0.19452,0.13654 -0.43152,0.2167 -0.68723,0.2167h-0.77101v-0.06851l-0.118,0.06269c-0.04977,-0.00996 -0.09955,-0.01918 -0.14936,-0.02774c-0.57792,0.32858 -1.38009,0.14028 -2.05571,0.24182c-2.15463,0.32382 -4.35713,0.83881 -6.54361,0.81977c-0.78112,-0.0068 -2.2444,0.13253 -2.63476,-0.92847c-0.33253,-0.00015 -0.68816,-0.13885 -1.08,-0.49948c-0.50396,-0.46383 -0.55276,-1.31414 -0.48793,-1.99598c0.03389,-0.35642 0.52875,-0.48725 0.75072,-0.76818c0.18318,-0.23184 0.31275,-0.50169 0.45655,-0.75981c0.13824,-0.24813 0.10705,-0.55894 0.13148,-0.84194c0.0627,-0.72651 0.12442,-1.35019 0.12442,-2.08577c0,0 0,-1.1975 1.1975,-1.1975c0.45375,0 0.73558,0.17193 0.91061,0.38551h0.37442c0.23743,-0.09838 0.51401,-0.00022 0.77101,0c0.35672,0.0003 0.71395,0.00827 1.07062,0.02642c0.1112,-0.00868 0.22029,-0.01497 0.3239,-0.02141c0.20828,-0.01294 0.40544,0.02347 0.59417,0.09245c0.12456,0.01318 0.24894,0.02789 0.37308,0.04422c1.22363,0.16103 2.43586,0.24382 3.67787,0.24382c0.54808,0 2.05165,-0.00674 2.27456,0.05138c0.40547,0.10573 0.71761,0.43294 1.07353,0.6541c0.9036,0.56147 2.32188,0.89764 2.87132,1.90082c0.20259,0.36988 0.17297,0.84243 0.11411,1.26003c-0.07605,0.53959 -0.06013,1.24635 -0.51058,1.55301c-0.06896,0.04695 -0.13914,0.09011 -0.21045,0.12969l0.05935,0.29673c0,0 0.23485,1.17425 -0.9394,1.4091z" fill="#98673d"/><path d="M245.98735,184.58541c-0.6159,-0.007 -1.09952,-0.28692 -1.66332,-0.36549c-0.13233,0.03363 -0.25968,0.06452 -0.37956,0.08768c-1.43455,0.27714 -3.0081,0.27861 -4.46704,0.27861c0,0 -0.44105,0 -0.78782,-0.26767c-0.73684,-0.13399 -0.90044,-0.95199 -0.90044,-0.95199c-0.16154,-0.84059 -0.26063,-1.09263 -0.14019,-2.07148c0.12465,-1.01297 0.60412,-2.00917 0.78076,-3.01442c0.11874,-0.67577 0.17054,-1.36174 0.2387,-2.04446c0.04225,-0.42321 -0.0983,-0.89062 0.08815,-1.2729c0.24009,-0.49228 0.66212,-0.9013 1.1193,-1.2029c1.64457,-1.08495 3.46741,-0.54551 5.22593,-0.43177c1.24631,0.08062 2.42458,0.02855 3.59726,0.53154c1.18782,-0.02329 2.94171,-0.50541 4.08689,-0.05895c0.34281,0.13364 0.55679,0.48124 0.84035,0.7157c0.69942,0.57828 1.28279,1.32529 1.68965,2.14792c0.61205,1.23753 0.6702,2.63696 1.29538,3.87531l0.12851,0.257c0,0 0.32947,0.65894 -0.04527,1.20155c0.35033,0.10627 0.8142,0.38771 0.8142,1.13302c0,1.1975 -1.1975,1.1975 -1.1975,1.1975l-0.02215,-0.02326c-0.96918,0.18625 -1.92669,0.15744 -2.9076,0.14897c-1.05669,0.24805 -2.21818,0.33987 -3.29753,0.25874c-0.77231,0.07862 -1.62168,0.28942 -2.40052,0.09751c-0.27286,-0.06724 -0.5158,-0.21419 -0.75728,-0.36584c-0.31143,0.06951 -0.62244,0.14366 -0.93886,0.14007zM247.66839,181.93466c0.91244,0.00081 1.78122,0.24985 2.67545,0.35649c0.85766,-0.058 1.68046,-0.07571 2.55106,-0.20789c0.55067,-0.11855 1.09676,-0.23945 1.67505,-0.27056l-0.10075,-0.20151c-0.6833,-1.37754 -0.79852,-2.9661 -1.60025,-4.24704c-0.23303,-0.37233 -0.50048,-0.72812 -0.81183,-1.03795c-0.08609,-0.08568 -0.07658,-0.26322 -0.18767,-0.31232c-0.09932,-0.0439 -0.20459,0.08163 -0.31276,0.09115c-0.23131,0.02036 -0.46502,-0.01926 -0.6966,-0.00231c-0.86974,0.06364 -1.74191,0.11982 -2.61392,0.10921c-1.14575,-0.43379 -2.13037,-0.41352 -3.34188,-0.49649c-0.75601,-0.05177 -1.48996,-0.31955 -2.25789,-0.25593c-0.2171,0.01799 -1.64406,0.16132 -1.6771,0.4203c-0.0225,0.1764 0.09366,0.3484 0.08815,0.52614c-0.0242,0.77991 -0.13922,1.55629 -0.27531,2.32462c-0.21323,1.20381 -0.73935,2.27848 -0.72238,3.46149c1.0754,0.00124 2.21538,-0.0095 3.24931,-0.20041c0.18679,-0.10854 0.38242,-0.15373 0.51293,-0.17253c0.10074,-0.05176 0.20194,-0.1016 0.31209,-0.12031c0.10521,-0.01787 1.37741,-0.027 1.63999,-0.02161c0.306,0.00628 0.62162,-0.04571 0.91764,0.03203c0.20459,0.05373 0.39209,0.15296 0.5751,0.26406c0.13299,-0.02334 0.26664,-0.03875 0.40157,-0.03863z" fill="#69472a"/></g><path d="M242.53804,171.35803c0.05303,-0.10607 0.1111,-0.19704 0.17277,-0.27483c-0.03481,-0.12047 -0.05473,-0.25835 -0.05473,-0.41615c0,-1.25 1.25,-1.25 1.25,-1.25c1.5895,0 4.25733,-1.02578 5.64528,-0.43585c1.56077,0.66338 3.02332,2.40763 1.1472,4.15253c-0.90982,0.84619 -5.19118,0.28332 -6.54249,0.28332l-1.05902,-0.38197c0,0 -1.11803,-0.55902 -0.55902,-1.67705z" fill="#1c132f"/></g></g></svg>