<svg version="1.1" xmlns="http://www.w3.org/2000/svg" xmlns:xlink="http://www.w3.org/1999/xlink" width="50.18475" height="116.2518" viewBox="0,0,50.18475,116.2518"><defs><linearGradient x1="244.34169" y1="232.95739" x2="242.06871" y2="232.8386" gradientUnits="userSpaceOnUse" id="color-1"><stop offset="0" stop-color="#2c2c25"/><stop offset="1" stop-color="#6a6566"/></linearGradient><linearGradient x1="241.28081" y1="156.80857" x2="241.28081" y2="201.80857" gradientUnits="userSpaceOnUse" id="color-2"><stop offset="0" stop-color="#a8a29c"/><stop offset="1" stop-color="#808080"/></linearGradient></defs><g transform="translate(-214.15366,-150.67005)"><g data-paper-data="{&quot;isPaintingLayer&quot;:true}" fill-rule="nonzero" stroke="none" stroke-linecap="butt" stroke-linejoin="miter" stroke-miterlimit="10" stroke-dasharray="" stroke-dashoffset="0" style="mix-blend-mode: normal"><path d="M242.71747,198.38908l3.22007,68.53277c-0.70949,-0.35422 -1.45783,-0.62882 -2.3056,-0.81311l-3.18745,-67.83845z" fill="url(#color-1)" stroke-width="1.0243"/><g><path d="M218.78081,179.30857c0,-12.4264 10.0736,-22.5 22.5,-22.5c12.4264,0 22.5,10.0736 22.5,22.5c0,12.4264 -10.07359,22.5 -22.5,22.5c-12.4264,0 -22.5,-10.0736 -22.5,-22.5z" fill="url(#color-2)" stroke-width="1"/><path d="M235.15963,166.74302c-0.69338,1.04006 -1.73344,0.34668 -1.73344,0.34668l-0.76452,-0.51459c-1.11712,-0.62117 -3.70534,-3.17572 -4.83713,-3.24729c-0.25348,-0.01603 -0.42035,0.28529 -0.6342,0.42231c-0.46203,0.29604 -1.37799,0.16593 -1.48837,0.70346c-0.05096,0.24817 2.47086,3.32029 2.73936,3.66476c0,0 0.27498,0.35354 0.28411,0.80197l0.2455,0.28642c0,0 0.81348,0.94907 -0.13559,1.76256c-0.94907,0.81349 -1.76256,-0.13558 -1.76256,-0.13558l-0.85084,-0.99265c0,0 -0.34089,-0.39771 -0.32388,-0.89889c-1.11488,-1.38271 -2.92417,-3.69383 -2.64664,-4.98346c0.26109,-1.21328 3.50848,-3.19073 4.68416,-3.12843c1.81385,0.09612 4.35013,2.67688 5.94018,3.55943l0.93716,0.61986c0,0 1.04007,0.69338 0.34669,1.73344z" fill="#a8a29c" stroke-width="0.5"/><path d="M245.33554,158.21436c-1.24034,0.15505 -1.39539,-1.08531 -1.39539,-1.08531l-0.09618,-0.92189c-0.16724,-0.55833 -0.27493,-1.13808 -0.5017,-1.675c-1.63655,-3.87483 -3.18105,3.65805 -3.68442,4.79301c0,0 -0.50767,1.14227 -1.64993,0.63459c-1.14227,-0.50768 -0.6346,-1.64994 -0.6346,-1.64994c0.69375,-1.55742 1.30364,-5.73001 2.72101,-6.80653c3.41166,-2.59125 5.35094,1.46252 6.13909,3.96866l0.18743,1.34702c0,0 0.15504,1.24035 -1.0853,1.39539z" fill="#a8a29c" stroke-width="0.5"/><path d="M261.63007,175.38263c-1.25,0 -1.25,-1.25 -1.25,-1.25l0.00937,-1.5708c0.62959,-2.55002 0.65607,-5.16532 1.14804,-7.74325c0.03794,-0.19881 0.10883,-0.48981 0.19981,-0.78036c-0.31239,0.13116 -0.65079,0.2261 -0.89496,0.26657c-2.07718,0.34432 -3.77395,-0.19072 -5.89887,0.27277c0,0 -1.22225,0.26191 -1.48416,-0.96034c-0.26191,-1.22225 0.96034,-1.48416 0.96034,-1.48416c2.4593,-0.51872 4.66478,0.03974 7.05034,-0.51357c0.80577,-0.18689 1.72765,-1.04495 2.41249,-0.58107c0.69582,0.47133 0.38227,1.64858 0.40381,2.48873c0.07086,2.76445 -0.74189,6.68048 -1.41557,9.34014l0.00937,1.26533c0,0 0,1.25 -1.25,1.25z" fill="#a8a29c" stroke-width="0.5"/><path d="M230.60744,183.66672c-0.7041,0.7041 -1.40821,0.28642 -1.6655,0.08738c-1.59753,0.03484 -2.87944,0.24427 -4.26191,0.31528l0.02755,0.3857l-1.97243,0.14089c-0.03362,0.00271 -0.06761,0.0041 -0.10192,0.0041c-0.69036,0 -1.25,-0.55964 -1.25,-1.25c0,-0.31318 0.11517,-0.59946 0.30546,-0.81879l0.7843,-0.91501c0.60226,-1.09211 1.27076,-2.14707 1.9449,-3.19635c0,0 0.67594,-1.05147 1.72742,-0.37553c1.05148,0.67595 0.37553,1.72742 0.37553,1.72742c-0.4019,0.62481 -0.79966,1.25278 -1.18516,1.88801c1.24664,-0.46851 2.75402,-0.40777 4.10427,-0.4106l1.16749,0.64973c0,0 0.88388,0.88388 0,1.76776z" fill="#a8a29c" stroke-width="0.5"/><path d="M226.29394,193.98557c0,1.25 -1.25,1.25 -1.25,1.25l-0.17044,-0.00513c-3.08972,0.26039 -7.90505,0.23363 -5.3206,-4.32238c0.28266,-0.49828 0.95012,-0.64028 1.42518,-0.96042c0,0 1.06,-0.6625 1.7225,0.3975c0.6625,1.06 -0.3975,1.7225 -0.3975,1.7225c-2.70677,1.46819 0.80611,0.82557 2.34408,0.67308l0.39678,-0.00514c0,0 1.25,0 1.25,1.25z" fill="#a8a29c" stroke-width="0.5"/><path d="M238.76037,181.62224c2.06944,-0.79723 3.72055,-1.22689 5.76624,-2.24861l0.05377,-0.00545l-0.00594,-0.01484l1.39175,-0.5567c0.15061,-0.06433 0.31643,-0.09993 0.49056,-0.09993c0.21205,0 0.41178,0.0528 0.58673,0.14598c0.03938,-0.00275 0.08013,-0.00417 0.1223,-0.00417c1.25,0 1.25,1.25 1.25,1.25l-0.00128,1.21962c0.19905,2.16988 1.56801,7.05982 -1.58681,7.95038c-0.68947,0.19463 -1.32333,-0.55007 -1.97503,-0.84761c-2.33012,-1.06384 -5.29385,-2.6415 -6.99419,-4.52132c0,0 -0.82313,-0.94072 0.11759,-1.76385c0.13185,-0.11536 0.26138,-0.19608 0.38666,-0.2496c0.1997,-0.17471 0.39765,-0.25389 0.39765,-0.25389zM246.36943,186.80087c0.11979,0.12083 0.14494,0.01613 0.12986,-0.18298c-0.06043,0.04554 -0.12513,0.08572 -0.19339,0.11985c0.02134,0.02089 0.04251,0.04194 0.06353,0.06313z" fill="#a8a29c" stroke-width="0.5"/><path d="M251.57388,168.1816c0.00329,0.0033 0.00657,0.00661 0.00984,0.00993c0.00217,-0.00626 0.00432,-0.01251 0.00645,-0.01876c-0.00542,0.003 -0.01085,0.00595 -0.01629,0.00883zM250.14196,170.9598c0.01354,0.01758 0.02662,0.03553 0.03923,0.05383c0.01144,-0.01935 0.02292,-0.03881 0.03443,-0.05838c-0.02452,0.00168 -0.04907,0.0032 -0.07366,0.00456zM248.44348,172.75249l-1.26204,-0.84136l0.16876,-0.25314c-0.07095,-0.03849 -0.13851,-0.07984 -0.20207,-0.12457c-1.40025,-0.66655 -2.77793,-1.36884 -4.13457,-2.12218c0,0 -0.7157,-0.39761 -0.66686,-1.12847c-0.17539,-0.15411 -0.32037,-0.38768 -0.38249,-0.73964c-0.21723,-1.23098 1.01375,-1.44821 1.01375,-1.44821c2.51128,-0.44162 5.47217,-1.35472 7.97254,-1.565c0.74208,-0.06241 1.66556,-0.25347 2.22087,0.24272c2.5127,2.2452 -0.38588,6.80958 -1.68404,8.88802l-0.15776,0.58363c0,0 -0.39528,1.18585 -1.58114,0.79057c-1.18585,-0.39528 -0.79057,-1.58114 -0.79057,-1.58114l0.1765,-0.48193c-0.25629,-0.00336 -0.49397,-0.08384 -0.69089,-0.21931zM246.82331,168.59509c-0.04249,-0.18027 -0.0644,-0.34972 -0.06826,-0.50929c-0.24434,0.03379 -0.48898,0.06595 -0.73382,0.09768c0.26691,0.13808 0.53437,0.27508 0.80208,0.41162z" fill="#a8a29c" stroke-width="0.5"/><path d="M223.4578,173.70721c0,0.05286 -0.00328,0.10495 -0.00965,0.15609l-0.1398,1.25821l-1.0675,1.45488c0,0 -0.22077,0.22077 -0.55197,0.33131c0.08942,0.21493 0.11695,0.4876 0.01916,0.82989c-0.3434,1.2019 -1.54531,0.8585 -1.54531,0.8585l-0.78729,-0.24316c-1.27201,-0.15142 -5.1855,-0.87202 -5.22154,-2.71834c-0.01992,-1.02044 1.23156,-1.65582 2.0282,-2.29383c1.31763,-1.05526 3.79846,-1.91764 5.37623,-2.6193c0,0 1.14226,-0.50767 1.64994,0.63459c0.29226,0.65759 0.03771,1.10486 -0.23093,1.36604c0.29248,0.22879 0.48048,0.585 0.48048,0.98513z" fill="#a8a29c" stroke-width="0.5"/><path d="M235.69025,174.61655l-0.06241,0.20804c0.36412,0.09789 0.72173,0.18371 1.07088,0.24618c0.00079,-0.07673 0.00266,-0.15351 0.00496,-0.2303c-0.31065,-0.01982 -0.64946,-0.09693 -1.01343,-0.22391zM239.19751,174.89418c0.03302,-0.01503 0.06588,-0.03073 0.09856,-0.04711c-0.03341,-0.01653 -0.06645,-0.03335 -0.09915,-0.05042c0.00023,0.03312 0.00043,0.06564 0.00059,0.09753zM242.89516,174.69164l-0.03157,-0.01578l-0.00533,0.08417c-2.72112,3.94224 -5.87598,2.96781 -10.05343,1.85665c0,0 -0.45515,-0.12137 -0.73213,-0.49451c-0.34331,0.15621 -0.98478,0.30581 -1.50567,-0.3887c-0.75,-1 0.25,-1.75 0.25,-1.75c1.57778,-1.15857 3.28122,-5.51069 5.42324,-5.49683c0.071,0.00046 0.14029,0.0037 0.20791,0.00962c0.0642,-0.1851 0.18865,-0.37578 0.40304,-0.55955c0.94907,-0.81349 1.76256,0.13558 1.76256,0.13558c0.50278,0.58957 0.68175,1.47524 1.32155,1.91232c0.78615,0.53706 2.90514,0.58011 3.90932,1.02046l0.816,0.87431c0,0 0.69338,1.04006 -0.34669,1.73344c-0.37823,0.25215 -0.71061,0.27506 -0.98047,0.20211zM236.25305,170.9866c-0.07174,0.13664 -0.14433,0.27237 -0.21792,0.40709c0.1193,-0.03045 0.2386,-0.06198 0.3579,-0.09137c-0.01276,-0.3046 -0.04103,-0.50419 -0.13998,-0.31573zM240.76973,172.75437c0.00253,-0.00079 0.00506,-0.00158 0.0076,-0.00239c-0.05659,-0.01094 -0.11315,-0.02192 -0.1696,-0.03299c0.00564,0.02067 0.01074,0.04171 0.01523,0.06309c0.05418,-0.01279 0.10392,-0.02162 0.14677,-0.02771z" fill="#a8a29c" stroke-width="0.5"/><path d="M252.0049,188.26888c0.58025,-0.96707 1.54732,-0.38683 1.54732,-0.38683l0.90239,0.60164c1.22338,1.4764 2.75154,1.40501 4.65361,1.41268c0.72385,0.00292 1.66387,0.45949 2.17082,-0.05721c0.37488,-0.38208 -0.32355,-1.03273 -0.34919,-1.56739c-0.11083,-2.31154 -2.15646,-5.00098 -3.61446,-6.93433c0,0 -0.67668,-0.90224 0.22556,-1.57891c0.90224,-0.67668 1.57891,0.22556 1.57891,0.22556c1.71423,2.29668 3.90329,5.36493 4.06212,8.16295c0.04453,0.78443 0.4244,2.40214 -0.0933,3.03856c-2.16134,2.65692 -8.52615,0.72292 -10.31993,-1.20338l-0.37704,-0.16602c0,0 -0.96708,-0.58025 -0.38683,-1.54732z" fill="#a8a29c" stroke-width="0.5"/><path d="M259.17468,184.10494c0.61129,0.08168 1.06221,0.83016 1.73698,1.63738c0.41732,0.49924 1.15256,0.88419 1.20925,1.5324c0.08269,0.94552 0.04191,1.57497 -0.0923,1.978c0.00238,0.03485 0.00361,0.0709 0.00361,0.10817c0,1.12779 -1.12779,1.12779 -1.12779,1.12779l-0.08709,-0.03974c-2.01946,0.53733 -4.65805,1.45334 -5.06195,-0.85994c-0.03185,0.0027 -0.06408,0.00408 -0.09663,0.00408c-0.28954,0 -0.55359,-0.10911 -0.75329,-0.28845c-0.35015,-0.10434 -0.68417,-0.32591 -0.98925,-0.73434c-0.00565,-0.00757 -0.01128,-0.01519 -0.01688,-0.02286c-0.02414,0.16811 -0.04424,0.34504 -0.06011,0.53173c0,0 -0.10211,1.12316 -1.22527,1.02106c-1.12316,-0.10211 -1.02106,-1.22527 -1.02106,-1.22527c0.20139,-2.10165 0.69235,-4.07153 2.27543,-5.58666c0.54895,-0.52539 1.32976,-0.80329 1.79709,-1.40244c0.52473,-0.67274 0.62669,-2.61608 1.88798,-2.48056c0.88111,0.09467 1.39028,1.1889 1.75595,1.99612c0.35769,0.78961 0.2214,1.7457 -0.13469,2.70352z" fill="#a8a29c" stroke-width="0.5"/><path d="M261.57737,169.30264c0.05721,0.5298 0.19874,1.08476 0.55961,1.70405l-0.13643,0.38794l0.16535,0.01503l-0.14065,1.54718c-0.05117,0.64337 -0.58949,1.14952 -1.24602,1.14952c-0.46331,0 -0.86774,-0.25206 -1.08365,-0.62653l-0.83905,-1.39842l0.16752,-0.10051c-0.10753,-0.16403 -0.17753,-0.35489 -0.19777,-0.56036c-0.58278,-1.00231 -0.92712,-2.02504 -1.55435,-3.43582c-0.8252,-1.07342 -1.7546,-2.06871 -2.66866,-3.08417c0,0 -0.83621,-0.92912 0.09291,-1.76532c0.92912,-0.83621 1.76532,0.09291 1.76532,0.09291c0.06477,0.07197 0.1294,0.14381 0.19389,0.21553c0.90379,-0.83274 3.03423,-0.24382 4.08537,-0.03783l0.59749,0.2495c0,0 0.87961,0.43981 0.68832,1.31942c0.00177,0.02718 0.00266,0.0546 0.00266,0.08223c0,0.42466 -0.21176,0.79985 -0.53544,1.02576c0.69546,0.68576 0.52197,1.95718 0.08358,3.21989z" fill="#a8a29c" stroke-width="0.5"/><path d="M223.8237,181.49413c-0.27116,-1.22023 0.94907,-1.4914 0.94907,-1.4914l0.28697,-0.06337c0.02404,-0.14147 0.07684,-0.29424 0.16776,-0.4579c0.60705,-1.0927 1.69975,-0.48564 1.69975,-0.48564l1.25444,0.69691c0.39545,0.20991 0.66477,0.62591 0.66477,1.10482c0,0.64884 -0.49435,1.18221 -1.12695,1.24402l-1.21069,0.13452l-1.19372,0.26711c0,0 -1.22023,0.27116 -1.4914,-0.94907z" fill="#a8a29c" stroke-width="0.5"/><path d="M234.09331,166.33326c0,0.94905 -0.72056,1.17755 -1.06752,1.23256c-0.66913,0.32517 -1.34942,0.64343 -2.0436,0.91953l0.19927,0.35868l-1.25641,0.69801c-0.18429,0.10704 -0.39844,0.16833 -0.6269,0.16833c-0.05032,0 -0.09995,-0.00297 -0.14872,-0.00875c-0.14411,0.11955 -0.33821,0.21598 -0.59879,0.26809c-1.22573,0.24515 -1.47087,-0.98058 -1.47087,-0.98058c-0.19103,-0.95539 -1.29287,-4.57685 -0.51672,-5.23364c1.16816,-0.9885 4.14046,0.1628 4.70396,1.45153c0.05182,0.11852 0.08947,0.24015 0.11601,0.36422c0.23996,-0.10911 0.49767,-0.22295 0.75946,-0.35601l0.70082,-0.13197c0,0 1.25,0 1.25,1.25z" fill="#a8a29c" stroke-width="0.5"/><path d="M245.07173,160.26861c-0.57426,0.57426 -1.14852,0.40233 -1.48038,0.2114c-0.5636,0.70645 -1.3641,1.13217 -2.41847,1.00501c-0.65581,-0.0791 -1.15368,-0.21839 -1.51971,-0.40033c-0.2738,0.15644 -0.65026,0.22486 -1.12938,-0.0147c-1.11803,-0.55902 -0.55902,-1.67705 -0.55902,-1.67705c0.7829,-1.5658 1.5056,-3.4164 2.55252,-4.82143c0.48666,-0.65313 0.81181,-1.8487 1.62594,-1.82403c0.91082,0.02761 1.46049,1.15345 1.93411,1.93193c0.49426,0.81238 0.6642,2.1314 0.47472,3.39457l0.51966,0.42686c0,0 0.88388,0.88388 0,1.76777z" fill="#a8a29c" stroke-width="0.5"/><path d="M225.4431,192.70931c0,1.25 -1.25,1.25 -1.25,1.25l-0.69658,-0.02977c-0.42542,-0.09454 -0.85084,-0.18908 -1.27626,-0.28361c0,0 -1.22023,-0.27116 -0.94907,-1.4914c0.27116,-1.22023 1.4914,-0.94907 1.4914,-0.94907c0.42542,0.09454 0.85084,0.18908 1.27626,0.28361l0.15426,-0.02977c0,0 1.25,0 1.25,1.25z" fill="#a8a29c" stroke-width="0.5"/><path d="M243.57743,192.4044c0.88491,0.55307 0.33184,1.43798 0.33184,1.43798l-0.62369,0.99491c-1.87394,2.37642 -3.63216,5.30195 -5.76005,7.42676c-1.40161,1.39958 -2.45057,2.87199 -4.36241,0.84418c-0.37963,-0.40266 -0.14549,-1.09812 -0.17942,-1.65048c-0.11753,-1.9134 0.01179,-3.84374 -0.33832,-5.73249c0,0 -0.18667,-1.0267 0.84002,-1.21337c1.02669,-0.18667 1.21337,0.84002 1.21337,0.84002c0.38383,2.14735 0.40222,4.45862 0.19256,6.58625c-0.04884,0.49566 0.75719,-0.6567 1.06402,-1.04902c0.27883,-0.35652 0.5129,-0.74603 0.78001,-1.11141c1.53833,-2.10431 3.22586,-4.09876 4.84394,-6.14228l0.56015,-0.89922c0,0 0.55307,-0.88491 1.43798,-0.33184z" fill="#a8a29c" stroke-width="0.5"/><path d="M232.17764,192.36292c0.40104,-0.80146 1.52991,-1.17048 2.42604,-1.15885c0.48965,0.00636 0.92721,0.25646 1.28202,0.64383c0.12071,-0.04879 0.25262,-0.07565 0.39082,-0.07565c0.46703,0 0.8624,0.3068 0.99556,0.72986c1.14826,-0.39803 2.32033,-0.69695 3.63023,-0.84247l0.00588,0.00117l-0.00018,-0.00175l1.16987,-0.11699c0.03867,-0.00434 0.07797,-0.00658 0.1178,-0.00658c0.57632,0 1.04353,0.4672 1.04353,1.04353c0,0.265 -0.09878,0.50693 -0.26152,0.69097l-0.82535,0.94326l-0.32645,-0.28564c-0.43965,0.47257 -0.91837,0.89459 -1.41387,1.3026c0.07913,0.66999 -0.59085,1.00498 -0.59085,1.00498l-0.06278,0.00873c-0.10909,0.08247 -0.20909,0.16603 -0.30112,0.2506c0.40643,1.20343 -0.87739,3.00108 -2.29551,3.99604l0.0088,0.00792l-1.06232,1.18036c-0.19111,0.21411 -0.4692,0.34892 -0.77878,0.34892c-0.52378,0 -0.95743,-0.3859 -1.03215,-0.88889l-0.07383,-0.44295c-0.54418,-0.6188 -0.63605,-1.65383 -0.454,-2.734c-0.18112,-0.62835 -0.40518,-1.23222 -0.53248,-1.80493c-0.30531,-0.45736 -0.61062,-0.91472 -0.91593,-1.37208l0.05896,-0.21806l-0.10143,0.01014l-0.11699,-1.16987c-0.00434,-0.03867 -0.00658,-0.07797 -0.00658,-0.1178c0,-0.14209 0.0284,-0.27754 0.07983,-0.401c-0.10801,-0.16959 -0.14837,-0.3432 -0.05721,-0.52539zM237.82276,194.5155c-0.10427,0.03696 -0.20834,0.07483 -0.31232,0.11355c-0.02643,0.08884 -0.06065,0.177 -0.09981,0.26471c0.13598,-0.12841 0.27364,-0.25495 0.41213,-0.37826z" fill="#a8a29c" stroke-width="0.5"/><path d="M247.46877,195.98177c0.9355,-0.34018 4.38328,-2.41935 5.24638,-1.73611c1.55449,1.23055 -0.44664,7.4531 -1.96698,8.03837c-0.71451,0.27506 -3.82922,-1.43549 -4.61385,-1.74921c0,0 -1.1606,-0.46424 -0.69636,-1.62483c0.09097,-0.22743 0.20868,-0.39247 0.33916,-0.51083c-0.09254,-0.1745 -0.14495,-0.37353 -0.14495,-0.58481c0,-0.45473 0.24281,-0.85274 0.60585,-1.07147l1.1161,-0.69756l0.02261,0.03617z" fill="#a8a29c" stroke-width="0.5"/></g><path d="" fill="#9966ff" stroke-width="0.5"/></g></g></svg>