<svg version="1.1" xmlns="http://www.w3.org/2000/svg" xmlns:xlink="http://www.w3.org/1999/xlink" width="116.67092" height="112.96769" viewBox="0,0,116.67092,112.96769"><defs><linearGradient x1="249.69539" y1="123.77265" x2="249.69539" y2="142.45601" gradientUnits="userSpaceOnUse" id="color-1"><stop offset="0" stop-color="#427f1f"/><stop offset="1" stop-color="#7f491f"/></linearGradient><linearGradient x1="250.46939" y1="216.98064" x2="250.46939" y2="234.85458" gradientUnits="userSpaceOnUse" id="color-2"><stop offset="0" stop-color="#427f1f"/><stop offset="1" stop-color="#7f491f"/></linearGradient><linearGradient x1="269.72108" y1="211.71368" x2="269.72108" y2="227.19503" gradientUnits="userSpaceOnUse" id="color-3"><stop offset="0" stop-color="#427f1f"/><stop offset="1" stop-color="#7f491f"/></linearGradient><linearGradient x1="269.41006" y1="131.87104" x2="269.41006" y2="147.34312" gradientUnits="userSpaceOnUse" id="color-4"><stop offset="0" stop-color="#427f1f"/><stop offset="1" stop-color="#7f491f"/></linearGradient><linearGradient x1="228.02562" y1="146.27852" x2="228.02562" y2="213.48868" gradientUnits="userSpaceOnUse" id="color-5"><stop offset="0" stop-color="#427f1f"/><stop offset="1" stop-color="#7f491f"/></linearGradient></defs><g transform="translate(-181.82023,-122.97541)"><g data-paper-data="{&quot;isPaintingLayer&quot;:true}" fill-rule="nonzero" stroke="none" stroke-linejoin="miter" stroke-miterlimit="10" stroke-dasharray="" stroke-dashoffset="0" style="mix-blend-mode: normal"><path d="M257.93833,195.04054c-0.49455,-5.38535 -0.00002,0.00001 -0.00002,0.00001c-0.61829,-6.73261 11.52643,-4.89274 15.51967,-5.34204c3.99324,-0.4493 5.67155,-2.78021 11.14766,-2.92196c5.07604,-0.1314 13.87071,2.45086 13.49944,5.89344c-0.40753,3.77862 -4.26547,5.63738 -9.15829,7.38549c-5.45419,1.94868 -9.49376,0.98987 -13.99012,0.81697c-7.43098,-0.28577 -16.52377,-0.44654 -17.01831,-5.8319z" data-paper-data="{&quot;origPos&quot;:null,&quot;index&quot;:null}" fill="#22383f" stroke-width="0" stroke-linecap="butt"/><path d="M258.313,164.89013c0.49454,-5.38535 9.58733,-5.54613 17.01831,-5.83188c4.49637,-0.17291 8.53595,-1.13173 13.99014,0.81697c4.89282,1.74812 8.75078,3.60686 9.15831,7.38549c0.37128,3.44257 -8.42339,6.02484 -13.49944,5.89344c-5.4761,-0.14176 -7.15442,-2.47265 -11.14766,-2.92195c-3.99324,-0.4493 -16.13796,1.39056 -15.51967,-5.34204c0,0 -0.49453,5.38536 0.00002,0.00001z" data-paper-data="{&quot;origPos&quot;:null,&quot;index&quot;:null}" fill="#22383f" stroke-width="0" stroke-linecap="butt"/><path d="M289.00399,173.68419z" data-paper-data="{&quot;index&quot;:null}" fill="#e6b88e" stroke-width="0" stroke-linecap="butt"/><path d="M288.90398,185.29361z" data-paper-data="{&quot;index&quot;:null}" fill="#e6b88e" stroke-width="0" stroke-linecap="butt"/><path d="M229.44413,132.27051c0.33939,-7.55089 13.08098,-10.78102 23.31966,-6.75176c9.09736,3.33784 18.20942,7.02901 17.0953,10.45721c-2.02954,6.24489 -12.64372,4.62161 -18.50916,6.1487c-5.86543,1.52708 -22.24521,-2.30326 -21.9058,-9.85414z" data-paper-data="{&quot;origPos&quot;:null,&quot;origRot&quot;:0,&quot;index&quot;:null}" fill="url(#color-1)" stroke-width="0" stroke-linecap="butt"/><path d="M251.41426,217.57451c5.71675,2.00742 16.67482,0.0326 18.17087,6.42308c0.82124,3.50813 -7.98366,6.99577 -17.33161,9.56804c-11.98185,3.10494 -21.2446,0.53644 -20.94613,-7.01537c0.31146,-7.87898 14.39009,-10.98323 20.10687,-8.97576z" data-paper-data="{&quot;origPos&quot;:null,&quot;origRot&quot;:0,&quot;index&quot;:null}" fill="url(#color-2)" stroke-width="0" stroke-linecap="butt"/><path d="M273.87281,214.84873c-2.07863,3.35062 1.01674,2.90431 2.1314,2.34172c1.2674,-0.63967 -0.54959,-4.36955 1.95521,-4.53362c1.71602,-0.11239 2.10616,5.3107 0.73238,9.06113c-2.08124,5.42019 -27.24246,9.18835 -15.80286,-0.51873c2.14128,-6.59994 15.56885,-13.74124 10.98386,-6.35046z" data-paper-data="{&quot;origPos&quot;:null,&quot;origRot&quot;:0,&quot;index&quot;:null}" fill="url(#color-3)" stroke-width="0" stroke-linecap="butt"/><path d="M257.87815,168.3417c-0.72003,-1.29615 -0.74563,-3.07224 -0.49757,-4.89623c0.23037,-1.6939 0.2653,-3.80295 1.50351,-4.94226c-0.00081,-0.03131 -0.00123,-0.06303 -0.00123,-0.09517c0,-2.5 2.5,-2.5 2.5,-2.5c2.06642,0 7.64141,-0.73212 9.27966,0.37337c3.09149,2.08615 2.43716,6.64699 2.32358,9.71266c-0.04595,1.24015 0.36394,2.62917 -0.23603,3.7155c-1.97466,3.57543 -6.6111,4.27817 -10.2293,3.71542c-1.62267,-0.25238 -4.03182,0.27527 -4.78174,-1.18568c-0.79026,-1.53953 -0.5627,-2.83041 0.13912,-3.89761z" fill="#98c2d3" stroke-width="0.5" stroke-linecap="butt"/><path d="M257.99334,192.33389c-0.49657,-0.49374 -0.8961,-1.28573 -0.4994,-2.47582c0.79057,-2.37171 3.16227,-1.58114 3.16227,-1.58114c0.89249,0.33674 1.72627,0.93828 2.67746,1.01021c3.3403,0.25259 6.49141,-4.21682 10.07015,-0.39411c2.31464,2.47243 0.8125,7.58349 -0.27627,10.02658c-2.32834,5.22457 -7.75832,6.46244 -12.8826,6.36667c-1.71055,-0.03197 -3.54482,0.4557 -5.12902,-0.1903c-5.03226,-2.05202 -5.992,-8.27317 -1.49552,-11.26374c1.29818,-0.86342 2.79767,-1.29638 4.37294,-1.49835z" fill="#98c2d3" stroke-width="0.5" stroke-linecap="butt"/><path d="M252.39837,218.41342c0,0 -2.36008,17.24621 -11.94371,17.52448c-14.83347,0.43069 -30.14042,-25.94116 -30.18175,-56.12489c0.29066,-29.06976 13.27975,-55.61349 30.46089,-56.83044c9.02669,-0.43669 13.17475,19.2541 13.17475,19.2541c0,0 13.57266,8.93756 14.30677,37.26122c0.68528,26.43979 -15.81693,38.91553 -15.81693,38.91553z" data-paper-data="{&quot;origPos&quot;:null,&quot;index&quot;:null}" fill="#913653" stroke-width="0" stroke-linecap="butt"/><path d="M273.56766,144.20809c4.59204,7.38641 -8.84233,0.25791 -10.98991,-6.33998c-11.44887,-9.69618 13.71594,-5.95201 15.80234,-0.53381c1.37736,3.74912 0.99239,9.17259 -0.72374,9.06183c-2.50495,-0.16169 -0.69152,-3.89329 -1.95953,-4.53175c-1.1152,-0.56153 -4.21098,-1.00489 -2.12916,2.34375z" data-paper-data="{&quot;origPos&quot;:null,&quot;origRot&quot;:0,&quot;index&quot;:null}" fill="url(#color-4)" stroke-width="0" stroke-linecap="butt"/><g><path d="M256.00182,157.5878c3.6209,3.95863 6.32979,8.51547 6.80329,15.74264c0.1963,2.99625 5.07198,3.50447 5.07198,6.41808c0,2.54122 -4.63588,4.19547 -4.83373,5.78341c-0.79449,6.37686 -3.09358,11.33748 -5.56552,14.52236c-6.20842,6.54396 -12.9447,6.53844 -21.7911,8.30185c-3.59957,2.54721 -10.84227,6.83467 -11.85427,4.41939c-1.012,-3.67919 8.80678,-6.02425 -4.27545,-2.82496c-8.05919,1.9709 -31.61294,-1.01956 -31.38117,-30.70766c0.23176,-29.68809 22.68662,-32.14085 30.49399,-30.40267c12.75948,2.84067 1.3552,-0.02642 4.8486,-2.25955c1.89905,-1.13426 5.84651,1.04815 11.07049,4.4838c5.79764,2.39203 16.04799,0.65806 21.41287,6.52334z" data-paper-data="{&quot;origPos&quot;:null,&quot;index&quot;:null}" fill="url(#color-5)" stroke-width="0" stroke-linecap="butt"/><g data-paper-data="{&quot;origPos&quot;:null,&quot;index&quot;:null}" fill="#000000"><path d="M251.41183,198.73304c0,0 1.36035,-9.0299 1.3189,-11.90534c0.72458,-1.85426 3.68691,-2.25252 3.68691,-2.25252c0,0 -0.79469,0.91876 -1.66288,3.14074c-0.54865,14.07611 -7.31999,15.60601 -7.31999,15.60601z" data-paper-data="{&quot;origPos&quot;:null,&quot;index&quot;:null}" stroke-width="0.5" stroke-linecap="butt"/><path d="M247.58771,156.58255c0,0 6.77133,1.52984 7.31999,15.60594c0.8682,2.22199 1.66291,3.14077 1.66291,3.14077c0,0 -2.96239,-0.39826 -3.68694,-2.25252c0.04147,-2.87542 -1.3189,-11.90534 -1.3189,-11.90534z" data-paper-data="{&quot;origPos&quot;:null,&quot;index&quot;:null}" stroke-width="0.5" stroke-linecap="butt"/><path d="M253.35873,197.41101c0,0 2.69249,-4.3087 2.75335,-6.42451c0.07848,-2.7296 -0.30591,-4.13003 -0.30591,-4.13003c0,0 2.53243,0.25573 2.44743,3.97708c-0.08499,3.72129 -4.89488,6.57746 -4.89488,6.57746z" data-paper-data="{&quot;origPos&quot;:null}" stroke-width="0" stroke-linecap="round"/><path d="M258.25361,169.11255c0.08499,3.72129 -2.44743,3.97709 -2.44743,3.97709c0,0 0.38441,-1.40044 0.30592,-4.13004c-0.06087,-2.11577 -2.75335,-6.42451 -2.75335,-6.42451c0,0 4.80989,2.85617 4.89488,6.57747z" data-paper-data="{&quot;origPos&quot;:null,&quot;index&quot;:null}" stroke-width="0" stroke-linecap="round"/></g></g><path d="M220.47528,146.11303c17.01651,-0.26986 38.90259,1.87288 21.95755,20.54591c19.16118,42.25566 -0.69805,47.71539 -17.7167,47.71539c-27.44709,-0.61344 -38.17629,-15.81965 -38.17629,-34.57741c0,-18.75775 12.91679,-33.35056 33.93544,-33.68389z" data-paper-data="{&quot;origPos&quot;:null}" fill="#000000" stroke-width="0" stroke-linecap="butt"/><path d="M200.84977,155.75293c0,-1.38071 1.11929,-2.5 2.5,-2.5c1.38071,0 2.5,1.11929 2.5,2.5c0,1.38071 -1.11929,2.5 -2.5,2.5c-1.38071,0 -2.5,-1.11929 -2.5,-2.5z" fill="#000000" stroke-width="0.5" stroke-linecap="butt"/><path d="M231.41806,141.98599c1.25,0 1.25,1.25 1.25,1.25l-0.03733,0.45544c-0.02137,0.27837 -0.30617,0.696 -0.06411,0.83512c0.43848,0.252 1.17929,-0.37628 1.5172,0c1.91849,2.13632 0.30942,4.07975 -0.8671,5.85094c0,0 -0.69338,1.04006 -1.73344,0.34669c-1.04006,-0.69338 -0.34669,-1.73344 -0.34669,-1.73344c0.0403,-0.0602 1.64435,-2.42819 1.4087,-2.49368c-0.48727,-0.13542 -1.1487,0.34636 -1.51721,0c-0.57033,-0.53606 -0.54847,-1.46619 -0.82271,-2.19929l-0.03732,-1.06178c0,0 0,-1.25 1.25,-1.25z" fill="#000000" stroke-width="0.5" stroke-linecap="butt"/><path d="M206.48202,148.10168c-0.69338,-1.04006 0.34669,-1.73344 0.34669,-1.73344l1.54139,-0.93446c0.89452,0.20333 2.16818,-0.14889 2.68356,0.60999c0.89484,1.31762 -0.00788,3.1855 -0.00577,4.77824c0,0 0,1.25 -1.25,1.25c-1.25,0 -1.25,-1.25 -1.25,-1.25c0.00055,-0.45692 0.73226,-3.57208 0.40198,-2.95639l-0.73441,0.58275c0,0 -1.04006,0.69337 -1.73344,-0.34669z" fill="#000000" stroke-width="0.5" stroke-linecap="butt"/><path d="M249.62451,180.89891c-1.25,0 -1.25,-1.25 -1.25,-1.25v-1.13791c0.00448,-1.01556 0.40599,-2.1813 -0.12997,-3.04391c-0.4933,-0.79397 -1.86596,-0.13297 -2.79234,-0.25769h-1.05883c-0.86548,1.14763 -1.6664,2.41037 -1.87721,3.48627c-0.20848,1.06406 0.389,2.14477 0.39302,3.22905c0,0 0,1.25 -1.25,1.25c-1.25,0 -1.25,-1.25 -1.25,-1.25c0.00526,-1.20562 -0.59886,-2.41553 -0.36559,-3.59838c0.4663,-2.36443 2.75149,-5.1368 4.23364,-6.94157l1.34229,-1.62686c0.22919,-0.28203 0.57883,-0.46223 0.97057,-0.46223c0.69036,0 1.25,0.55964 1.25,1.25c0,0.29903 -0.105,0.57352 -0.28014,0.78865l-0.90759,1.13449c1.29648,-0.11469 2.89622,0.6021 3.5935,1.50009c0.8399,1.08166 0.62412,3.37392 0.62862,4.5421v1.13791c0,0 0,1.25 -1.25,1.25z" fill="#000000" stroke-width="0.5" stroke-linecap="butt"/><path d="M184.13031,188.45877c-1.22384,-0.2544 -0.96944,-1.47824 -0.96944,-1.47824l0.22801,-0.97455c0.96826,-2.24894 1.47573,-4.1933 2.28929,-6.12736c0.01426,-0.21147 0.02703,-0.39648 0.03724,-0.54475l-0.24075,-0.08025l0.74949,-2.24846c0.12567,-0.40864 0.45519,-0.72798 0.86988,-0.83937c-2.10769,-1.24263 -4.19603,-2.70448 -5.2738,-4.36757c0.70528,-0.29751 1.36931,-0.6736 1.9811,-1.1173c0.59079,0.79232 1.67274,1.17792 2.49463,1.76293c2.38715,1.69909 5.06445,3.02068 7.50605,4.6478c0,0 1.04006,0.69337 0.34669,1.73343c-0.69338,1.04006 -1.73344,0.34669 -1.73344,0.34669c-0.87906,-0.58627 -2.27556,-1.3012 -3.79264,-2.1376c0.03029,0.10779 0.0465,0.22147 0.0465,0.33894c0,0.11146 -0.01459,0.21951 -0.04196,0.32235l-0.42066,1.73001c-0.09563,1.41636 -0.95173,2.91843 -0.41979,4.23268c0.53152,1.31319 3.9577,2.16396 5.14812,2.3438c0,0 1.23299,0.2055 1.02749,1.43849c-0.2055,1.23299 -1.43849,1.02749 -1.43849,1.02749c-1.67284,-0.29941 -4.76099,-1.18107 -6.28995,-2.73045c-0.18784,0.43054 -0.37501,0.84997 -0.54714,1.25331l-0.0782,0.49855c0,0 -0.2544,1.22384 -1.47824,0.96944z" fill="#000000" stroke-width="0.5" stroke-linecap="butt"/><path d="" fill="#000000" stroke-width="0.5" stroke-linecap="butt"/><path d="M188.18632,158.64944c-1,-0.75 -0.25,-1.75 -0.25,-1.75l1.98048,-2.00725c0.86957,0.5457 1.68993,1.17908 2.60871,1.63711c1.48132,0.73847 1.77092,-0.34423 3.5088,0.81096c0.81422,0.54122 2.0051,2.41925 2.666,3.40883c0,0 0.69338,1.04006 -0.34669,1.73343c-1.04006,0.69338 -1.73344,-0.34668 -1.73344,-0.34668c-0.30342,-0.45602 -1.62998,-2.4888 -1.88561,-2.66c-1.74986,-1.17188 -2.85803,-0.16282 -4.50292,-2.10355l-0.29533,1.02716c0,0 -0.75,1 -1.75,0.25z" fill="#000000" stroke-width="0.5" stroke-linecap="butt"/><path d="M195.79525,202.72354c3.44815,-0.85887 3.67864,1.01642 4.56054,3.43858c0.2305,0.63308 0.40413,2.5926 0.56918,1.9394c0.36159,-1.43099 1.8158,-6.50718 3.41968,-7.20949c2.48686,-1.08894 4.57501,1.96431 5.43337,3.61103c0,0 0.55902,1.11803 -0.55902,1.67705c-1.11803,0.55902 -1.67705,-0.55902 -1.67705,-0.55902c-0.20009,-0.4251 -0.30393,-0.91069 -0.60026,-1.27529c-2.96552,-3.64867 -2.42716,5.30198 -4.96014,6.02146c-3.11628,0.88516 -3.29395,-1.37283 -3.98243,-3.37082c-0.19495,-0.56575 -0.08018,-2.59425 -1.50828,-1.87163c-1.81765,0.91974 -3.3669,3.25335 -4.8102,5.39457c-0.58715,-0.67837 -1.05142,-1.44471 -1.45867,-2.24922c1.66814,-2.42833 3.57784,-5.04961 5.57328,-5.54663z" fill="#000000" stroke-width="0.5" stroke-linecap="butt"/><path d="M230.15487,220.35941c-0.88388,-0.88388 0,-1.76777 0,-1.76777l1.08347,-0.99275c3.8885,-1.49276 -2.45481,-0.99913 -2.83762,-1.09931c-1.07811,-0.28215 -2.59708,-1.78178 -2.76937,-2.90042c-0.23599,-1.53219 0.76552,-3.1321 1.94038,-4.51387l1.25766,-2.01225c0.21872,-0.36304 0.61674,-0.60585 1.07147,-0.60585c0.5623,0 1.03788,0.37128 1.19497,0.88206l0.74949,2.24846l-0.02188,0.00729l0.04917,0.08668c0.13305,0.79054 0.2661,1.58108 0.39915,2.37162c0,0 0.2055,1.23299 -1.02749,1.43849c-1.23299,0.2055 -1.43849,-1.02749 -1.43849,-1.02749c-0.11449,-0.69436 -0.22898,-1.38873 -0.34347,-2.08309l-0.12871,-0.08044c-0.51311,1.03296 -1.29888,1.99185 -1.23204,2.90349c0.08938,1.21915 2.67341,0.83331 2.93722,0.83896c2.53263,0.05426 5.49905,1.53073 3.25086,4.68727c-0.4296,0.60317 -1.28883,0.72965 -1.93324,1.09448l-0.43374,0.52445c0,0 -0.88388,0.88388 -1.76777,0z" fill="#000000" stroke-width="0.5" stroke-linecap="butt"/><path d="M245.95678,211.63549c-0.88388,0.88388 -1.76777,0 -1.76777,0l0.50458,-0.01318c-0.50573,0 -1.01147,0 -1.5172,0c0,0 -1.25,0 -1.25,-1.25c0,-1.25 1.25,-1.25 1.25,-1.25c0.50573,0 1.01147,0 1.5172,0l1.26318,0.74542c0,0 0.88388,0.88388 0,1.76777z" fill="#000000" stroke-width="0.5" stroke-linecap="butt"/></g></g></svg>